<?xml version="1.0" encoding="utf-8"?>
<!-- Generator: Adobe Illustrator 15.0.2, SVG Export Plug-In . SVG Version: 6.00 Build 0)  -->
<!DOCTYPE svg PUBLIC "-//W3C//DTD SVG 1.0//EN" "http://www.w3.org/TR/2001/REC-SVG-20010904/DTD/svg10.dtd">
<svg version="1.0" id="Layer_1" xmlns="http://www.w3.org/2000/svg" xmlns:xlink="http://www.w3.org/1999/xlink" x="0px" y="0px"
	 width="512px" height="512px" viewBox="0 0 512 512" enable-background="new 0 0 512 512" xml:space="preserve">
<g>
	<path fill="#FFBA00" d="M23.483,210.769c-7.703-36.296-0.348-80.042,65.031-94.511c78.321-17.333,180.646-7.808,210.566-4.493
		c59.702,6.612,135.452,42.008,105.924-0.643c-23.112-33.381-3.21-78.592,35.308-56.492
		c38.012,21.809,49.494,142.552,52.617,161.313c5.443,32.693-37.332,2.075-50.075-6.42c-25.036-16.691-60.318-43.191-121.305-42.549
		c-43.697,0.459-167.553-8.346-193.232-3.852c-25.68,4.494-58.612,11.992-61.18,37.67C64.569,226.472,31.187,247.066,23.483,210.769
		z"/>
	<path fill="#FFBA00" d="M490.932,277.585c7.703,36.297,0.349,80.042-65.031,94.511c-78.319,17.333-180.646,7.808-210.564,4.494
		c-59.703-6.612-135.452-42.009-105.924,0.642c23.112,33.383,3.209,78.593-35.309,56.493
		c-38.01-21.81-49.493-142.552-52.615-161.313c-5.443-32.692,37.33-2.075,50.072,6.42c25.038,16.69,60.319,43.191,121.306,42.549
		c43.697-0.461,167.554,8.347,193.232,3.852c25.68-4.494,58.612-11.991,61.18-37.67
		C449.848,261.883,483.229,241.288,490.932,277.585z"/>
	<g>
		<path fill="#F1C754" d="M25.687,171.753c2.91-7.816,7.596-15.091,13.479-21.363c5.889-6.282,12.977-11.471,20.519-15.628
			c3.78-2.07,7.667-3.923,11.635-5.525c3.953-1.648,7.991-3.022,12.043-4.286c4.053-1.266,8.154-2.297,12.249-3.28
			c4.105-0.94,8.226-1.736,12.343-2.479c16.497-2.833,33.03-4.064,49.512-4.529c8.246-0.204,16.485-0.212,24.732,0.017
			c8.25,0.255,16.499,0.641,24.791,1.525c-16.118,4.214-32.371,6.881-48.539,9.422c-16.17,2.494-32.286,4.658-48.119,7.357
			c-15.809,2.749-31.4,5.975-45.945,11.69c-7.269,2.853-14.239,6.399-20.731,10.884C37.137,160.02,31.204,165.505,25.687,171.753z"
			/>
	</g>
	<path fill="#F1C754" d="M408.37,95.66c-6.037-9.993,0.037-27.961,7.457-29.06c34.074-5.047,40.984,38.067,40.984,38.067
		s4.188,51-8.479,42.333S414.407,105.653,408.37,95.66z"/>
	<g>
		<path fill="#F1C754" d="M125.342,322.552c6.398,1.946,13.027,3.294,19.64,4.344c6.617,1.078,13.274,1.836,19.939,2.318
			c6.668,0.458,13.33,0.769,19.993,0.776c3.331,0.015,6.659-0.037,9.984-0.142c3.37-0.111,6.836-0.195,10.23-0.257
			c13.635-0.2,27.201-0.155,40.752-0.093l20.296,0.278l20.25,0.424c13.484,0.317,26.96,0.271,40.355,0.294l10.027,0.073l9.985,0.152
			c6.636,0.118,13.248,0.289,19.749,0.328c3.249,0.044,6.469,0.013,9.597-0.103c1.564-0.045,3.103-0.12,4.585-0.233
			c0.742-0.057,1.463-0.126,2.165-0.203l1.028-0.123l1.23-0.176l19.936-2.897c6.586-0.985,13.116-2.013,19.41-3.535
			c3.145-0.764,6.213-1.688,9.113-2.934c1.448-0.628,2.833-1.368,4.114-2.268c1.31-0.877,2.473-1.955,3.483-3.255l1.279,0.57
			c-0.371,1.792-1.197,3.508-2.206,5.089c-1.039,1.563-2.289,2.974-3.62,4.271c-2.678,2.593-5.718,4.662-8.799,6.528
			c-6.203,3.685-12.69,6.472-19.157,9.017c-6.479,2.528-12.985,4.721-19.468,6.825l-1.24,0.401
			c-0.488,0.152-0.973,0.285-1.451,0.415c-0.956,0.256-1.898,0.491-2.826,0.704c-1.856,0.426-3.674,0.786-5.472,1.107
			c-3.598,0.611-7.129,1.061-10.635,1.454c-14.008,1.445-27.73,1.515-41.395,0.865c-13.655-0.678-27.215-1.894-40.756-2.913
			l-20.281-1.707l-20.229-1.992l-20.181-2.194c-6.719-0.737-13.434-1.458-20.132-2.111c-3.364-0.339-6.659-0.65-10.052-0.941
			c-3.438-0.3-6.867-0.655-10.288-1.077c-6.839-0.85-13.648-1.893-20.378-3.319c-13.441-2.856-26.733-6.525-39.129-12.476
			L125.342,322.552z"/>
	</g>
</g>
<g>
	<path fill="#BC8E26" d="M247.603,378.107c12.021-1.652,23.923-3.464,35.923-4.768c11.988-1.312,23.984-2.754,36.045-3.965
		c6.032-0.604,12.076-1.2,18.177-1.68c3.052-0.215,6.117-0.408,9.224-0.554c3.118-0.146,6.233-0.204,9.601-0.117
		c0.847,0.026,1.715,0.067,2.64,0.139c0.935,0.076,1.896,0.167,3.12,0.394c0.63,0.124,1.304,0.26,2.295,0.605
		c0.504,0.183,1.09,0.403,1.938,0.884c0.189,0.105,0.468,0.281,0.694,0.435c0.291,0.204,0.518,0.365,0.86,0.658
		c0.597,0.516,1.385,1.271,2.143,2.59c0.757,1.272,1.321,3.261,1.21,5.049c-0.088,1.799-0.635,3.146-1.119,4.061
		c-1.011,1.796-1.789,2.405-2.363,2.955c-1.159,0.992-1.84,1.356-2.479,1.737c-1.23,0.692-2.142,1.087-3.04,1.474l-1.251,0.51
		l-1.052,0.412l-4.153,1.644c-5.507,2.212-11.082,4.406-16.218,6.751c-1.263,0.58-2.516,1.179-3.54,1.729
		c-0.487,0.26-0.98,0.558-1.042,0.615c0.011-0.004,0.018-0.003,0.165-0.114c0.151-0.135,0.333-0.225,0.978-0.958
		c0.096-0.113,0.189-0.23,0.278-0.35c0.07-0.095,0.19-0.259,0.334-0.477c0.132-0.203,0.242-0.389,0.367-0.621
		c0.177-0.325,0.333-0.665,0.466-1.012c0.103-0.255,0.346-0.982,0.433-1.479c0.097-0.467,0.205-1.287,0.179-2.072
		c-0.02-0.729-0.142-1.627-0.412-2.492c-0.281-0.879-0.615-1.58-1.063-2.279c-0.501-0.753-0.838-1.13-1.291-1.586
		c-0.504-0.482-0.824-0.725-1.149-0.956c-0.804-0.54-1.118-0.679-1.652-0.914c-0.171-0.072-0.321-0.131-0.486-0.188l-0.423-0.135
		c-0.194-0.061-0.471-0.121-0.571-0.144c-0.586-0.118-0.776-0.113-0.873-0.126c-0.102-0.006-0.109-0.005-0.076-0.008l0.495-0.038
		c0.468-0.044,1.076-0.122,1.701-0.215c1.265-0.189,2.642-0.438,4.029-0.707c5.592-1.098,11.398-2.478,17.16-3.892
		c11.55-2.873,23.158-5.88,34.757-8.899l34.819-9.021c5.806-1.475,11.594-3.002,17.334-4.561c2.871-0.768,5.732-1.552,8.53-2.368
		c1.395-0.407,2.779-0.825,4.089-1.249c0.649-0.211,1.289-0.426,1.839-0.625l0.691-0.256c0.078-0.029,0.133-0.05,0.122-0.034
		c-0.042,0.044-0.084,0.036-0.605,0.458l0.87-0.703l0.372-0.125c0.199-0.066,0.611-0.257,0.933-0.403l1.044-0.493l2.106-1.063
		c1.425-0.702,2.818-1.481,4.223-2.251c2.804-1.553,5.551-3.22,8.234-5.003c2.684-1.788,5.281-3.717,7.75-5.893
		c2.478-2.18,4.781-4.618,6.9-7.594l0.023,0.006c0.277,3.666-0.587,7.44-1.966,10.949c-1.397,3.52-3.357,6.795-5.592,9.815
		c-2.239,3.024-4.79,5.775-7.518,8.314c-1.362,1.274-2.796,2.461-4.255,3.635c-0.735,0.579-1.492,1.132-2.261,1.687l-1.175,0.824
		c-0.423,0.285-0.758,0.521-1.315,0.864l1.242-0.828c-0.816,0.657-1.182,0.845-1.552,1.075c-0.34,0.199-0.62,0.35-0.881,0.487
		c-0.513,0.268-0.945,0.476-1.368,0.674c-0.837,0.392-1.602,0.724-2.361,1.047c-1.511,0.64-2.97,1.222-4.427,1.79
		c-2.907,1.132-5.784,2.196-8.662,3.241c-5.76,2.061-11.521,3.994-17.285,5.914c-5.777,1.868-11.562,3.69-17.359,5.462
		c-5.814,1.715-11.619,3.463-17.465,5.067c-5.845,1.611-11.691,3.222-17.58,4.706c-5.883,1.51-11.784,2.974-17.742,4.324
		c-5.97,1.36-11.918,2.681-18.176,3.805c-1.577,0.278-3.171,0.543-4.891,0.771c-0.868,0.113-1.757,0.219-2.791,0.298
		c-0.521,0.038-1.075,0.071-1.762,0.08c-0.343,0.004-0.728,0-1.206-0.025c-0.473-0.031-1.039-0.062-1.994-0.255
		c-0.194-0.038-0.561-0.128-0.847-0.211c-0.127-0.034-0.348-0.104-0.557-0.178c-0.209-0.073-0.405-0.147-0.619-0.236
		c-0.618-0.279-1.022-0.45-1.9-1.05c-0.364-0.257-0.724-0.526-1.258-1.045c-0.486-0.489-0.86-0.896-1.381-1.692
		c-0.472-0.741-0.836-1.479-1.123-2.407c-0.283-0.91-0.421-1.853-0.435-2.63c-0.026-0.832,0.079-1.7,0.192-2.212
		c0.101-0.542,0.347-1.318,0.472-1.615c0.152-0.39,0.328-0.772,0.524-1.141c0.148-0.272,0.284-0.498,0.441-0.741
		c0.168-0.258,0.314-0.461,0.415-0.592l0.366-0.46c0.889-1.021,1.359-1.355,1.805-1.726c0.442-0.347,0.76-0.559,1.082-0.773
		c1.196-0.773,2.031-1.194,2.88-1.63c1.656-0.829,3.146-1.483,4.639-2.123c5.912-2.488,11.6-4.61,17.368-6.664l4.317-1.519
		l1.931-0.666c0.5-0.173,0.978-0.373,1.069-0.403c0.021,0.017-0.013-0.014-0.6,0.488c-0.291,0.303-0.801,0.639-1.631,2.102
		c-0.396,0.75-0.879,1.915-0.958,3.524c-0.102,1.6,0.413,3.399,1.076,4.509c0.666,1.153,1.325,1.768,1.777,2.163
		c0.274,0.229,0.421,0.338,0.637,0.485c0.147,0.104,0.349,0.224,0.455,0.285c0.522,0.292,0.761,0.363,0.911,0.418
		c0.282,0.088,0.224,0.04,0.116,0.006c-0.251-0.084-0.784-0.194-1.348-0.284c-0.573-0.091-1.208-0.173-1.865-0.243
		c-2.649-0.293-5.565-0.421-8.475-0.575c-2.922-0.144-5.885-0.24-8.859-0.315c-5.952-0.193-11.957-0.335-17.97-0.433l-36.216-0.622
		c-6.052-0.151-12.113-0.368-18.187-0.855c-6.063-0.492-12.174-1.072-18.191-2.482L247.603,378.107z"/>
</g>
<g>
	<path fill="#BC8E26" d="M201.646,162.708c24.476-2.072,48.967-3.309,73.502-3.99c12.269-0.298,24.547-0.459,36.856-0.327
		c6.156,0.041,12.318,0.204,18.508,0.412c6.193,0.215,12.396,0.507,18.717,1.08c3.171,0.289,6.351,0.621,9.728,1.166
		c0.85,0.14,1.712,0.294,2.609,0.479l1.38,0.306l1.311,0.322c1.453,0.34,3.059,0.737,4.591,1.128
		c6.133,1.557,12.18,3.426,18.15,5.527c11.95,4.186,23.645,9.177,35.048,14.992c2.836,1.48,5.669,2.988,8.405,4.673
		c2.737,1.683,5.385,3.522,7.966,5.459c2.405,1.886,4.813,3.686,7.183,5.589c2.369,1.891,4.703,3.831,6.994,5.837l13.687,12.155
		c4.59,4.065,9.15,8.099,14.143,12.018l-0.342,0.939c-3.237-0.135-6.453-0.659-9.598-1.347c-1.581-0.332-3.142-0.724-4.688-1.146
		c-1.556-0.408-3.093-0.858-4.611-1.347c-6.108-1.894-11.999-4.218-17.777-6.697c-2.882-1.254-5.692-2.618-8.448-4.062
		c-2.755-1.432-5.449-3.001-8.135-4.501l-7.538-4.338c-2.504-1.465-4.978-2.997-7.506-4.451
		c-10.061-5.914-20.732-10.966-31.675-15.377c-5.481-2.187-11.023-4.236-16.599-6.212c-1.395-0.493-2.723-0.953-4.212-1.446
		l-0.898-0.292l-0.847-0.237c-0.593-0.156-1.229-0.307-1.881-0.45c-2.635-0.574-5.521-1.04-8.422-1.457
		c-5.83-0.813-11.822-1.482-17.827-2.099c-6.012-0.614-12.062-1.11-18.119-1.646l-36.466-2.939l-18.281-1.491l-9.148-0.738
		l-9.151-0.808c-12.204-1.07-24.417-2.173-36.631-3.684L201.646,162.708z"/>
</g>
<g>
	<path opacity="0.7" fill="#CB3A19" d="M43.869,196.42c0.936-2.506,2.523-4.607,4.131-6.62c1.635-2.003,3.407-3.878,5.242-5.683
		c3.678-3.603,7.62-6.917,11.7-10.045c8.205-6.199,16.98-11.637,26.146-16.361c9.166-4.726,18.782-8.627,28.705-11.652
		c4.964-1.505,10.011-2.778,15.125-3.779c2.557-0.499,5.13-0.933,7.717-1.292c2.589-0.367,5.204-0.628,7.729-0.879
		c20.361-1.996,40.713-3.412,61.095-4.686c20.379-1.299,40.78-2.305,61.225-2.998c20.449-0.667,40.924-1.031,61.555-0.517
		c10.325,0.297,20.675,0.726,31.225,1.945c5.294,0.633,10.602,1.387,16.248,2.806c1.418,0.364,2.862,0.777,4.367,1.292
		c0.753,0.259,1.521,0.542,2.314,0.87c0.76,0.306,1.742,0.776,2.205,0.994c0.724,0.352,1.38,0.679,2.011,1.007l1.889,1.006
		c1.24,0.68,2.448,1.376,3.635,2.086c9.447,5.675,17.812,12.192,25.886,19.091c8.037,6.918,15.652,14.287,22.818,22.136
		c7.114,7.89,13.824,16.22,19.836,25.172c5.987,8.958,11.399,18.48,15.566,28.801c4.157,10.292,7.197,21.424,7.812,33.155
		c0.305,5.85,0.019,11.822-1.016,17.722c-0.251,1.475-0.561,2.942-0.902,4.402l-0.268,1.093l-0.171,0.653l-0.129,0.46
		c-0.139,0.468-0.307,1.042-0.445,1.441c-0.142,0.429-0.289,0.854-0.447,1.273c-1.247,3.37-2.938,6.451-4.848,9.2
		c-3.854,5.496-8.449,9.746-13.188,13.26c-4.755,3.51-9.669,6.35-14.62,8.848c-4.952,2.499-9.991,4.56-15.026,6.439
		c-5.038,1.877-10.104,3.512-15.191,4.951c-20.331,5.79-40.843,9.112-61.347,11.422c-20.505,2.301-41.012,3.556-61.491,4.195
		c-10.236,0.361-20.47,0.547-30.696,0.557c-5.114-0.012-10.224,0.031-15.333-0.026l-15.322-0.232
		c-5.105-0.103-10.209-0.294-15.31-0.485c-5.102-0.192-10.201-0.449-15.295-0.8c-10.166-0.71-20.425-1.527-30.393-3.886
		c-19.954-4.221-39.61-9.689-59.05-15.783c-9.72-3.052-19.368-6.331-28.946-9.805c-9.59-3.441-19.089-7.136-28.483-11.104
		l0.399-0.916c18.608,8.226,37.823,15.067,57.238,21.161c9.707,3.062,19.506,5.824,29.358,8.367
		c9.853,2.543,19.767,4.841,29.738,6.845c2.496,0.493,4.985,1.017,7.482,1.35c2.504,0.352,5.025,0.613,7.551,0.832
		c5.054,0.418,10.125,0.711,15.203,0.82c10.156,0.249,20.323,0.14,30.477-0.271c5.077-0.181,10.152-0.444,15.222-0.782
		c5.069-0.34,10.137-0.671,15.195-1.146c10.118-0.916,20.214-2.006,30.278-3.266c20.119-2.62,40.118-5.957,59.828-10.144
		c9.847-2.126,19.63-4.409,29.273-7.011c9.649-2.563,19.166-5.443,28.41-8.709c4.612-1.66,9.159-3.404,13.584-5.289
		c4.426-1.883,8.701-3.971,12.779-6.181c4.066-2.222,7.91-4.652,11.262-7.312c3.342-2.654,6.239-5.497,8.165-8.407
		c0.967-1.449,1.7-2.892,2.191-4.31c0.064-0.177,0.121-0.354,0.176-0.531l0.114-0.384l0.121-0.462l0.061-0.23
		c-0.063,0.236,0.009-0.044,0.006-0.041l0.184-0.762c0.232-1.02,0.446-2.045,0.616-3.081c0.71-4.137,0.905-8.4,0.664-12.715
		c-0.512-8.635-2.751-17.461-6.189-26.036c-3.456-8.575-7.968-16.957-13.213-24.976c-5.249-8.021-11.133-15.758-17.521-23.111
		c-6.35-7.386-13.164-14.44-20.36-21.039c-7.183-6.576-14.808-12.787-22.583-17.999c-0.971-0.642-1.943-1.262-2.91-1.85
		l-1.444-0.857l-1.369-0.769c-0.675-0.353-0.833-0.448-1.245-0.643c-0.373-0.178-0.793-0.357-1.236-0.533
		c-0.889-0.353-1.878-0.69-2.913-1.007c-4.182-1.265-8.941-2.199-13.727-2.98c-9.633-1.529-19.616-2.578-29.624-3.375
		c-20.05-1.578-40.324-2.309-60.603-2.732c-40.567-0.741-81.31-0.296-121.846,1.788c-19.946,0.781-39.516,6.178-57.865,14.432
		c-9.173,4.129-18.05,8.999-26.412,14.648c-4.189,2.81-8.258,5.814-12.075,9.107c-1.905,1.649-3.749,3.37-5.456,5.209
		c-1.68,1.845-3.331,3.789-4.322,6.019L43.869,196.42z"/>
</g>
</svg>
