<?xml version="1.0" encoding="utf-8"?>
<!-- Generator: Adobe Illustrator 15.0.2, SVG Export Plug-In . SVG Version: 6.00 Build 0)  -->
<!DOCTYPE svg PUBLIC "-//W3C//DTD SVG 1.0//EN" "http://www.w3.org/TR/2001/REC-SVG-20010904/DTD/svg10.dtd">
<svg version="1.0" id="Layer_1" xmlns="http://www.w3.org/2000/svg" xmlns:xlink="http://www.w3.org/1999/xlink" x="0px" y="0px"
	 width="512px" height="512px" viewBox="0 0 512 512" enable-background="new 0 0 512 512" xml:space="preserve">
<g>
	<g>
		<g>
			<path fill="#FFBA00" d="M8.473,138.818c3.109-4.61,16.38-4.091,19.689,0c3.309,4.092,0,67.795,0,67.795h0.447
				c3.132-5.593,8.054-10.74,14.096-14.096c5.817-3.355,12.753-5.37,20.137-5.37c14.544,0,37.813,8.95,37.813,46.091
				c0,0,6.409,57.607,0,64.439c-6.408,6.832-16.189,5.288-19.689,0s-4.122-62.47-4.122-62.47c0-17.452-3.283-26.416-21.854-26.416
				c-12.753,0-21.681,3.638-25.485,14.154c-1.119,2.908-1.342,5.817-1.342,9.397c0,0,1.353,61.921,0,65.334
				c-1.353,3.414-17.516,3.113-19.689,0C6.299,294.565,5.363,143.428,8.473,138.818z"/>
			<g>
				<path fill="#F1C754" d="M5.6,136.748l0.275-0.362l0.246-0.297l0.207-0.224c0.278-0.295,0.566-0.555,0.858-0.791
					c0.584-0.468,1.178-0.835,1.763-1.139c1.171-0.6,2.312-0.962,3.425-1.227c2.228-0.512,4.368-0.628,6.497-0.533
					c2.129,0.11,4.236,0.434,6.387,1.142c1.076,0.364,2.167,0.82,3.279,1.533c0.555,0.364,1.119,0.785,1.658,1.351
					c0.135,0.141,0.268,0.288,0.398,0.448l0.097,0.118l0.136,0.182l0.025,0.036l0.117,0.177l0.183,0.309
					c0.304,0.588,0.389,0.914,0.5,1.27c0.357,1.318,0.445,2.29,0.557,3.315c0.096,1.004,0.156,1.978,0.2,2.943
					c0.087,1.929,0.115,3.824,0.121,5.714c0.022,3.777-0.089,7.525-0.245,11.267c-0.278,7.481-0.787,14.932-1.366,22.375
					c-0.634,7.44-1.31,14.87-2.256,22.284v0.001l-0.5-0.526h0.446h0.001l-0.436,0.255c2.177-4.033,5.114-7.656,8.603-10.664
					c1.741-1.5,3.642-2.854,5.634-3.994c1.98-1.17,4.074-2.174,6.232-2.997c4.319-1.647,8.927-2.562,13.568-2.695
					c4.655-0.135,9.33,0.576,13.76,2.081c4.428,1.504,8.605,3.856,12.162,6.962c3.564,3.098,6.483,6.925,8.628,11.109
					c2.161,4.184,3.605,8.685,4.518,13.247c0.912,4.568,1.309,9.205,1.357,13.82l-0.012-0.219c1.16,9.92,2.091,19.823,2.732,29.795
					c0.312,4.984,0.546,9.98,0.605,15.009c0.027,2.515,0.009,5.038-0.096,7.581c-0.114,2.547-0.289,5.101-0.746,7.75
					c-0.245,1.332-0.525,2.675-1.156,4.164c-0.163,0.374-0.349,0.758-0.601,1.164c-0.126,0.203-0.265,0.409-0.431,0.621
					c-0.142,0.19-0.418,0.486-0.482,0.55c-0.18,0.194-0.524,0.54-0.768,0.764c-0.265,0.25-0.54,0.49-0.822,0.725
					c-2.251,1.873-5.046,3.184-7.996,3.642c-2.946,0.464-6.031,0.131-8.843-1.114c-1.403-0.625-2.74-1.487-3.897-2.621
					c-0.288-0.284-0.564-0.584-0.827-0.899c-0.13-0.159-0.258-0.32-0.381-0.487l-0.181-0.253l-0.089-0.128l-0.123-0.191
					c-0.34-0.561-0.503-1.007-0.645-1.393c-0.139-0.394-0.246-0.757-0.339-1.107c-0.693-2.752-0.975-5.221-1.284-7.76
					c-0.287-2.519-0.51-5.02-0.708-7.519c-0.391-4.996-0.677-9.979-0.922-14.959c-0.481-9.961-0.8-19.906-1.016-29.868l-0.066-3.7
					c-0.035-1.201-0.09-2.393-0.177-3.569c-0.176-2.349-0.476-4.647-1.029-6.753c-0.55-2.107-1.371-3.989-2.536-5.433
					c-1.154-1.452-2.681-2.503-4.557-3.235c-3.771-1.461-8.562-1.603-13.213-1.369c-4.612,0.264-9.099,1.177-12.537,3.327
					c-1.718,1.068-3.161,2.432-4.309,4.08c-1.147,1.623-2.015,3.615-2.609,5.602c-1.071,3.708-0.546,8.745-0.499,13.734
					c0.234,9.94,0.438,19.88,0.565,29.834c0.053,4.978,0.089,9.956,0.074,14.953c-0.009,2.501-0.03,5.002-0.09,7.533
					c-0.032,1.269-0.071,2.536-0.15,3.863c-0.042,0.674-0.083,1.325-0.194,2.162c-0.031,0.218-0.063,0.44-0.136,0.774l-0.07,0.284
					c-0.025,0.098-0.06,0.221-0.125,0.404c-0.055,0.167-0.267,0.638-0.195,0.473l-0.079,0.162c-0.408,0.766-0.71,1.085-1.008,1.4
					c-0.31,0.321-0.601,0.554-0.883,0.761c-1.116,0.78-1.987,1.075-2.816,1.356c-0.818,0.258-1.579,0.429-2.316,0.562
					c-1.475,0.264-2.87,0.383-4.258,0.44c-2.777,0.094-5.469-0.033-8.342-0.566c-0.722-0.14-1.459-0.312-2.24-0.552
					c-0.787-0.253-1.603-0.535-2.604-1.127c-0.499-0.308-1.064-0.69-1.685-1.387l-0.236-0.291c0.066,0.121-0.363-0.523-0.326-0.474
					c-0.115-0.164-0.402-0.821-0.386-0.828c-0.066-0.184-0.084-0.255-0.123-0.384c-0.106-0.39-0.146-0.621-0.189-0.851
					c-0.146-0.859-0.205-1.498-0.272-2.176c-0.238-2.63-0.359-5.114-0.48-7.63c-0.452-10.011-0.585-19.947-0.748-29.9
					c-0.255-19.896-0.409-39.778-0.181-59.669c0.097-9.946,0.237-19.893,0.479-29.851c0.123-4.979,0.27-9.96,0.483-14.958
					c0.108-2.5,0.232-5.002,0.403-7.529c0.087-1.265,0.184-2.533,0.316-3.834c0.068-0.654,0.142-1.311,0.247-2.015
					c0.053-0.354,0.113-0.718,0.202-1.135c0.046-0.214,0.097-0.436,0.179-0.717c0.043-0.146,0.093-0.303,0.172-0.508
					c0.09-0.214,0.178-0.463,0.471-0.912L5.6,136.748z M11.408,140.798c0.208-0.318,0.233-0.424,0.266-0.494l0.025-0.067
					l-0.041,0.188c-0.038,0.19-0.078,0.439-0.113,0.7c-0.072,0.525-0.131,1.103-0.184,1.685c-0.104,1.17-0.183,2.38-0.251,3.593
					c-0.134,2.431-0.226,4.891-0.302,7.353c-0.15,4.928-0.234,9.876-0.296,14.828c-0.118,9.903-0.136,19.822-0.11,29.74
					c0.106,19.837,0.164,39.686,0.517,59.515c0.167,9.907,0.404,19.834,0.777,29.672c0.103,2.444,0.214,4.924,0.412,7.241
					c0.049,0.558,0.113,1.155,0.174,1.521c0.012,0.076,0.031,0.149,0.007,0.06l-0.052-0.162c0.041,0.067-0.217-0.519-0.295-0.614
					c0.074,0.119-0.304-0.468-0.19-0.285l-0.091-0.108c-0.208-0.231-0.27-0.239-0.239-0.226c0.064,0.049,0.419,0.21,0.814,0.331
					c0.405,0.128,0.876,0.245,1.374,0.343c2.008,0.394,4.308,0.534,6.49,0.465c1.092-0.038,2.177-0.132,3.148-0.301
					c0.485-0.083,0.938-0.188,1.304-0.301c0.349-0.101,0.649-0.266,0.548-0.207c-0.033,0.023-0.08,0.062-0.176,0.157
					c-0.073,0.1-0.195,0.163-0.443,0.664c-0.036,0.082,0.019-0.038,0.024-0.047c0.104-0.235-0.071,0.167-0.105,0.259l-0.057,0.182
					l-0.015,0.058c-0.005,0.031,0.012-0.053,0.023-0.143c0.057-0.394,0.106-0.981,0.143-1.546c0.075-1.152,0.121-2.366,0.158-3.579
					c0.072-2.434,0.107-4.898,0.13-7.364c0.044-4.935,0.036-9.889,0.012-14.843c-0.035-9.91-0.135-19.833-0.272-29.753l-0.1-7.546
					c0.036-2.595,0.181-5.459,1.03-8.368c0.85-2.757,2.012-5.369,3.745-7.802c1.711-2.416,3.975-4.507,6.495-6.028
					c2.52-1.536,5.242-2.529,7.934-3.169c2.699-0.641,5.387-0.947,8.03-1.075c2.64-0.118,5.242-0.101,7.95,0.16
					c2.69,0.269,5.466,0.779,8.215,1.893c2.734,1.089,5.44,2.957,7.335,5.443c1.921,2.471,3.015,5.294,3.681,7.987
					c0.667,2.712,0.956,5.367,1.118,7.969c0.078,1.301,0.119,2.591,0.138,3.873l0.015,3.749c0.076,9.9,0.254,19.816,0.593,29.702
					c0.174,4.943,0.388,9.882,0.704,14.793c0.16,2.454,0.344,4.903,0.586,7.322c0.248,2.393,0.531,4.874,1.029,6.946
					c0.062,0.25,0.13,0.483,0.194,0.677c0.065,0.198,0.13,0.335,0.114,0.305c0.066,0.105-0.021-0.029,0.002,0.005l0.043,0.063
					l0.088,0.127l0.188,0.25c0.133,0.163,0.274,0.322,0.425,0.478c0.608,0.616,1.377,1.143,2.236,1.539
					c1.721,0.798,3.77,1.071,5.729,0.787c1.967-0.278,3.845-1.114,5.431-2.392c0.198-0.16,0.393-0.324,0.582-0.498
					c0.213-0.196,0.312-0.287,0.56-0.542l0.137-0.146c0.027-0.031,0.063-0.082,0.102-0.142c0.079-0.119,0.17-0.293,0.257-0.486
					c0.356-0.794,0.646-1.887,0.865-2.99c0.847-4.522,0.999-9.491,1.07-14.367c0.047-4.904-0.077-9.838-0.281-14.771
					c-0.423-9.865-1.141-19.764-2.079-29.597l-0.013-0.136l0.001-0.083c0.088-8.797-1.121-17.729-4.936-25.545
					c-1.904-3.884-4.451-7.447-7.63-10.372c-3.169-2.93-6.945-5.208-11.028-6.726c-8.171-3.083-17.463-3.03-25.792-0.112
					c-2.084,0.728-4.104,1.626-6.044,2.7c-1.961,1.047-3.802,2.257-5.531,3.647c-3.451,2.773-6.419,6.182-8.667,10.025l-0.153,0.261
					l-0.284-0.005h-0.001h-0.446h-0.526l0.027-0.526l0-0.001c-0.2-7.46-0.254-14.912-0.375-22.356
					c-0.075-7.442-0.185-14.881-0.337-22.293c-0.099-3.705-0.218-7.405-0.38-11.072c-0.089-1.832-0.2-3.658-0.363-5.445
					c-0.082-0.892-0.177-1.775-0.298-2.619c-0.116-0.821-0.28-1.702-0.446-2.173c-0.026-0.088-0.094-0.205-0.01-0.027
					c0.028,0.054,0.061,0.107,0.096,0.158l0.048,0.066l-0.026-0.035l-0.026-0.035l-0.013-0.018c0.045,0.059-0.12-0.157,0.098,0.128
					l-0.017-0.015c-0.018-0.019-0.044-0.042-0.073-0.067c-0.112-0.1-0.298-0.242-0.525-0.38c-0.464-0.281-1.104-0.549-1.798-0.759
					c-1.399-0.423-3.01-0.646-4.599-0.681s-3.198,0.116-4.592,0.482c-0.692,0.181-1.328,0.422-1.806,0.688
					c-0.237,0.132-0.431,0.27-0.569,0.389c-0.067,0.06-0.124,0.115-0.161,0.162l-0.028,0.033l0.024-0.027l0.008-0.017l-0.05,0.071
					l-0.101,0.143L11.408,140.798z"/>
			</g>
		</g>
		<g>
			<path fill="#F1C754" d="M155.477,163.43c8.693,8.381-2.478,22.707,0,25.955s24.073-3.559,28.192,0
				c4.119,3.559,4.271,10.573,0,14.99c-4.271,4.417-21.355,12.431-25.715,17.781c-4.359,5.35-6.525,41.022-6.525,41.022
				c0,13.426,6.128,17.093,17.092,17.093c5.37,0,9.094-1.538,13.673-1.244c4.58,0.294,9.99,15.92,7.148,21.112
				c-2.842,5.191-14.458-3.398-22.065-3.398c-9.173,0-18.737,0.265-23.436-4.88c-5.37-6.041-10.749-15.929-10.749-28.683
				c0,0,10.911-50.412,9.633-55.317c-1.276-4.906-20.13,2.974-23.273-3.485s-2.763-12.333,0-14.99
				c2.763-2.657,12.43-0.513,15.814-2.238s-1.797-13.626,0.966-17.9C138.998,164.974,146.784,155.049,155.477,163.43z"/>
			<g>
				<path fill="#BC8E26" d="M156.272,162.643c1.171,1.094,2.2,2.531,2.834,4.084c0.65,1.56,0.933,3.237,0.971,4.87
					c0.061,3.284-0.748,6.386-1.64,9.326c-0.448,1.472-0.94,2.916-1.347,4.321c-0.199,0.699-0.381,1.396-0.474,2.03
					c-0.118,0.619-0.028,1.238,0.026,1.222c-0.036-0.021,0.099,0.069-0.01-0.023c0.032,0.012,0.082,0.049,0.186,0.08
					c0.188,0.068,0.472,0.127,0.775,0.162c0.614,0.074,1.319,0.075,2.027,0.046c1.426-0.06,2.905-0.235,4.385-0.43
					c2.968-0.392,5.96-0.918,9.014-1.315c1.528-0.199,3.072-0.373,4.664-0.457c1.603-0.06,3.208-0.126,5.097,0.347
					c0.476,0.132,0.979,0.309,1.509,0.622c0.246,0.139,0.574,0.389,0.751,0.555c0.146,0.132,0.267,0.229,0.463,0.43
					c0.707,0.702,1.24,1.404,1.718,2.207c0.931,1.589,1.443,3.378,1.575,5.172c0.261,3.591-1.037,7.254-3.513,9.895
					c-1.293,1.349-2.578,2.244-3.87,3.167c-1.292,0.901-2.588,1.737-3.885,2.558l-7.73,4.807c-2.531,1.602-5.053,3.229-7.288,4.99
					c-0.555,0.439-1.085,0.889-1.566,1.342c-0.237,0.227-0.468,0.454-0.67,0.677c-0.187,0.206-0.427,0.494-0.451,0.555
					c-0.211,0.329-0.479,0.921-0.696,1.528c-0.223,0.617-0.423,1.284-0.608,1.966c-1.432,5.557-2.122,11.609-2.832,17.55
					c-0.672,5.972-1.177,11.997-1.59,17.998l-0.019,0.278l-0.005,0.069c0.001-0.058-0.008,0.225,0-0.112l0,0.142l0.003,0.561
					l0.028,1.042c0.029,0.702,0.081,1.397,0.159,2.079c0.158,1.362,0.417,2.682,0.833,3.879c0.82,2.426,2.264,4.212,4.434,5.273
					c2.167,1.082,4.946,1.478,7.778,1.57c2.852,0.136,5.505-0.233,8.589-0.725c1.531-0.227,3.171-0.438,4.88-0.441
					c0.426-0.001,0.855,0.008,1.285,0.034l0.44,0.032c0.1,0.015,0.137,0.01,0.442,0.068c0.266,0.052,0.439,0.107,0.606,0.163
					c0.178,0.056,0.326,0.125,0.489,0.192c1.213,0.576,1.939,1.318,2.579,2.026c1.232,1.438,2.038,2.913,2.756,4.411
					c0.702,1.499,1.269,3.023,1.735,4.579c0.462,1.557,0.833,3.141,1.057,4.778c0.219,1.64,0.331,3.322,0.108,5.141
					c-0.125,0.91-0.324,1.864-0.798,2.868l-0.237,0.45l-0.159,0.255c-0.222,0.337-0.431,0.594-0.658,0.824
					c-0.465,0.478-1.043,0.866-1.63,1.119c-1.191,0.504-2.293,0.531-3.242,0.476c-0.959-0.065-1.811-0.246-2.628-0.452
					c-3.22-0.867-5.969-2.133-8.761-3.142c-1.384-0.509-2.759-0.973-4.107-1.293c-0.673-0.16-1.338-0.282-1.979-0.346
					c-0.335-0.035-0.602-0.047-0.97-0.051l-1.137-0.014c-3.032-0.034-6.108-0.061-9.226-0.318c-3.108-0.275-6.312-0.729-9.407-2.069
					c-1.539-0.665-3.029-1.614-4.274-2.86c-1.188-1.262-2.078-2.458-3.013-3.754c-1.812-2.572-3.345-5.329-4.579-8.212
					c-2.469-5.765-3.688-12.039-3.598-18.269l0.002-0.146l0.025-0.11c2.884-12.616,5.622-25.283,8.014-37.996
					c0.592-3.179,1.157-6.363,1.62-9.555c0.23-1.594,0.444-3.193,0.574-4.78c0.058-0.784,0.111-1.601,0.043-2.303
					c-0.009-0.084-0.021-0.167-0.036-0.232c0.011,0.016-0.051-0.173-0.071-0.225c-0.036-0.066-0.101-0.194-0.19-0.287
					c-0.175-0.195-0.454-0.351-0.773-0.466c-1.338-0.436-3.004-0.344-4.576-0.256c-1.596,0.108-3.204,0.29-4.821,0.445
					s-3.246,0.294-4.894,0.31c-1.643,0.002-3.328-0.074-4.974-0.638c-0.812-0.293-1.621-0.748-2.225-1.451
					c-0.3-0.334-0.545-0.778-0.706-1.144c-0.172-0.36-0.344-0.75-0.503-1.13c-0.635-1.524-1.125-3.117-1.401-4.758
					c-0.275-1.638-0.341-3.333-0.047-5.002c0.295-1.653,0.983-3.335,2.306-4.535c0.745-0.634,1.591-0.9,2.417-1.1
					c0.83-0.192,1.659-0.283,2.482-0.345c1.647-0.118,3.276-0.104,4.89-0.123c1.606-0.025,3.229-0.038,4.722-0.341
					c0.369-0.079,0.727-0.18,1.042-0.32c0.309-0.128,0.479-0.269,0.629-0.523c0.299-0.506,0.387-1.28,0.387-2.033
					c-0.06-3.099-0.897-6.292-1.142-9.597c-0.098-1.653-0.194-3.396,0.563-5.179c0.097-0.213,0.229-0.448,0.347-0.632l0.337-0.522
					c0.229-0.347,0.463-0.689,0.704-1.027c0.481-0.677,0.989-1.337,1.526-1.978c1.074-1.278,2.266-2.481,3.635-3.515
					c1.365-1.026,2.934-1.889,4.696-2.297c1.755-0.417,3.683-0.283,5.37,0.369c1.696,0.642,3.15,1.693,4.404,2.868L156.272,162.643z
					 M154.699,164.236c-1.077-1.062-2.287-1.964-3.617-2.503c-1.327-0.544-2.767-0.68-4.175-0.389
					c-2.847,0.599-5.363,2.683-7.419,5.006c-0.519,0.588-1.014,1.201-1.487,1.832l-0.692,0.961l-0.334,0.49
					c-0.104,0.155-0.173,0.273-0.249,0.426c-0.572,1.208-0.603,2.83-0.528,4.38c0.147,3.165,0.914,6.322,0.908,9.716
					c-0.041,0.849-0.09,1.758-0.619,2.664c-0.258,0.453-0.758,0.836-1.207,0.997c-0.429,0.18-0.858,0.29-1.282,0.375
					c-1.695,0.312-3.333,0.284-4.96,0.288c-1.625-0.008-3.237-0.046-4.825,0.042c-0.791,0.047-1.579,0.123-2.33,0.284
					c-0.742,0.157-1.486,0.417-1.988,0.836c-1.1,0.995-1.728,2.472-1.993,3.985c-0.268,1.526-0.209,3.116,0.055,4.667
					c0.263,1.554,0.732,3.077,1.345,4.541c0.154,0.366,0.309,0.718,0.486,1.088c0.168,0.373,0.322,0.644,0.562,0.918
					c0.458,0.532,1.102,0.907,1.807,1.16c1.429,0.499,3.04,0.568,4.622,0.537c1.592-0.037,3.192-0.194,4.796-0.37
					c1.605-0.176,3.214-0.381,4.849-0.515c1.638-0.096,3.291-0.274,5.069,0.256c0.439,0.154,0.904,0.378,1.284,0.78
					c0.19,0.202,0.338,0.424,0.466,0.728c0.048,0.139,0.057,0.14,0.113,0.353c0.032,0.132,0.049,0.25,0.064,0.367
					c0.097,0.912,0.042,1.719-0.004,2.549c-0.112,1.644-0.306,3.26-0.517,4.874c-0.431,3.225-0.937,6.431-1.462,9.633
					c-2.146,12.8-4.632,25.519-7.156,38.243l0.027-0.257c0.071,5.904,1.381,11.761,3.831,17.09c1.225,2.663,2.725,5.197,4.469,7.538
					c0.863,1.144,1.839,2.351,2.757,3.272c0.926,0.874,2.05,1.565,3.307,2.071c2.514,1.026,5.416,1.406,8.335,1.585
					c2.934,0.172,5.93,0.128,8.962,0.088l1.138-0.015c0.39-0.006,0.882,0.001,1.302,0.037c0.87,0.065,1.703,0.2,2.509,0.371
					c1.613,0.343,3.128,0.82,4.602,1.32c2.931,0.99,5.76,2.174,8.426,2.811c1.285,0.325,2.647,0.375,3.075,0.118
					c0.106-0.055,0.163-0.104,0.225-0.171c0.039-0.04,0.06-0.086,0.052-0.062l0.136-0.231c-0.079,0.136-0.014,0.019-0.027,0.04
					l0.016-0.032l0.032-0.065c0.167-0.374,0.292-0.922,0.353-1.513c0.121-1.199,0.021-2.571-0.201-3.928
					c-0.225-1.361-0.554-2.736-0.98-4.079c-0.425-1.344-0.94-2.661-1.545-3.899c-0.602-1.227-1.314-2.412-2.079-3.265
					c-0.367-0.416-0.782-0.728-0.953-0.789c-0.015,0-0.037-0.017-0.042-0.013c-0.013-0.003-0.021-0.004,0.059,0.014
					c0.121,0.011-0.031-0.008-0.12-0.017c-0.051-0.005,0.186,0.017,0.057,0.006l-0.062-0.002l-0.123-0.006
					c-0.327-0.015-0.656-0.017-0.988-0.01c-1.327,0.021-2.703,0.212-4.166,0.453c-1.46,0.24-3.01,0.521-4.619,0.702
					c-1.596,0.19-3.303,0.25-4.88,0.2c-3.197-0.101-6.599-0.442-9.918-2.033c-1.64-0.795-3.204-1.96-4.417-3.408
					c-1.224-1.443-2.087-3.107-2.67-4.768c-0.59-1.666-0.919-3.341-1.124-4.987c-0.101-0.824-0.167-1.643-0.207-2.454l-0.042-1.231
					l-0.008-0.577l-0.001-0.143l0.013-0.327l0.018-0.288c0.394-6.104,0.937-12.169,1.623-18.252c0.343-3.041,0.746-6.08,1.24-9.124
					c0.502-3.048,1.051-6.087,1.913-9.193c0.221-0.779,0.464-1.563,0.766-2.369c0.314-0.811,0.637-1.627,1.26-2.569
					c0.394-0.572,0.67-0.844,0.995-1.197c0.316-0.331,0.633-0.628,0.952-0.917c0.638-0.571,1.28-1.085,1.925-1.572
					c2.582-1.931,5.213-3.526,7.842-5.105l7.838-4.614c1.285-0.771,2.557-1.549,3.773-2.354c1.198-0.798,2.416-1.655,3.239-2.486
					c1.731-1.74,2.718-4.23,2.618-6.705c-0.051-1.23-0.361-2.441-0.931-3.492c-0.276-0.513-0.661-1.032-1.016-1.413
					c-0.061-0.079-0.226-0.229-0.358-0.355c-0.098-0.093-0.075-0.073-0.155-0.129c-0.119-0.081-0.33-0.176-0.581-0.254
					c-1.05-0.317-2.522-0.376-3.94-0.349c-1.44,0.03-2.917,0.147-4.402,0.293c-2.973,0.296-5.975,0.707-9.03,1.041
					c-1.531,0.161-3.071,0.309-4.678,0.336c-0.806,0.01-1.624-0.002-2.514-0.129c-0.446-0.068-0.912-0.159-1.433-0.36
					c-0.254-0.094-0.54-0.241-0.823-0.438c-0.409-0.32-0.563-0.489-0.785-0.843c-0.389-0.653-0.467-1.286-0.487-1.803
					c-0.011-0.523,0.045-0.981,0.119-1.415c0.152-0.864,0.381-1.63,0.614-2.384c0.476-1.497,1-2.912,1.47-4.33
					c0.941-2.82,1.728-5.668,1.742-8.475c0.033-2.806-0.896-5.445-2.928-7.407L154.699,164.236z"/>
			</g>
		</g>
		<g>
			<path fill="#FFBA00" d="M229.538,163.43c3.623,3.719-0.622,20.78,3.001,23.717c5.819,4.717,19.575-5.969,25.19,2.238
				c3.711,5.423,5.923,10.573,0,14.99s-27.792-5.283-31.627-0.865c-3.835,4.417,3.436,59.263,3.436,59.263
				c0,13.426,3.803,21.032,14.767,21.032c5.37,0,8.483-3.812,11.411-1.343c2.929,2.47,2.849,16.834,0.131,17.677
				c-2.718,0.842-9.174-2.776-16.781-2.776c-9.174,0-16.463-0.357-21.163-5.502c-5.37-6.041-7.607-15.662-7.607-28.417
				c0,0,0.932-51.299-3.551-54.34c-4.482-3.041-9.058,1.731-13.231-4.729c-4.172-6.459-2.975-11.401,0-14.99
				c2.976-3.589,9.012-3.418,12.92-5.765c3.908-2.346-1.601-5.127,3.861-14.373C215.757,160.002,225.915,159.71,229.538,163.43z"/>
		</g>
		<g>
			<path fill="#FFBA00" d="M279.882,225.884c0-13.872,10.223-39.221,16.557-35.351c6.335,3.87,1.119,18.57,1.119,18.57h0.448
				c7.831-13.201,23.878-18.944,34.291-23.403c10.413-4.458,46.926,36.325,46.926,68.991c0,38.931-19.89,46.595-45.061,42.576
				c-14.141-2.258-32.633,1.242-34.366-12.986h-0.447c0,0,10.572,39.186-7.142,52.859c-14.865,11.476-240.126,36.899-245.508,11.188
				c-2.797-13.363,210.702-0.311,225.628-25.945C289.46,292.957,279.882,225.884,279.882,225.884z M300.054,256.09
				c0,2.908,0.224,5.593,0.895,8.055c3.58,13.648,16.941,20.382,31.038,20.382c20.808,0,31.388-14.341,31.388-39.177
				c0-21.479-25.678-44.169-32.221-40.05c-6.543,4.119-26.179,9.397-29.759,24.165c-0.671,2.461-1.341,5.371-1.341,7.831V256.09z"/>
			<g>
				<path fill="#CB3A19" d="M279.115,225.88c0.079-5.271,1.217-10.381,2.669-15.35c1.505-4.958,3.379-9.821,6-14.343
					c0.664-1.125,1.384-2.225,2.21-3.263c0.833-1.027,1.751-2.031,2.979-2.759c0.612-0.353,1.338-0.631,2.133-0.619
					c0.395,0.005,0.793,0.089,1.154,0.24c0.188,0.076,0.341,0.16,0.525,0.274c0.136,0.09,0.262,0.168,0.419,0.291
					c1.166,0.874,1.909,2.14,2.325,3.435c0.814,2.622,0.664,5.313,0.329,7.89c-0.368,2.591-0.986,5.108-1.828,7.589l-0.001,0.005
					l-0.472-0.667h0.448l-0.43,0.245c2.649-4.476,6.354-8.24,10.488-11.314c4.142-3.086,8.699-5.537,13.352-7.689
					c2.328-1.078,4.687-2.081,7.044-3.069l3.529-1.487c1.317-0.599,2.801-0.474,4.076-0.156c2.595,0.686,4.842,2.065,6.965,3.531
					c2.114,1.491,4.086,3.158,5.968,4.911c3.758,3.517,7.165,7.378,10.317,11.427c3.148,4.054,6.031,8.312,8.627,12.741
					c5.147,8.854,9.314,18.434,11.058,28.62c0.425,2.542,0.68,5.117,0.717,7.701c0.02,2.572-0.054,5.139-0.232,7.703
					c-0.364,5.121-1.152,10.249-2.749,15.169c-1.59,4.898-4.075,9.623-7.773,13.32c-3.669,3.723-8.496,6.181-13.534,7.359
					c-5.055,1.201-10.281,1.305-15.401,0.879c-2.557-0.193-5.131-0.618-7.624-0.971c-2.516-0.32-5.057-0.488-7.604-0.637
					c-5.085-0.325-10.257-0.42-15.309-1.744c-2.495-0.681-5.011-1.759-6.924-3.666c-1.937-1.887-2.974-4.533-3.266-7.134
					l0.496,0.439h-0.433l-0.015,0.002l0.484-0.633c1.219,3.143,2.158,6.357,2.93,9.631c0.783,3.27,1.362,6.595,1.747,9.963
					c0.761,6.725,0.771,13.688-0.965,20.611c-0.879,3.446-2.269,6.878-4.394,9.983c-1.069,1.542-2.324,2.988-3.748,4.266
					c-0.355,0.32-0.721,0.63-1.097,0.926l-0.14,0.112l-0.185,0.138l-0.399,0.275c-0.267,0.173-0.501,0.31-0.739,0.441
					c-0.939,0.511-1.797,0.866-2.649,1.197c-3.38,1.27-6.632,2.093-9.917,2.896c-3.277,0.784-6.55,1.473-9.825,2.117
					c-13.098,2.547-26.226,4.487-39.38,6.241c-13.154,1.737-26.331,3.229-39.527,4.519c-26.395,2.536-52.865,4.459-79.445,4.761
					c-13.29,0.114-26.606-0.051-39.965-1.473c-3.34-0.371-6.683-0.834-10.029-1.485c-3.345-0.666-6.696-1.471-10.042-2.856
					c-1.667-0.716-3.353-1.557-4.952-2.92c-0.791-0.683-1.564-1.53-2.154-2.606c-0.293-0.537-0.533-1.131-0.687-1.755l-0.056-0.234
					c-0.075-0.39-0.033-0.196-0.056-0.323c-0.004,0.001-0.039-0.365-0.034-0.532c0-0.226,0.021-0.344,0.041-0.521
					c0.096-0.653,0.369-1.223,0.656-1.633c0.593-0.826,1.18-1.208,1.694-1.535c0.523-0.319,1.002-0.534,1.471-0.729
					c0.934-0.38,1.813-0.635,2.686-0.862c1.737-0.443,3.428-0.742,5.113-1.002c6.726-0.985,13.355-1.395,19.996-1.772
					c6.636-0.356,13.261-0.585,19.882-0.776c13.243-0.376,26.47-0.601,39.693-0.868c26.437-0.557,52.878-1.101,79.194-3.069
					c6.575-0.507,13.14-1.117,19.671-1.926c6.526-0.819,13.035-1.81,19.396-3.294c3.174-0.751,6.317-1.624,9.309-2.784
					c1.491-0.584,2.948-1.237,4.291-2.021c1.339-0.779,2.579-1.7,3.463-2.791c0.222-0.279,0.399-0.541,0.584-0.86l0.598-1.057
					c0.379-0.699,0.753-1.417,1.099-2.143c0.697-1.453,1.328-2.943,1.9-4.46c1.145-3.034,2.066-6.166,2.831-9.341
					c1.524-6.354,2.444-12.872,3.033-19.417c0.583-6.55,0.822-13.137,0.835-19.727c-0.008-13.174-0.818-26.392-2.438-39.462
					l-0.009-0.067L279.115,225.88z M280.65,225.855c1.773,13.137,2.729,26.341,2.885,39.592c0.062,6.637-0.105,13.283-0.622,19.917
					c-0.522,6.631-1.38,13.258-2.87,19.787c-0.747,3.263-1.659,6.499-2.814,9.667c-0.577,1.583-1.219,3.148-1.936,4.686
					c-0.356,0.771-0.738,1.524-1.139,2.282l-0.611,1.109c-0.224,0.399-0.505,0.828-0.795,1.198c-1.192,1.496-2.663,2.57-4.16,3.472
					c-1.506,0.899-3.069,1.618-4.648,2.257c-3.164,1.267-6.4,2.2-9.651,3.009c-6.507,1.594-13.084,2.666-19.669,3.567
					c-6.587,0.89-13.19,1.577-19.796,2.16c-26.433,2.271-52.912,3.108-79.358,3.959c-13.223,0.415-26.444,0.786-39.641,1.308
					c-6.598,0.265-13.19,0.566-19.76,0.975c-6.557,0.43-13.144,0.906-19.501,1.9c-1.58,0.257-3.146,0.554-4.61,0.941
					c-0.726,0.195-1.435,0.416-2.03,0.666c-0.293,0.124-0.567,0.257-0.748,0.373c-0.186,0.105-0.274,0.233-0.156,0.089
					c0.051-0.072,0.151-0.254,0.188-0.497c0.013-0.073,0.011-0.09,0.016-0.212c0.012-0.063-0.033-0.326-0.019-0.224
					c-0.004-0.024,0.043,0.273-0.004-0.018l0.018,0.067c0.047,0.178,0.119,0.356,0.224,0.544c0.209,0.373,0.554,0.781,1.019,1.17
					c0.926,0.787,2.225,1.47,3.598,2.033c2.78,1.129,5.898,1.873,9.038,2.462c3.152,0.585,6.37,1.003,9.606,1.332
					c12.97,1.265,26.161,1.318,39.312,1.084c26.327-0.612,52.677-2.497,78.933-5.107c13.128-1.318,26.238-2.836,39.308-4.596
					c13.062-1.774,26.111-3.74,38.978-6.277c3.212-0.641,6.411-1.323,9.564-2.087c3.134-0.769,6.302-1.602,9.112-2.672
					c0.688-0.266,1.357-0.558,1.869-0.841c0.124-0.067,0.245-0.142,0.326-0.193c0.028-0.023-0.003,0.01,0.11-0.076l0.167-0.128
					c0.275-0.213,0.544-0.436,0.805-0.666c1.048-0.921,1.988-1.978,2.814-3.144c1.683-2.317,2.899-5.068,3.808-7.979
					c1.79-5.859,2.31-12.305,2.362-18.756c-0.007-6.468-0.48-13.032-1.305-19.577l-0.089-0.704l0.573,0.071l0.015,0.002h0.433h0.446
					l0.05,0.439c0.28,2.455,1.229,4.837,2.979,6.546c1.73,1.729,4.077,2.756,6.481,3.411c4.868,1.279,10.013,1.389,15.104,1.71
					c2.554,0.149,5.115,0.317,7.672,0.643c2.565,0.363,5.039,0.772,7.581,0.967c5.048,0.421,10.176,0.312,15.085-0.855
					c4.897-1.147,9.528-3.513,13.06-7.093c3.559-3.556,5.975-8.13,7.53-12.925c1.562-4.812,2.343-9.865,2.703-14.929
					c0.177-2.534,0.249-5.081,0.23-7.619c-0.037-2.527-0.286-5.052-0.704-7.55c-1.712-10.013-5.83-19.504-10.934-28.279
					c-2.573-4.39-5.433-8.614-8.554-12.632c-3.125-4.014-6.503-7.84-10.21-11.31c-1.856-1.729-3.798-3.37-5.861-4.824
					c-2.062-1.43-4.264-2.757-6.632-3.378c-1.177-0.29-2.4-0.375-3.44,0.105l-3.536,1.489c-2.355,0.987-4.701,1.985-7.011,3.055
					c-4.616,2.135-9.111,4.557-13.174,7.584c-4.055,3.016-7.658,6.684-10.227,11.023l-0.145,0.245h-0.285h-0.448h-0.704l0.233-0.667
					l0.001-0.004c0.789-2.393,1.382-4.896,1.714-7.397c0.309-2.491,0.399-5.082-0.349-7.393c-0.675-2.208-2.864-4.409-4.877-2.939
					c-0.99,0.593-1.848,1.517-2.615,2.487c-0.767,0.981-1.45,2.042-2.082,3.136c-2.504,4.402-4.317,9.218-5.752,14.1
					C281.744,215.804,280.684,220.837,280.65,225.855z"/>
				<path fill="#CB3A19" d="M300.82,256.088c-0.049,2.342,0.037,4.668,0.48,6.933c0.459,2.281,1.217,4.477,2.318,6.527
					c2.175,4.109,5.609,7.496,9.633,9.863c4.028,2.379,8.59,3.827,13.244,4.467c4.658,0.617,9.447,0.487,14.023-0.562
					c4.568-1.069,8.871-3.318,12.16-6.627c0.822-0.822,1.598-1.694,2.295-2.624c0.688-0.938,1.203-2.004,1.548-3.133
					c0.695-2.275,0.686-4.714,1.094-6.88c0.176-1.099,0.49-2.145,0.785-3.209c0.285-1.066,0.532-2.148,0.743-3.242
					c0.419-2.191,0.703-4.426,0.874-6.683c0.084-1.129,0.141-2.263,0.176-3.4l0.029-1.709l0.004-0.428l-0.007-0.385
					c-0.006-0.29-0.005-0.615-0.023-0.839c-0.08-2.02-0.431-4.205-0.982-6.285c-1.106-4.207-3.054-8.271-5.413-12.093
					c-2.367-3.824-5.212-7.405-8.403-10.6c-1.589-1.602-3.271-3.108-5.042-4.44c-1.759-1.32-3.653-2.512-5.482-3.177
					c-0.887-0.328-1.81-0.483-2.241-0.393c-0.101,0.021-0.187,0.033-0.229,0.059c0.02-0.023-0.184,0.095-0.292,0.159l-0.441,0.249
					c-0.579,0.316-1.14,0.592-1.7,0.858c-2.232,1.048-4.411,1.938-6.555,2.891c-4.274,1.888-8.428,3.939-12.07,6.641
					c-3.634,2.671-6.7,6.115-8.188,10.28c-0.361,1.004-0.669,2.199-0.976,3.293c-0.292,1.116-0.552,2.235-0.729,3.348
					c-0.19,1.14-0.245,2.151-0.255,3.378l-0.076,3.553L300.82,256.088z M299.287,256.092l-0.303-14.213l-0.076-3.553
					c-0.044-1.141-0.031-2.503,0.126-3.709c0.144-1.234,0.37-2.437,0.628-3.624c0.282-1.199,0.511-2.315,0.895-3.56
					c1.512-4.894,4.894-8.957,8.698-12.071c3.832-3.148,8.132-5.527,12.411-7.681c2.135-1.079,4.297-2.094,6.302-3.162
					c0.496-0.267,0.986-0.541,1.434-0.816l0.323-0.204c0.144-0.091,0.19-0.131,0.474-0.29c0.47-0.275,0.958-0.438,1.43-0.558
					c1.908-0.413,3.395-0.033,4.742,0.353c2.67,0.854,4.864,2.169,6.958,3.585c2.08,1.429,4.005,3.012,5.827,4.695
					c3.62,3.389,6.83,7.178,9.589,11.322c2.75,4.145,5.002,8.695,6.421,13.63c0.694,2.487,1.188,4.993,1.316,7.708
					c0.024,0.368,0.022,0.634,0.03,0.937l0.009,0.503l-0.002,0.46l-0.025,1.843c-0.032,1.23-0.091,2.462-0.178,3.696
					c-0.178,2.467-0.481,4.94-0.942,7.405c-0.233,1.232-0.509,2.462-0.831,3.686c-0.312,1.225-0.694,2.445-1.312,3.577
					c-1.179,2.296-3.176,4.186-4.943,5.957c-0.885,0.896-1.722,1.781-2.51,2.695c-0.777,0.923-1.598,1.81-2.484,2.627
					c-3.537,3.293-7.992,5.474-12.646,6.526c-4.662,1.083-9.498,1.17-14.227,0.609c-4.729-0.574-9.408-1.957-13.581-4.347
					c-4.165-2.375-7.779-5.837-10.108-10.088c-1.167-2.109-2.041-4.409-2.622-6.748
					C299.535,260.915,299.342,258.481,299.287,256.092z"/>
			</g>
		</g>
		<g>
			<path fill="#BC8E26" d="M394.11,283.319c0-6.499,3.515-11.372,8.431-11.372c4.917,0,8.291,4.692,8.291,11.372
				c0,6.496-3.374,11.371-8.57,11.371C397.483,294.69,394.11,289.815,394.11,283.319z M440.901,283.319
				c0-6.499,3.513-11.372,8.431-11.372s8.289,4.692,8.289,11.372c0,6.496-3.371,11.371-8.568,11.371
				C444.273,294.69,440.901,289.815,440.901,283.319z M487.692,283.319c0-6.499,3.511-11.372,8.431-11.372
				c4.918,0,8.29,4.692,8.29,11.372c0,6.496-3.372,11.371-8.571,11.371C491.064,294.69,487.692,289.815,487.692,283.319z"/>
			<g>
				<path fill="#CB3A19" d="M392.689,283.295c0.155-2.77,1.018-5.638,2.713-7.902c0.84-1.133,1.882-2.127,3.103-2.827
					c1.216-0.704,2.613-1.1,4.012-1.116c1.394-0.042,2.828,0.297,4.062,1.013c1.232,0.713,2.285,1.727,3.074,2.901
					c1.602,2.362,2.342,5.144,2.566,7.979c0.204,2.755-0.128,5.792-1.641,8.545c-0.77,1.356-1.848,2.648-3.271,3.585
					c-1.424,0.926-3.145,1.449-4.821,1.517c-0.773,0.036-1.786-0.066-2.605-0.299c-0.859-0.229-1.664-0.625-2.391-1.093
					c-1.458-0.958-2.509-2.297-3.233-3.682c-1.423-2.815-1.7-5.792-1.566-8.597V283.295z M395.531,283.319
					c0.147,2.413,0.931,4.771,2.229,6.462c0.637,0.846,1.377,1.519,2.152,1.947c0.796,0.431,1.544,0.656,2.474,0.653
					c1.87,0.051,3.577-0.866,4.84-2.596c1.271-1.721,2.001-4.028,2.219-6.488c0.211-2.379-0.048-4.946-1.171-7.094
					c-0.571-1.059-1.337-2.032-2.34-2.695c-1-0.659-2.188-1.039-3.415-1.062c-1.225-0.015-2.438,0.346-3.445,1.03
					c-1.006,0.692-1.79,1.668-2.341,2.751c-1.092,2.203-1.346,4.667-1.202,7.115V283.319z"/>
				<path fill="#CB3A19" d="M439.48,283.295c0.155-2.77,1.018-5.638,2.712-7.902c0.84-1.133,1.882-2.127,3.103-2.827
					c1.216-0.704,2.613-1.1,4.012-1.116c1.394-0.042,2.828,0.296,4.062,1.012c1.233,0.714,2.286,1.727,3.074,2.902
					c1.601,2.362,2.341,5.144,2.565,7.979c0.204,2.755-0.127,5.791-1.64,8.545c-0.769,1.356-1.848,2.649-3.271,3.586
					c-1.425,0.925-3.145,1.448-4.821,1.516c-0.773,0.036-1.787-0.066-2.606-0.299c-0.858-0.229-1.663-0.625-2.391-1.093
					c-1.458-0.958-2.508-2.297-3.232-3.682c-1.424-2.815-1.7-5.792-1.566-8.597V283.295z M442.322,283.319
					c0.147,2.413,0.931,4.771,2.229,6.462c0.638,0.846,1.378,1.519,2.152,1.947c0.796,0.431,1.545,0.656,2.475,0.653
					c1.87,0.051,3.576-0.865,4.839-2.596c1.27-1.721,2-4.028,2.218-6.488c0.211-2.379-0.048-4.946-1.17-7.095
					c-0.571-1.058-1.336-2.031-2.34-2.695c-0.999-0.658-2.188-1.038-3.415-1.061c-1.224-0.015-2.438,0.346-3.445,1.03
					c-1.005,0.691-1.79,1.668-2.34,2.751c-1.093,2.203-1.346,4.667-1.202,7.115V283.319z"/>
				<path fill="#CB3A19" d="M486.271,283.295c0.155-2.77,1.017-5.638,2.712-7.903c0.839-1.133,1.881-2.127,3.103-2.827
					c1.216-0.703,2.613-1.099,4.012-1.115c1.394-0.042,2.828,0.296,4.062,1.012c1.233,0.714,2.286,1.727,3.075,2.902
					c1.601,2.362,2.341,5.144,2.565,7.979c0.204,2.755-0.128,5.791-1.64,8.545c-0.77,1.356-1.849,2.648-3.271,3.585
					c-1.425,0.926-3.145,1.448-4.821,1.517c-0.774,0.036-1.786-0.066-2.606-0.298c-0.858-0.229-1.663-0.626-2.391-1.094
					c-1.458-0.957-2.508-2.297-3.232-3.682c-1.424-2.815-1.7-5.792-1.566-8.597V283.295z M489.113,283.319
					c0.147,2.413,0.931,4.771,2.229,6.463c0.638,0.845,1.378,1.519,2.152,1.946c0.796,0.431,1.543,0.657,2.474,0.653
					c1.871,0.05,3.578-0.866,4.84-2.596c1.271-1.721,2.001-4.028,2.219-6.489c0.211-2.378-0.048-4.945-1.171-7.094
					c-0.57-1.058-1.336-2.031-2.34-2.695c-0.999-0.658-2.188-1.038-3.415-1.061c-1.224-0.015-2.438,0.346-3.445,1.03
					c-1.006,0.691-1.79,1.668-2.341,2.751c-1.092,2.202-1.345,4.666-1.201,7.115V283.319z"/>
			</g>
		</g>
	</g>
</g>
</svg>
