<?xml version="1.0" encoding="utf-8"?>
<!-- Generator: Adobe Illustrator 15.0.2, SVG Export Plug-In . SVG Version: 6.00 Build 0)  -->
<!DOCTYPE svg PUBLIC "-//W3C//DTD SVG 1.0//EN" "http://www.w3.org/TR/2001/REC-SVG-20010904/DTD/svg10.dtd">
<svg version="1.0" id="Layer_1" xmlns="http://www.w3.org/2000/svg" xmlns:xlink="http://www.w3.org/1999/xlink" x="0px" y="0px"
	 width="512px" height="512px" viewBox="0 0 512 512" enable-background="new 0 0 512 512" xml:space="preserve">
<g>
	<path fill="#FFBA00" d="M466.771,119.273c1.246,70.946-46.052,168.029-156.827,169.274
		c-110.775,1.247-158.534-27.703-120.731-103.307c44.806-89.615-31.521-47.534-57.256-29.872
		c-66.903,45.915-181.718,60.606-88.371,182.967c92.105,120.731,87.698,68.309,60.83-8.194c-4.3-12.243-3.483-101.112,36.254-41.594
		c43.299,64.854,148.874,70.829,226.528,47.299c82.15-24.894,148.113-144.38,120.732-227.774
		C460.548,24.679,466.771,119.273,466.771,119.273z"/>
	<g>
		<path fill="#FFBA00" d="M184.488,180.924c28.787-76.246-25.64-38.666-46.573-24.299C83.494,193.974-35.327,222.506,57.5,306.5
			C98.952,344.008,22.262,199.338,127,216C139.802,218.037,172,214,184.488,180.924z"/>
		<path fill="#F1C754" d="M184.488,180.924c28.787-76.246-25.64-38.666-46.573-24.299C83.494,193.974-35.327,222.506,57.5,306.5
			C98.952,344.008,22.262,199.338,127,216C139.802,218.037,172,214,184.488,180.924z"/>
	</g>
	<g>
		<path fill="#BC8E26" d="M119.062,383.534c-0.27-2.589-0.864-5.093-1.645-7.547c-0.758-2.456-1.697-4.858-2.736-7.223
			c-2.072-4.733-4.486-9.345-6.988-13.96c-2.463-4.633-5.036-9.264-7.479-14.045c-2.394-4.803-4.699-9.735-6.661-14.958
			c-1.937-5.216-3.876-10.679-4.698-16.683c-0.396-2.992-0.459-6.11-0.052-9.23c0.205-1.559,0.521-3.115,0.948-4.646l0.167-0.572
			l0.167-0.527l0.348-1.057c0.24-0.737,0.513-1.408,0.787-2.106c2.196-5.515,5.428-10.666,9.65-14.867
			c4.235-4.159,9.5-7.337,15.142-8.361l0.703,1.211c-3.494,4.264-6.078,8.458-8.035,12.823c-1.961,4.346-3.354,8.818-4.339,13.349
			l-0.336,1.684l-0.163,0.853c-0.024,0.138-0.076,0.381-0.078,0.431l-0.062,0.39c-0.169,1.036-0.31,2.08-0.416,3.14
			c-0.222,2.114-0.367,4.289-0.412,6.556c-0.113,4.526,0.315,9.415,1.495,14.26c1.165,4.85,2.753,9.73,4.491,14.625
			c1.693,4.916,3.519,9.868,5.306,14.883c1.736,5.035,3.45,10.14,4.719,15.41c0.623,2.637,1.143,5.31,1.459,8.015
			c0.293,2.704,0.377,5.456,0.116,8.142L119.062,383.534z"/>
	</g>
	<g>
		<path fill="#BC8E26" d="M294.712,346.854c4.254-0.118,8.49-0.477,12.711-0.973c4.221-0.483,8.427-1.102,12.613-1.822
			c8.373-1.443,16.676-3.275,24.889-5.412c8.221-2.103,16.36-4.514,24.343-7.312c7.976-2.811,15.815-5.977,23.194-9.907
			c7.394-3.944,14.419-8.574,21.003-13.74c6.601-5.144,12.889-10.662,18.856-16.526c3.007-2.911,5.884-5.959,8.671-9.092
			c2.816-3.11,5.462-6.373,8.078-9.673c5.18-6.642,9.92-13.655,14.385-20.947l0.541,0.26c-2.93,8.071-6.846,15.81-11.474,23.115
			c-2.289,3.671-4.827,7.185-7.458,10.631c-2.666,3.419-5.502,6.707-8.449,9.896c-5.94,6.336-12.524,12.078-19.607,17.104
			c-7.103,4.996-14.565,9.468-22.37,13.252c-7.818,3.815-15.95,6.762-24.144,9.33c-8.204,2.556-16.511,4.7-24.879,6.529
			c-8.378,1.782-16.817,3.249-25.308,4.322c-8.484,1.062-17.04,1.771-25.592,1.565L294.712,346.854z"/>
	</g>
</g>
<g>
	<path fill="#CB3A19" d="M478.721,150.901c-1.099,6.31-2.475,12.55-3.924,18.775c-1.449,6.225-3.028,12.418-4.734,18.578
		c-3.405,12.32-7.349,24.493-11.871,36.455c-4.541,11.95-9.735,23.686-16.061,34.836c-3.172,5.566-6.629,10.983-10.506,16.106
		c-3.875,5.119-8.173,9.955-13.05,14.189c-2.419,2.146-5.056,4.038-7.655,5.883c-2.609,1.855-5.25,3.671-7.933,5.429
		c-5.368,3.506-10.913,6.798-16.785,9.505c-5.859,2.717-12.1,4.748-18.507,5.83c-6.407,1.105-12.892,1.34-19.306,1.348
		c-6.421-0.002-12.806-0.209-19.183-0.342c-6.377-0.141-12.745-0.228-19.112-0.204c-12.669,0.033-25.22,1.662-37.622,4.311
		c-6.206,1.328-12.389,2.86-18.695,4.217c-6.306,1.324-12.764,2.54-19.474,2.804c-6.69,0.28-13.631-0.586-20.125-2.813
		c-6.509-2.198-12.497-5.593-17.93-9.508c-1.373-0.989-2.667-1.971-4.019-3.058l-0.944-0.77l-1-0.851
		c-0.645-0.56-1.282-1.129-1.906-1.712c-2.499-2.329-4.832-4.833-6.983-7.468c-4.298-5.278-7.922-11.028-10.945-16.966
		c-6.096-11.864-10.167-24.311-14.806-35.788c-2.311-5.721-4.854-11.2-8.009-15.75c-3.151-4.579-6.957-7.926-11.535-9.718
		c-2.295-0.904-4.804-1.444-7.46-1.657c-0.663-0.056-1.335-0.085-2.014-0.106l-2.241-0.046c-1.481-0.013-2.959,0.019-4.433,0.088
		c-2.946,0.15-5.875,0.443-8.773,0.886c-2.899,0.447-5.752,1.108-8.571,1.883c-11.262,3.165-21.673,9.286-30.326,17.737
		c-8.68,8.44-15.585,19.008-20.847,30.681l-0.96-0.279c1.866-12.821,7.083-25.447,15.41-36.102
		c4.153-5.328,9.109-10.125,14.701-14.141c5.595-4.005,11.82-7.213,18.376-9.45c3.27-1.145,6.632-2.003,10.019-2.673
		c3.388-0.676,6.814-1.113,10.242-1.324c1.713-0.11,3.427-0.177,5.139-0.192c0.828-0.01,1.794-0.003,2.546,0.008
		c0.917,0.018,1.839,0.063,2.767,0.137c3.705,0.291,7.515,1.065,11.166,2.5c3.651,1.421,7.091,3.526,9.997,6.074
		c2.923,2.539,5.342,5.449,7.374,8.44c4.053,6.019,6.672,12.326,9.03,18.468c4.586,12.322,7.919,24.424,13.031,35.556
		c2.551,5.544,5.413,10.873,8.929,15.704c3.487,4.854,7.615,9.125,12.352,12.947c4.697,3.834,9.771,7.106,15.258,9.336
		c5.478,2.25,11.368,3.376,17.439,3.495c6.075,0.146,12.292-0.624,18.519-1.677c6.235-1.045,12.516-2.3,18.857-3.356
		c6.337-1.067,12.722-2.034,19.153-2.596c6.425-0.584,12.901-0.792,19.332-0.66c6.402,0.076,12.802,0.264,19.188,0.505
		c6.387,0.233,12.763,0.539,19.111,0.64c6.346,0.092,12.678-0.044,18.883-1.016c6.206-0.949,12.246-2.807,18.01-5.369
		c5.771-2.551,11.291-5.707,16.662-9.099c2.686-1.699,5.335-3.461,7.958-5.265c2.633-1.809,5.223-3.603,7.615-5.663
		c4.803-4.104,9.075-8.829,12.942-13.856c3.87-5.03,7.341-10.373,10.533-15.874c6.368-11.022,11.637-22.669,16.258-34.547
		c4.621-11.886,8.488-24.06,11.917-36.344c3.392-12.292,6.388-24.72,8.547-37.276L478.721,150.901z"/>
</g>
</svg>
