<?xml version="1.0" encoding="utf-8"?>
<!-- Generator: Adobe Illustrator 15.0.2, SVG Export Plug-In . SVG Version: 6.00 Build 0)  -->
<!DOCTYPE svg PUBLIC "-//W3C//DTD SVG 1.0//EN" "http://www.w3.org/TR/2001/REC-SVG-20010904/DTD/svg10.dtd">
<svg version="1.0" xmlns="http://www.w3.org/2000/svg" xmlns:xlink="http://www.w3.org/1999/xlink" x="0px" y="0px" width="512px"
	 height="512px" viewBox="0 0 512 512" enable-background="new 0 0 512 512" xml:space="preserve">
<g id="Layer_1">
	<path fill="#FFBA00" d="M86.112,136.9C40.253,57.503,99.116-4.782,157.979,47.236c58.863,52.019,171.112,149.896,74.605,268.306
		C136.077,433.952,53.942,465.438,53.942,465.438s72.552-127.993,82.135-185.488C145.659,222.456,86.112,136.9,86.112,136.9z"/>
	<path fill="#FFBA00" d="M265.945,356.665c-45.859,79.396,13.004,141.682,71.867,89.664
		c58.863-52.02,171.112-149.896,74.605-268.307C315.91,59.613,233.775,28.127,233.775,28.127s72.553,127.993,82.135,185.488
		C325.492,271.108,265.945,356.665,265.945,356.665z"/>
</g>
<g id="Layer_2">
	<linearGradient id="SVGID_1_" gradientUnits="userSpaceOnUse" x1="97.3672" y1="43.6035" x2="162.3449" y2="136.4013">
		<stop  offset="0" style="stop-color:#F1C754"/>
		<stop  offset="0.2128" style="stop-color:#F2C650"/>
		<stop  offset="0.434" style="stop-color:#F4C443"/>
		<stop  offset="0.6591" style="stop-color:#F7C12F"/>
		<stop  offset="0.8853" style="stop-color:#FCBD12"/>
		<stop  offset="1" style="stop-color:#FFBA00"/>
	</linearGradient>
	<path fill="url(#SVGID_1_)" d="M93.322,46.494c21.839-13.218,38.505-12.069,55.172,5.172s47.126,43.678,56.896,51.724
		s-40.379-4.598-57.046,4.598s-22.839,25.288-26.287,36.207s-22.736,4.023-30.782-16.667S71.482,59.712,93.322,46.494z"/>
	<g>
		<path fill="#BC8E26" d="M109.874,430.604c13.808-12.537,28.156-24.27,42.058-36.212c3.458-2.988,6.899-5.984,10.156-9.037
			c3.19-2.977,6.282-6.248,9.341-9.594c6.143-6.676,12.099-13.662,18.14-20.58l36.326-41.762
			c6.091-6.906,12.133-13.761,17.854-20.864c1.405-1.792,2.818-3.579,4.188-5.396c1.371-1.816,2.669-3.679,3.964-5.55
			c2.543-3.768,4.902-7.659,6.671-11.91l0.971,0.238c-0.492,4.738-2.023,9.33-3.821,13.718c-0.888,2.21-1.924,4.345-2.979,6.468
			c-1.059,2.121-2.173,4.211-3.365,6.249c-4.68,8.212-10.079,15.932-15.634,23.405c-11.165,14.771-22.358,29.633-34.554,43.72
			c-6.072,7.075-12.394,13.947-19.063,20.63c-3.364,3.314-6.813,6.602-10.58,9.732c-3.707,3.044-7.466,5.867-11.281,8.6
			c-7.629,5.448-15.438,10.528-23.393,15.373c-7.989,4.794-16.056,9.44-24.436,13.599L109.874,430.604z"/>
	</g>
	<linearGradient id="SVGID_2_" gradientUnits="userSpaceOnUse" x1="268.1631" y1="40.8501" x2="380.0172" y2="200.5943">
		<stop  offset="0" style="stop-color:#F1C754"/>
		<stop  offset="0.2128" style="stop-color:#F2C650"/>
		<stop  offset="0.434" style="stop-color:#F4C443"/>
		<stop  offset="0.6591" style="stop-color:#F7C12F"/>
		<stop  offset="0.8853" style="stop-color:#FCBD12"/>
		<stop  offset="1" style="stop-color:#FFBA00"/>
	</linearGradient>
	<path fill="url(#SVGID_2_)" d="M387.426,154.54C304.092,77.529,256,49.368,256,49.368l52.115,105.172
		C308.115,154.54,441.154,234.344,387.426,154.54z"/>
	<g>
		<path fill="#BC8E26" d="M279.807,461.688c2.612,0.259,5.212,0.417,7.805,0.439c2.592,0.018,5.169-0.11,7.716-0.333
			c5.096-0.455,10.062-1.582,14.695-3.302c4.627-1.743,8.904-4.15,12.592-7.204c1.773-1.476,3.691-3.363,5.573-5.136
			c1.881-1.802,3.764-3.61,5.618-5.452c7.424-7.368,14.7-14.923,21.974-22.443c7.257-7.52,14.733-14.857,22.045-22.065
			c1.795-1.8,3.645-3.606,5.213-5.308c1.713-1.83,3.416-3.739,5.116-5.675c3.384-3.886,6.776-7.816,10.109-11.791
			c3.322-3.984,6.669-7.956,9.903-12.005c3.288-4.01,6.467-8.094,9.605-12.18c3.099-4.106,6.16-8.243,8.867-12.46
			c0.68-1.051,1.34-2.104,1.954-3.156c0.626-1.067,1.145-2.047,1.764-3.275l3.629-7.004c4.894-9.306,9.628-18.405,12.402-28.574
			l0.99,0.141c-0.014,2.666-0.246,5.338-0.585,8.009c-0.379,2.661-0.896,5.311-1.503,7.932c-1.261,5.232-2.88,10.323-4.506,15.357
			l-2.524,7.498c-0.4,1.19-0.914,2.626-1.447,3.915c-0.534,1.308-1.097,2.58-1.683,3.829c-2.373,4.977-5.01,9.676-7.785,14.271
			c-5.545,9.187-11.576,17.95-17.877,26.52c-3.162,4.277-6.366,8.519-9.726,12.685c-1.674,2.087-3.375,4.177-5.161,6.263
			c-1.944,2.202-3.774,4.143-5.686,6.062c-15.057,15.22-31.799,28.001-48.586,40.933l-6.328,4.814
			c-2.15,1.588-4.176,3.181-6.644,4.804c-4.805,3.136-10.137,5.326-15.575,6.564c-10.925,2.435-22.03,1.439-32.155-1.691
			L279.807,461.688z"/>
	</g>
	<g>
		<path fill="#CB3A19" d="M148.689,107.625c1.472,1.292,3.134,2.385,4.815,3.446c1.687,1.056,3.417,2.055,5.152,3.05
			c3.471,1.989,6.988,3.922,10.494,5.889c7.01,3.934,14.01,7.961,20.773,12.42c6.761,4.457,13.335,9.272,19.518,14.638
			c6.175,5.366,11.966,11.292,16.978,17.948c4.989,6.659,9.138,14.099,11.923,22.13c2.799,8.02,4.149,16.61,3.99,25.149
			c-0.139,8.548-1.737,16.998-4.293,25.036c-1.289,4.051-2.782,7.86-4.354,11.687c-1.58,3.812-3.277,7.57-5.082,11.276
			c-3.604,7.416-7.655,14.609-12.124,21.563c-2.237,3.476-4.572,6.897-7.042,10.238c-2.491,3.324-5.101,6.576-7.864,9.734
			c-5.631,6.24-11.608,12.26-19.567,16.999c-2.016,1.17-4.187,2.248-6.72,3.031c-2.513,0.755-5.496,1.348-8.979,0.663
			c-1.715-0.344-3.49-1.073-4.99-2.129c-1.512-1.05-2.701-2.369-3.598-3.691c-0.447-0.645-0.862-1.421-1.042-1.766
			c-0.227-0.431-0.555-1.057-0.784-1.534c-0.498-1.015-0.961-2.04-1.388-3.075c-1.721-4.138-2.897-8.403-3.658-12.676
			c-0.779-4.271-1.137-8.558-1.172-12.807c-0.087-8.498,0.951-16.866,2.98-24.95c1.005-4.042,2.207-8.03,3.734-11.901
			c1.519-3.87,3.232-7.672,5.345-11.28c2.135-3.583,4.521-7.086,7.667-10.001c1.573-1.439,3.327-2.769,5.39-3.599
			c2.03-0.837,4.492-1.015,6.473-0.084l-0.316,0.948c-1.852-0.394-3.666,0.099-5.184,1.09c-1.536,0.972-2.85,2.336-3.999,3.829
			c-2.28,3.019-4.056,6.477-5.497,10.061c-2.922,7.17-4.688,14.818-5.814,22.461c-0.553,3.83-0.835,7.686-0.99,11.518
			c-0.145,3.832-0.063,7.656,0.276,11.423c0.353,3.764,0.932,7.474,1.797,11.058c0.886,3.577,2.043,7.036,3.564,10.243
			c0.378,0.803,0.782,1.587,1.208,2.354c0.228,0.416,0.379,0.67,0.642,1.115c0.314,0.527,0.382,0.633,0.516,0.807
			c0.25,0.32,0.455,0.489,0.608,0.567c0.157,0.078,0.279,0.114,0.534,0.148c0.483,0.08,1.59-0.037,2.873-0.506
			c1.284-0.462,2.726-1.188,4.161-2.059c2.888-1.756,5.744-4.096,8.484-6.604c2.759-2.504,5.405-5.244,7.948-8.103
			c2.568-2.839,5.034-5.811,7.405-8.869c2.393-3.044,4.702-6.171,6.915-9.373c4.424-6.406,8.49-13.088,12.188-19.964
			c3.67-6.858,7.026-14.032,9.724-21.169c2.63-7.137,4.374-14.56,4.838-22.063c0.478-7.498-0.353-15.058-2.514-22.305
			c-2.143-7.256-5.601-14.162-9.911-20.571c-4.293-6.43-9.451-12.361-15.09-17.847c-5.645-5.488-11.775-10.539-18.159-15.283
			c-6.385-4.749-12.999-9.241-19.723-13.607c-3.357-2.191-6.74-4.356-10.094-6.588c-1.675-1.119-3.335-2.267-4.967-3.466
			c-1.624-1.208-3.242-2.454-4.683-3.926L148.689,107.625z"/>
	</g>
	<g>
		<path fill="#CB3A19" d="M322.14,171.339c4.704,2.133,9.541,3.963,14.4,5.75l14.627,5.292c4.884,1.766,9.774,3.535,14.644,5.39
			c4.86,1.878,9.708,3.819,14.522,5.892c9.605,4.189,19.198,8.655,28.049,15.159c2.204,1.644,4.355,3.432,6.374,5.494
			c0.506,0.519,0.998,1.042,1.485,1.61c0.193,0.218,0.525,0.625,0.746,0.908c0.238,0.301,0.468,0.606,0.691,0.915
			c0.892,1.233,1.672,2.513,2.365,3.814c2.748,5.226,4.213,10.704,5.185,16.131c0.935,5.442,1.279,10.88,1.33,16.281
			c0.038,5.402-0.255,10.771-0.797,16.105c-1.112,10.66-3.121,21.201-6.175,31.504c-1.524,5.15-3.29,10.247-5.358,15.264
			c-2.067,5.016-4.436,9.954-7.277,14.728c-5.724,9.599-13.084,18.029-21.508,25.162c-4.22,3.564-8.715,6.814-13.488,9.687
			c-4.776,2.865-9.83,5.371-15.251,7.275c-5.425,1.867-11.229,3.223-17.56,3.163c-3.155-0.045-6.462-0.48-9.752-1.598
			c-3.278-1.103-6.52-2.97-9.146-5.502c-1.315-1.259-2.469-2.665-3.452-4.14c-0.479-0.712-0.976-1.588-1.241-2.065
			c-0.342-0.611-0.723-1.32-1.039-1.934c-1.319-2.553-2.471-5.161-3.479-7.804c-2.008-5.287-3.487-10.695-4.452-16.157
			c-0.981-5.458-1.521-10.956-1.68-16.452c-0.117-5.499,0.144-10.994,0.815-16.456c0.662-5.463,1.797-10.882,3.399-16.212
			c1.605-5.329,3.772-10.561,6.714-15.51c2.94-4.924,6.762-9.635,11.909-13.124c2.56-1.732,5.455-3.12,8.526-3.907
			c3.065-0.805,6.265-1.01,9.317-0.708c5.469,0.584,10.927,1.692,16.23,3.89c2.63,1.125,5.203,2.562,7.516,4.44
			c2.314,1.865,4.323,4.234,5.693,6.921c1.385,2.679,2.112,5.619,2.258,8.479c0.157,2.866-0.184,5.654-0.807,8.31
			c-0.614,2.661-1.538,5.195-2.646,7.613c-1.101,2.421-2.363,4.74-3.776,6.95l-0.891-0.457c0.951-2.404,1.809-4.829,2.473-7.286
			c0.653-2.458,1.139-4.937,1.372-7.394c0.48-4.907-0.341-9.793-2.829-13.396c-2.47-3.619-6.467-5.937-10.925-7.27
			c-4.45-1.38-9.358-1.858-14.218-1.978c-4.254-0.061-8.117,1.379-11.402,3.98c-3.294,2.601-5.963,6.304-8.097,10.386
			c-4.218,8.268-6.384,17.946-7.233,27.615c-0.435,4.852-0.503,9.749-0.238,14.614c0.239,4.866,0.814,9.71,1.765,14.441
			c0.963,4.728,2.223,9.366,3.94,13.761c0.854,2.197,1.816,4.333,2.893,6.38l0.811,1.488c0.373,0.65,0.516,0.903,0.755,1.271
			c0.454,0.684,0.953,1.295,1.509,1.832c1.111,1.071,2.453,1.884,4.082,2.447c1.623,0.562,3.516,0.858,5.54,0.893
			c4.062,0.071,8.543-0.859,12.904-2.359c8.782-3.018,17.229-8.141,24.695-14.283c7.47-6.175,14.104-13.436,19.149-21.581
			c5.056-8.223,9.018-17.447,12.105-26.944c3.069-9.516,5.432-19.337,6.814-29.27c1.37-9.909,1.884-20.004,0.685-29.663
			c-0.591-4.804-1.653-9.525-3.541-13.603c-0.473-1.014-0.998-1.982-1.578-2.883c-0.146-0.225-0.294-0.447-0.447-0.663
			c-0.169-0.235-0.234-0.34-0.455-0.621c-0.333-0.436-0.707-0.878-1.085-1.309c-1.521-1.73-3.281-3.37-5.157-4.926
			c-3.761-3.119-7.985-5.875-12.308-8.514c-4.338-2.629-8.838-5.074-13.409-7.414c-4.573-2.339-9.223-4.57-13.907-6.748
			c-4.677-2.2-9.384-4.362-14.106-6.508c-4.72-2.153-9.464-4.269-14.157-6.522c-4.689-2.252-9.396-4.517-13.886-7.19L322.14,171.339
			z"/>
	</g>
</g>
</svg>
