<?xml version="1.0" encoding="utf-8"?>
<!-- Generator: Adobe Illustrator 15.0.2, SVG Export Plug-In . SVG Version: 6.00 Build 0)  -->
<!DOCTYPE svg PUBLIC "-//W3C//DTD SVG 1.0//EN" "http://www.w3.org/TR/2001/REC-SVG-20010904/DTD/svg10.dtd">
<svg version="1.0" id="Layer_1" xmlns="http://www.w3.org/2000/svg" xmlns:xlink="http://www.w3.org/1999/xlink" x="0px" y="0px"
	 width="512px" height="512px" viewBox="0 0 512 512" enable-background="new 0 0 512 512" xml:space="preserve">
<path fill="#FFBA00" d="M25.301,210.009c-10.672-51.375,2.711-141.027,84.28-147.939c105.799-8.965,142.295,98.163,147.401,100.205
	c4.333,1.733-24.596-58.892-10.121-93.605c14.454-34.668,101.69-108.27,202.88,9.187c48.535,56.337,40.088,177.338-1.734,238.868
	c-64.315,94.624-206.248,200.02-207.145,190.157c-1.775-19.503-3.467-85.806-42.469-107.473
	C140.792,367.407,46.819,313.604,25.301,210.009z"/>
<path fill="#B3B3B3" d="M25.301,210.009c-10.672-51.375,2.711-141.027,84.28-147.939c105.799-8.965,142.295,98.163,147.401,100.205
	c4.333,1.733-24.596-58.892-10.121-93.605c14.454-34.668,101.69-108.27,202.88,9.187c48.535,56.337,40.088,177.338-1.734,238.868
	c-64.315,94.624-206.248,200.02-207.145,190.157c-1.775-19.503-3.467-85.806-42.469-107.473
	C140.792,367.407,46.819,313.604,25.301,210.009z"/>
<path fill="#F1C754" d="M65.222,105.111C76.333,92.889,143.555,65.667,189.667,109s44.162,62.222,66.333,65
	c22.172,2.778,89.223-35.556,87.556-13.333c-0.511,6.807-18.622,32.685-27.778,41.111C295.041,220.862,243.061,219.9,213,230.667
	c-43.333,15.52-84.444,93.496-121.111,64.607s-57.778-97.94-51.667-130.718S54.111,117.334,65.222,105.111z"/>
<path fill="#F2F2F2" d="M65.222,105.111C76.333,92.889,143.555,65.667,189.667,109s44.162,62.222,66.333,65
	c22.172,2.778,89.223-35.556,87.556-13.333c-0.511,6.807-18.622,32.685-27.778,41.111C295.041,220.862,243.061,219.9,213,230.667
	c-43.333,15.52-84.444,93.496-121.111,64.607s-57.778-97.94-51.667-130.718S54.111,117.334,65.222,105.111z"/>
<g>
	<path fill="#CB3A19" d="M313.093,106.032c0.433-2.402,1.663-4.725,3.254-6.689c1.588-1.992,3.558-3.634,5.632-5.079
		c4.201-2.84,8.945-4.712,13.862-5.891c4.936-1.132,10.084-1.623,15.479-0.954c2.701,0.334,5.471,0.997,8.302,2.259
		c2.792,1.26,5.77,3.296,7.946,6.574c0.267,0.406,0.519,0.827,0.75,1.262l0.504,0.976l0.463,0.957l0.422,0.922
		c0.549,1.233,1.042,2.483,1.486,3.747c0.89,2.527,1.57,5.109,2.07,7.734c0.978,5.256,1.284,10.676,0.459,16.368
		c-0.429,2.845-1.15,5.772-2.465,8.763c-1.316,2.964-3.281,6.097-6.42,8.706c-0.782,0.644-1.623,1.252-2.531,1.787
		c-0.454,0.266-0.915,0.525-1.395,0.755l-1.046,0.501c-1.237,0.577-2.331,1.067-3.483,1.564c-2.272,0.98-4.53,1.891-6.805,2.761
		c-4.546,1.735-9.142,3.312-13.861,4.714c-4.729,1.393-9.558,2.627-14.701,3.513c-2.576,0.443-5.229,0.793-8.056,0.954
		c-2.836,0.152-5.812,0.176-9.239-0.323c-1.717-0.261-3.546-0.646-5.553-1.354l-0.761-0.285l-0.642-0.255l-0.454-0.182l-0.638-0.276
		c-0.778-0.344-1.459-0.662-2.157-1.013c-2.762-1.379-5.238-2.918-7.587-4.574c-4.666-3.335-8.789-7.153-12.506-11.516
		c-3.673-4.385-6.958-9.323-9.4-15.083c-2.409-5.729-4.007-12.415-3.649-19.502c0.039-0.867,0.12-1.795,0.209-2.616l0.104-0.952
		l0.146-1.141c0.19-1.414,0.419-2.809,0.682-4.188c0.521-2.76,1.191-5.458,1.993-8.108c3.193-10.573,8.309-20.58,15.687-29.399
		c3.702-4.379,7.971-8.444,12.812-11.896c4.838-3.445,10.227-6.278,15.896-8.284l0.532-0.188l0.642-0.217l1.105-0.343l1.293-0.365
		l1.211-0.305c1.603-0.379,3.167-0.67,4.693-0.894c3.05-0.44,5.964-0.633,8.783-0.681c5.634-0.082,10.926,0.356,16.054,1.107
		c10.235,1.499,19.858,3.98,29.223,7.071c9.37,3.063,18.419,6.785,27.342,11.163c4.452,2.239,8.855,4.639,13.296,7.477
		c2.225,1.431,4.457,2.957,6.765,4.823c1.157,0.938,2.337,1.954,3.588,3.193l2.496,2.591c6.63,6.822,13.322,14.567,18.85,23.126
		c5.562,8.555,10.036,18.047,12.696,28.058c2.706,9.996,3.544,20.417,2.763,30.493c-0.383,5.043-1.17,10.008-2.281,14.85
		l-0.432,1.811l-0.131,0.536l-0.112,0.418l-0.317,1.133c-0.431,1.414-0.94,2.787-1.528,4.098c-1.168,2.628-2.605,5.031-4.187,7.228
		c-3.177,4.391-6.84,8.035-10.677,11.244c-3.844,3.206-7.868,5.986-11.949,8.56c-4.09,2.561-8.264,4.877-12.48,7.04
		c-4.207,2.18-8.457,4.213-12.731,6.141c-4.276,1.923-8.572,3.754-12.853,5.563l-12.763,5.321l-3.161,1.377
		c-1.12,0.487-2.204,0.939-3.312,1.383c-2.205,0.885-4.418,1.707-6.621,2.494c-4.406,1.577-8.775,3.008-12.962,4.619
		c-4.185,1.611-8.187,3.422-11.8,5.745c-3.616,2.312-6.824,5.159-9.525,8.508c-0.665,0.824-1.345,1.727-1.914,2.564
		c-0.397,0.607-0.8,1.461-1.034,2.289c-0.498,1.702-0.549,3.688-0.305,5.733c0.506,4.12,2.04,8.375,3.735,12.54
		c3.473,8.359,7.786,16.585,11.492,25.138c3.696,8.536,7.017,17.479,8.035,27.011c0.486,4.743,0.301,9.637-0.916,14.324
		c-1.215,4.565-2.835,9.091-5.471,13.174c-1.317,2.028-2.908,3.912-4.746,5.51c-1.833,1.604-3.889,2.909-5.994,4.001
		c-4.232,2.167-8.579,3.686-12.633,5.738c-4.065,2.016-7.848,4.539-11.191,7.603c-3.353,3.051-6.285,6.569-8.884,10.324
		c-2.82,3.558-3.646,8.093-4.148,12.627c-0.48,4.549-0.613,9.171-0.948,13.788c-0.323,4.618-0.815,9.251-1.771,13.81
		c-0.95,4.555-2.371,9.035-4.41,13.235c-2.032,4.2-4.677,8.099-7.79,11.567c-3.12,3.467-6.714,6.483-10.57,9.081l-0.559-0.83
		c3.803-2.553,7.337-5.512,10.4-8.907c3.074-3.385,5.628-7.232,7.572-11.364c1.957-4.13,3.308-8.531,4.199-13.019
		c0.897-4.491,1.341-9.068,1.618-13.659c0.29-4.593,0.376-9.211,0.82-13.852c0.231-2.317,0.559-4.647,1.187-6.942
		c0.318-1.145,0.709-2.281,1.226-3.377c0.511-1.112,1.197-2.113,1.827-3.072c2.583-3.882,5.528-7.56,8.95-10.792
		c3.407-3.242,7.331-5.965,11.497-8.126c4.149-2.198,8.532-3.809,12.464-5.971c1.963-1.081,3.8-2.32,5.407-3.8
		c1.612-1.475,2.987-3.187,4.138-5.057c2.297-3.749,3.742-8.068,4.783-12.433c1-4.29,1.066-8.775,0.503-13.191
		c-0.559-4.425-1.738-8.789-3.238-13.052c-1.5-4.267-3.315-8.443-5.27-12.572c-3.897-8.278-8.438-16.29-12.332-24.871
		c-1.906-4.312-3.718-8.767-4.555-13.806c-0.393-2.513-0.501-5.238,0.18-8.016c0.355-1.403,0.857-2.7,1.672-4.058
		c0.688-1.098,1.364-2.065,2.109-3.068c2.943-3.961,6.599-7.468,10.66-10.284c4.058-2.834,8.444-5.004,12.801-6.877
		c4.365-1.874,8.718-3.483,12.943-5.183c2.114-0.848,4.198-1.716,6.244-2.629c1.019-0.454,2.048-0.931,3.027-1.402l3.124-1.53
		c8.425-4.055,16.752-7.791,24.796-12.076c4.023-2.12,7.987-4.313,11.844-6.63c3.845-2.337,7.587-4.788,11.148-7.396
		c3.563-2.601,6.933-5.389,9.946-8.369c3.002-2.978,5.688-6.145,7.605-9.465c0.963-1.654,1.737-3.331,2.283-4.99
		c0.277-0.83,0.486-1.655,0.648-2.472l0.093-0.548l0.072-0.427c0.03-0.156,0-0.028,0.014-0.113l0.028-0.199l0.224-1.589
		c0.558-4.238,0.815-8.472,0.734-12.658c-0.144-8.375-1.734-16.531-4.638-24.136c-2.907-7.611-7.107-14.675-12.256-21.149
		c-2.575-3.24-5.385-6.334-8.386-9.323c-3.013-2.991-6.173-5.871-9.558-8.848l-2.506-2.197c-0.433-0.341-1.043-0.787-1.728-1.241
		c-1.379-0.914-3.031-1.895-4.769-2.832c-3.495-1.884-7.35-3.645-11.283-5.266c-7.871-3.303-16.162-6.049-24.449-8.384
		c-8.299-2.267-16.695-4.108-24.773-5.026c-4.026-0.433-7.969-0.688-11.568-0.56c-1.795,0.062-3.493,0.22-5.009,0.469
		c-0.756,0.125-1.46,0.276-2.101,0.441l-0.465,0.127l-0.37,0.113l-0.545,0.181l-0.461,0.167c-6.046,2.172-11.459,6.075-16.046,11.37
		c-4.577,5.272-8.271,11.906-10.695,18.906c-0.593,1.75-1.12,3.517-1.558,5.272c-0.215,0.878-0.406,1.754-0.571,2.621l-0.107,0.572
		c-0.03,0.131-0.082,0.502-0.124,0.764c-0.054,0.325-0.092,0.545-0.124,0.83c-0.26,2.145-0.018,4.737,0.953,7.583
		c1.867,5.698,6.391,12.026,11.695,16.643c1.312,1.155,2.675,2.206,3.964,3.042c0.312,0.207,0.66,0.415,0.92,0.574l0.145,0.095
		c0.024,0.023,0.229,0.119,0.334,0.176l0.192,0.098c0.116,0.057-0.16-0.064-0.04-0.008c0.014,0.012,0.027,0.025,0.04,0.041
		c0.148,0.122,0.567,0.306,1.118,0.466c1.118,0.332,2.778,0.552,4.555,0.636c1.79,0.084,3.743,0.051,5.751-0.059
		c8.088-0.49,16.842-2.189,25.302-4.368c2.118-0.551,4.228-1.142,6.281-1.769c1.012-0.307,2.07-0.651,2.969-0.95l0.407-0.144
		c0.103-0.038,0.107-0.035,0.104-0.032l0.035-0.004c0.051,0.001,0.098-0.014,0.151-0.021c0.106-0.017,0.221-0.062,0.354-0.122
		c0.521-0.229,1.313-0.952,2.02-2.123c0.712-1.16,1.338-2.69,1.791-4.373c0.919-3.385,1.204-7.324,0.916-11.204
		c-0.146-1.945-0.43-3.891-0.864-5.787c-0.217-0.948-0.47-1.884-0.758-2.802l-0.223-0.685l-0.22-0.634l-0.156-0.404
		c-0.012-0.036-0.084-0.206-0.046-0.131l-0.017-0.062c-0.021-0.083-0.05-0.167-0.083-0.254c-0.239-0.688-1.043-1.603-2.338-2.44
		c-1.282-0.846-2.978-1.532-4.801-2.082c-3.684-1.065-7.892-1.512-12.097-1.418c-4.216,0.09-8.498,0.699-12.552,2.02
		c-4.029,1.334-7.925,3.402-10.478,7.19L313.093,106.032z"/>
</g>
<g>
	<path fill="#BC8E26" d="M483.051,175.099c1.429,8.418,2.06,16.912,2.389,25.406c0.301,8.497,0.242,17.014-0.184,25.537
		c-0.213,4.262-0.545,8.521-0.93,12.788c-0.44,4.258-0.93,8.524-1.558,12.786c-0.653,4.255-1.377,8.518-2.261,12.771
		c-0.906,4.247-1.929,8.493-3.118,12.732c-2.47,8.447-5.515,16.9-10.121,25.068c-0.572,1.021-1.176,2.037-1.803,3.048l-0.969,1.519
		l-0.899,1.336c-1.227,1.812-2.456,3.577-3.702,5.336c-2.479,3.519-5.042,6.94-7.641,10.32
		c-10.391,13.51-21.464,26.305-32.972,38.698c-5.799,6.155-11.631,12.269-17.589,18.26c-5.959,5.989-11.982,11.911-18.082,17.753
		c-3.05,2.921-6.119,5.821-9.21,8.699c-3.075,2.892-6.164,5.769-9.285,8.613c-6.255,5.675-12.565,11.288-19.025,16.743
		c-3.222,2.734-6.501,5.418-9.835,8.021l-9.89,7.797c-6.604,5.186-13.232,10.343-19.892,15.457
		c-6.617,5.166-13.27,10.29-19.982,15.332c-6.688,5.076-13.439,10.066-20.259,14.966l-0.586-0.811
		c6.774-4.933,13.365-10.114,19.897-15.367c6.504-5.289,12.943-10.658,19.348-16.067c6.362-5.463,12.686-10.971,18.987-16.503
		l9.436-8.318c3.105-2.772,6.126-5.629,9.112-8.537c5.948-5.835,11.688-11.901,17.277-18.105c2.801-3.097,5.577-6.216,8.322-9.364
		c2.729-3.162,5.435-6.346,8.119-9.547c5.369-6.402,10.653-12.874,15.864-19.401c5.21-6.527,10.408-13.056,15.496-19.663
		c10.246-13.148,20.448-26.316,30.312-39.559c2.457-3.313,4.876-6.641,7.26-9.956c1.185-1.659,2.356-3.334,3.485-4.991l1.608-2.388
		c0.497-0.761,0.984-1.536,1.454-2.334c1.898-3.181,3.562-6.632,5.129-10.188c1.572-3.557,2.99-7.25,4.279-11.023
		c5.24-15.106,8.936-31.192,12.262-47.412c1.647-8.125,3.17-16.316,4.608-24.556c1.424-8.243,2.877-16.52,4.146-24.879
		L483.051,175.099z"/>
</g>
<g>
	<path fill="#666666" d="M483.051,175.099c1.429,8.418,2.061,16.912,2.389,25.406c0.301,8.497,0.243,17.014-0.184,25.537
		c-0.212,4.262-0.545,8.521-0.93,12.788c-0.439,4.258-0.929,8.524-1.558,12.786c-0.653,4.255-1.376,8.518-2.261,12.771
		c-0.906,4.247-1.929,8.493-3.118,12.732c-2.47,8.447-5.515,16.9-10.121,25.068c-0.572,1.021-1.176,2.037-1.803,3.048l-0.969,1.519
		l-0.899,1.336c-1.227,1.812-2.456,3.577-3.702,5.336c-2.479,3.519-5.042,6.94-7.641,10.32
		c-10.391,13.51-21.464,26.305-32.972,38.698c-5.799,6.155-11.631,12.269-17.589,18.26c-5.959,5.989-11.982,11.911-18.082,17.753
		c-3.05,2.921-6.118,5.821-9.209,8.699c-3.076,2.892-6.165,5.769-9.286,8.613c-6.254,5.675-12.565,11.288-19.025,16.743
		c-3.222,2.734-6.5,5.418-9.834,8.021l-9.891,7.798c-6.604,5.185-13.231,10.342-19.892,15.456
		c-6.617,5.166-13.269,10.29-19.982,15.332c-6.687,5.076-13.439,10.066-20.259,14.966l-0.586-0.811
		c6.774-4.933,13.365-10.115,19.897-15.367c6.503-5.29,12.942-10.658,19.348-16.068c6.362-5.462,12.686-10.97,18.987-16.502
		l9.435-8.319c3.106-2.771,6.127-5.629,9.112-8.536c5.949-5.835,11.688-11.901,17.278-18.105c2.801-3.097,5.577-6.216,8.322-9.364
		c2.729-3.162,5.435-6.346,8.119-9.547c5.369-6.402,10.653-12.874,15.864-19.401c5.21-6.527,10.408-13.056,15.496-19.663
		c10.246-13.148,20.448-26.316,30.312-39.559c2.457-3.313,4.876-6.641,7.26-9.956c1.185-1.659,2.356-3.334,3.485-4.991l1.608-2.388
		c0.497-0.761,0.983-1.536,1.454-2.334c1.898-3.181,3.562-6.632,5.129-10.188c1.572-3.557,2.99-7.25,4.279-11.023
		c5.24-15.106,8.936-31.192,12.262-47.412c1.646-8.125,3.17-16.316,4.608-24.556c1.423-8.243,2.877-16.52,4.146-24.879
		L483.051,175.099z"/>
</g>
</svg>
