<?xml version="1.0" encoding="utf-8"?>
<!-- Generator: Adobe Illustrator 15.0.2, SVG Export Plug-In . SVG Version: 6.00 Build 0)  -->
<!DOCTYPE svg PUBLIC "-//W3C//DTD SVG 1.0//EN" "http://www.w3.org/TR/2001/REC-SVG-20010904/DTD/svg10.dtd">
<svg version="1.0" xmlns="http://www.w3.org/2000/svg" xmlns:xlink="http://www.w3.org/1999/xlink" x="0px" y="0px" width="512px"
	 height="512px" viewBox="0 0 512 512" enable-background="new 0 0 512 512" xml:space="preserve">
<g id="Layer_1">
	<g>
		<g>
			<g>
				<g>
					<path fill="#FFBA00" d="M246.027,125.392L135.219,46.117C105.845,25.102,64.995,31.879,43.98,61.253L18.612,96.712
						c-21.016,29.375-14.239,70.225,15.135,91.24l110.808,79.275c29.374,21.014,70.224,14.238,91.24-15.137l25.368-35.458
						C282.178,187.258,275.4,146.406,246.027,125.392z M208.884,190.784l-14.433,20.175c-11.957,16.712-35.198,20.566-51.909,8.612
						L79.5,174.468c-16.712-11.957-20.568-35.198-8.611-51.909l14.433-20.175c11.956-16.71,35.197-20.566,51.909-8.609
						l63.042,45.101C216.983,150.832,220.839,174.073,208.884,190.784z"/>
				</g>
			</g>
		</g>
	</g>
	<g>
		<g>
			<g>
				<g>
					<path fill="#FFBA00" d="M477.039,290.665L366.234,211.39c-29.376-21.014-70.226-14.239-91.241,15.136l-25.368,35.46
						c-21.015,29.374-14.238,70.224,15.137,91.238l110.806,79.274c29.376,21.016,70.225,14.238,91.239-15.135l25.369-35.46
						C513.19,352.53,506.415,311.68,477.039,290.665z M439.898,356.059l-14.434,20.176c-11.955,16.711-35.197,20.564-51.908,8.609
						l-63.042-45.102c-16.714-11.957-20.568-35.196-8.613-51.908l14.434-20.176c11.957-16.711,35.197-20.567,51.91-8.61
						l63.042,45.103C447.998,316.105,451.855,339.348,439.898,356.059z"/>
				</g>
			</g>
		</g>
	</g>
</g>
<g id="Layer_2">
	<path fill="#FFBA00" stroke="#F1C754" stroke-width="11" d="M375.976,337.206c-4.731,6.612-13.689,8.611-20.055,4.058
		L126.859,177.387c-6.365-4.554-7.782-13.975-3.05-20.587l12.259-17.136c4.731-6.613,13.958-8.111,20.324-3.557l229.061,163.877
		c6.366,4.554,7.514,13.473,2.782,20.085L375.976,337.206z"/>
	<path fill="#FFBA00" stroke="#F1C754" stroke-width="11" d="M384.919,300.958c6.504,4.654,7.333,13.497,2.68,20.002l-12.542,17.53
		c-4.652,6.504-13.167,8.4-19.671,3.748L126.83,178.724c-6.504-4.654-8.593-14.135-3.94-20.639l12.542-17.531
		c4.654-6.505,14.427-7.764,20.932-3.11L384.919,300.958z"/>
</g>
<g id="Layer_3">
	<g>
		<path fill="#CB3A19" d="M477.039,290.665c-5.662-3.416-11.29-6.876-16.891-10.366l-16.791-10.467
			c-11.214-6.934-22.337-13.963-33.554-20.78c-11.195-6.841-22.453-13.529-33.816-19.79c-5.692-3.107-11.412-6.105-17.168-8.877
			c-5.763-2.747-11.569-5.276-17.365-7.331c-5.786-2.029-11.622-3.557-17.037-4.019c-2.701-0.22-5.276-0.153-7.601,0.267
			c-1.163,0.209-2.269,0.497-3.311,0.876c-1.294,0.458-2.561,0.971-3.877,1.558c-5.244,2.335-10.42,5.567-16.076,9.092
			c-1.426,0.882-2.897,1.786-4.482,2.7c-1.6,0.913-3.278,1.844-5.371,2.75c-1.062,0.449-2.215,0.9-3.663,1.281
			c-1.446,0.363-3.194,0.72-5.577,0.572c-1.178-0.08-2.535-0.323-3.917-0.836c-1.378-0.503-2.758-1.291-3.886-2.224
			c-1.137-0.93-2.029-1.968-2.705-2.945c-0.678-0.982-1.156-1.91-1.529-2.763c-0.739-1.714-1.091-3.143-1.354-4.444
			c-0.253-1.296-0.39-2.459-0.483-3.567c-0.18-2.206-0.177-4.175-0.122-6.082c0.121-3.796,0.476-7.315,0.896-10.783
			c0.212-1.731,0.446-3.441,0.695-5.138l0.386-2.48l0.337-2.275c0.413-2.989,0.697-5.936,0.808-8.807
			c0.229-5.753-0.321-11.129-1.793-16.062c-1.464-4.94-3.959-9.551-7.352-14.003c-3.396-4.431-7.549-8.719-12.111-12.809
			c-4.558-4.105-9.525-8.003-14.595-11.875c-10.172-7.731-20.97-15.063-31.765-22.462l-32.694-22.051l-16.384-11.08l-4.057-2.773
			c-1.24-0.842-2.574-1.718-3.873-2.541c-2.617-1.662-5.279-3.224-7.978-4.68c-5.383-2.937-10.942-5.421-16.631-7.23
			c-5.676-1.847-11.493-2.997-17.319-3.253c-5.827-0.295-11.66,0.377-17.343,1.954c-5.688,1.571-11.192,4.113-16.424,7.326
			c-5.216,3.241-10.183,7.122-14.85,11.442c-4.676,4.318-9.021,9.09-13.268,14.01c-4.234,4.937-8.212,10.141-12.22,15.367
			c-3.975,5.246-7.886,10.588-12.005,15.771c6-11.775,11.855-23.631,19.097-34.925c3.576-5.671,7.56-11.137,11.977-16.349
			c4.422-5.202,9.321-10.148,14.918-14.437c5.565-4.314,11.836-7.968,18.653-10.561c6.807-2.609,14.153-4.028,21.496-4.278
			c7.353-0.234,14.663,0.717,21.654,2.447c6.992,1.768,13.673,4.307,20.044,7.301c3.18,1.512,6.281,3.145,9.312,4.867
			c1.527,0.868,2.991,1.729,4.522,2.664l4.225,2.61l16.764,10.422l16.79,10.438l16.759,10.595
			c11.182,7.116,22.285,14.441,33.256,22.426c5.482,4.005,10.874,8.263,16.15,12.921c5.25,4.68,10.432,9.777,14.978,15.865
			c4.551,6.035,8.453,13.186,10.66,20.916c2.251,7.726,2.698,15.671,2.268,23.053c-0.22,3.707-0.65,7.314-1.21,10.837l-0.439,2.602
			l-0.426,2.392c-0.279,1.553-0.54,3.099-0.776,4.629c-0.471,3.055-0.857,6.087-1.032,8.871c-0.087,1.381-0.116,2.71-0.063,3.79
			c0.025,0.534,0.071,1.01,0.118,1.332c0.042,0.315,0.105,0.491,0.014,0.292c-0.093-0.16-0.394-0.864-1.417-1.71
			c-0.496-0.404-1.15-0.779-1.758-0.995c-0.611-0.223-1.153-0.301-1.511-0.323c-0.736-0.028-0.835,0.077-0.688,0.041
			c0.149-0.02,0.549-0.133,1.01-0.306c0.949-0.355,2.193-0.953,3.478-1.626c1.297-0.68,2.664-1.444,4.07-2.241
			c5.65-3.206,11.801-6.79,18.719-9.556c1.719-0.687,3.534-1.342,5.369-1.906c2.088-0.644,4.207-1.083,6.3-1.356
			c4.195-0.547,8.259-0.411,12.1,0.074c7.696,0.997,14.574,3.335,21.07,6.002c6.495,2.684,12.604,5.814,18.523,9.144
			c5.925,3.315,11.647,6.85,17.254,10.508c11.224,7.294,21.984,15.084,32.568,23.055c10.555,8.011,20.946,16.18,31.128,24.611
			c5.108,4.189,10.195,8.401,15.214,12.7C467.102,281.944,472.096,286.272,477.039,290.665z"/>
	</g>
</g>
</svg>
