<?xml version="1.0" encoding="utf-8"?>
<!-- Generator: Adobe Illustrator 15.0.2, SVG Export Plug-In . SVG Version: 6.00 Build 0)  -->
<!DOCTYPE svg PUBLIC "-//W3C//DTD SVG 1.0//EN" "http://www.w3.org/TR/2001/REC-SVG-20010904/DTD/svg10.dtd">
<svg version="1.0" id="Layer_1" xmlns="http://www.w3.org/2000/svg" xmlns:xlink="http://www.w3.org/1999/xlink" x="0px" y="0px"
	 width="512px" height="512px" viewBox="0 0 512 512" enable-background="new 0 0 512 512" xml:space="preserve">
<polygon fill="#F1C754" points="72.598,495.711 104.899,468.127 288.781,311.105 315.472,288.314 373.476,238.783 169.122,205.269 
	"/>
<path fill="#FFBA00" d="M428.812,178.952c-18.816,70.75-95.479,111.776-171.23,91.632
	c-75.754-20.147-121.911-93.833-103.096-164.585c18.814-70.752,95.477-111.778,171.23-91.633
	C401.473,34.511,447.627,108.198,428.812,178.952z"/>
<g>
	<path fill="#CB3A19" d="M173.537,66.312c-0.151,4.115,0.354,8.211,0.952,12.271c0.613,4.061,1.441,8.085,2.355,12.075
		c0.931,3.988,1.994,7.938,3.141,11.849c1.173,3.906,2.434,7.773,3.797,11.591c5.471,15.254,12.623,29.762,21.642,42.507
		c4.558,6.329,9.52,12.254,15.093,17.379c1.378,1.294,2.785,2.546,4.225,3.748c0.735,0.608,1.42,1.166,2.215,1.786l2.365,1.823
		c1.578,1.199,3.157,2.361,4.72,3.453c1.556,1.087,3.092,2.143,4.516,2.985c0.702,0.417,1.383,0.788,1.909,1.028
		c0.259,0.119,0.484,0.208,0.592,0.237c0.104,0.034,0.118-0.004-0.265-0.107c-0.2-0.049-0.512-0.121-1.069-0.152
		c-0.543-0.021-1.413-0.032-2.659,0.321c-1.231,0.327-2.914,1.224-4.085,2.497c-1.189,1.252-1.771,2.567-2.044,3.418
		c-0.279,0.888-0.33,1.432-0.363,1.806c-0.027,0.377-0.02,0.57-0.019,0.69c0.007,0.229-0.004,0.159-0.055,0.01
		c-0.1-0.322-0.329-0.971-0.598-1.666c-0.275-0.705-0.609-1.483-0.975-2.286c-0.734-1.61-1.589-3.313-2.49-5.033
		c-1.803-3.457-3.827-6.964-5.84-10.604c-1.009-1.83-2.03-3.671-3.084-5.669c-0.532-1.016-1.062-2.031-1.664-3.339
		c-0.152-0.333-0.311-0.691-0.484-1.112c-0.176-0.438-0.362-0.894-0.603-1.662c-0.119-0.398-0.255-0.843-0.406-1.638
		c-0.038-0.207-0.072-0.405-0.11-0.7c-0.032-0.237-0.068-0.595-0.086-0.966c-0.017-0.408-0.03-0.846,0.019-1.505
		c0.044-0.596,0.156-1.477,0.481-2.546c0.375-1.185,0.998-2.688,2.495-4.356c1.438-1.633,3.721-2.91,5.565-3.333
		c1.822-0.441,3.138-0.394,4.129-0.285c0.867,0.096,1.642,0.293,2.092,0.432c0.592,0.183,0.855,0.292,1.245,0.453
		c0.297,0.127,0.558,0.252,0.793,0.372l0.567,0.308l0.44,0.264c0.989,0.631,1.411,0.995,1.842,1.341
		c0.407,0.337,0.723,0.618,1.014,0.883c0.576,0.527,1.047,0.988,1.498,1.438c0.89,0.891,1.678,1.723,2.447,2.548l1.13,1.227
		l1.031,1.148l2.043,2.266c2.727,3.003,5.491,5.972,8.287,8.879c5.616,5.792,11.239,11.503,17.168,16.787
		c11.739,10.704,24.38,20.017,38.231,27.384c13.848,7.378,28.938,12.671,44.741,16.485c3.947,0.969,7.907,1.843,11.874,2.545
		c3.964,0.746,7.939,1.266,11.899,1.551c3.955,0.244,7.904,0.212,11.736-0.546c1.926-0.354,3.816-0.915,5.697-1.676
		c1.876-0.754,3.764-1.725,5.794-2.452l0.469,0.884c-0.826,0.611-1.612,1.279-2.413,1.958c-0.809,0.665-1.634,1.338-2.502,1.985
		c-1.73,1.301-3.64,2.476-5.662,3.433c-4.07,1.88-8.451,2.938-12.79,3.574c-8.714,1.25-17.379,1.028-25.913,0.445
		c-17.062-1.199-34.356-4.891-50.652-11.654c-8.159-3.332-16.002-7.467-23.479-12.108c-7.466-4.665-14.519-9.901-21.212-15.449
		c-3.329-2.796-6.571-5.669-9.739-8.599c-3.176-2.92-6.263-5.913-9.254-8.977c-3.001-3.055-5.938-6.143-8.835-9.266l-2.159-2.344
		l-2.033-2.24c-0.641-0.704-1.277-1.386-1.85-1.973c-0.282-0.288-0.553-0.555-0.741-0.732l-0.157-0.146
		c0.031,0.015,0.043,0.057,0.593,0.41l0.273,0.163l0.396,0.214c0.177,0.091,0.379,0.188,0.617,0.289
		c0.329,0.138,0.532,0.22,1.062,0.386c0.389,0.118,1.1,0.303,1.903,0.39c0.927,0.103,2.177,0.15,3.936-0.275
		c1.783-0.405,4.002-1.654,5.4-3.235c1.452-1.622,2.048-3.063,2.402-4.188c0.308-1.007,0.408-1.824,0.448-2.354
		c0.043-0.595,0.032-0.967,0.018-1.31c-0.015-0.307-0.046-0.6-0.069-0.772l-0.08-0.508c-0.104-0.539-0.171-0.734-0.214-0.883
		c-0.088-0.271-0.087-0.242-0.068-0.198l0.134,0.319c0.258,0.585,0.673,1.423,1.099,2.253c0.867,1.688,1.842,3.497,2.821,5.318
		c1.967,3.662,3.929,7.456,5.863,11.429c0.963,1.997,1.914,4.041,2.834,6.247c0.459,1.106,0.912,2.253,1.351,3.501
		c0.441,1.259,0.859,2.59,1.226,4.295c0.179,0.864,0.353,1.821,0.444,3.086c0.042,0.639,0.065,1.352,0.007,2.248
		c-0.065,0.893-0.189,1.955-0.624,3.339c-0.426,1.347-1.253,3.134-2.799,4.767c-1.527,1.654-3.677,2.817-5.407,3.289
		c-1.746,0.497-3.141,0.529-4.203,0.484c-1.077-0.055-1.904-0.206-2.612-0.366c-1.398-0.33-2.37-0.713-3.226-1.076
		c-0.854-0.368-1.565-0.73-2.229-1.09c-1.319-0.719-2.421-1.423-3.47-2.126c-4.118-2.789-7.42-5.632-10.709-8.529l-2.422-2.176
		c-0.793-0.721-1.678-1.528-2.494-2.304c-1.654-1.577-3.256-3.197-4.802-4.86c-6.114-6.718-11.405-14.008-15.783-21.702
		c-2.199-3.841-4.206-7.761-6.039-11.737c-1.802-3.992-3.427-8.039-4.898-12.122c-1.486-4.077-2.742-8.221-3.881-12.376
		c-1.145-4.154-2.116-8.343-2.92-12.555c-0.823-4.207-1.492-8.433-1.981-12.676c-0.514-4.238-0.847-8.492-1.009-12.748
		c-0.17-4.254-0.137-8.518,0.134-12.767c0.308-4.237,0.759-8.517,2.034-12.608L173.537,66.312z"/>
</g>
<g>
	<path fill="#BC8E26" d="M96.563,474.588l10.166-8.639l10.116-8.696l20.214-17.414c13.446-11.646,26.824-23.368,40.207-35.087
		c13.332-11.779,26.709-23.504,39.984-35.349l19.944-17.73c3.324-2.954,6.614-5.949,9.846-9.013
		c1.619-1.527,3.215-3.082,4.801-4.649c1.596-1.555,3.181-3.122,4.737-4.724c12.559-12.684,24.209-26.431,36.803-39.073
		c6.291-6.327,12.784-12.42,19.531-18.214c1.689-1.444,3.382-2.888,5.094-4.306l2.677-2.208c0.919-0.746,1.846-1.477,2.75-2.169
		l2.296-1.775c0.077-0.054,0.147-0.131-0.143,0.179c-0.077,0.085-0.192,0.214-0.352,0.411c-0.195,0.251-0.391,0.48-0.806,1.169
		c-0.166,0.289-0.445,0.784-0.709,1.468c-0.266,0.729-0.617,1.687-0.702,3.418c-0.104,1.53,0.37,4.218,1.679,6.113
		c1.174,1.847,2.74,2.952,3.625,3.45c1.054,0.59,1.654,0.766,2.196,0.939c0.521,0.15,0.877,0.221,1.159,0.268
		c0.305,0.049,0.471,0.067,0.681,0.087l0.408,0.025c0.425,0.013,0.56-0.006,0.633-0.012c0.121-0.017,0.006-0.021-0.148-0.012
		c-0.692,0.041-1.862,0.181-2.945,0.304l-3.408,0.381c-4.609,0.532-9.279,0.756-13.894,0.934c-4.625,0.134-9.23,0.089-13.811-0.065
		l-3.659-0.153c-1.282-0.069-2.538-0.176-3.776-0.309c-2.476-0.269-4.879-0.637-7.23-1.116c-4.699-0.952-9.228-2.119-13.641-3.534
		c-8.836-2.751-17.258-6.238-25.471-10.06c-8.193-3.865-16.173-8.109-23.809-12.964l0.381-0.925
		c8.815,1.907,17.506,3.893,26.175,5.688c8.654,1.813,17.302,3.408,25.813,4.597c4.262,0.543,8.479,1.044,12.602,1.229
		c2.06,0.085,4.085,0.147,6.051,0.108c0.982-0.021,1.949-0.063,2.891-0.134l1.443-0.128l1.565-0.193
		c4.306-0.485,8.582-1.045,12.819-1.66c4.248-0.566,8.419-1.332,12.615-2.052l3.19-0.588c1.117-0.203,2.144-0.413,3.658-0.635
		c0.398-0.055,0.837-0.113,1.513-0.16c0.351-0.02,0.764-0.045,1.466-0.02l0.617,0.04c0.278,0.027,0.514,0.053,0.887,0.114
		c0.351,0.059,0.774,0.143,1.362,0.312c0.608,0.194,1.275,0.394,2.389,1.02c0.947,0.529,2.564,1.684,3.779,3.586
		c1.341,1.956,1.84,4.712,1.728,6.312c-0.086,1.801-0.459,2.826-0.749,3.619c-0.29,0.748-0.599,1.306-0.802,1.653
		c-0.484,0.81-0.766,1.149-1.047,1.509c-0.248,0.305-0.455,0.537-0.628,0.725c-0.671,0.713-1.016,1.008-1.355,1.322
		c-0.644,0.577-1.107,0.967-1.569,1.359l-1.293,1.094l-2.412,2.055l-2.411,2.104c-1.669,1.47-3.358,2.914-5.051,4.357
		c-6.779,5.756-13.812,11.215-21.048,16.437c-14.459,10.459-29.86,19.812-44.354,30.23c-1.825,1.285-3.622,2.605-5.408,3.938
		c-1.796,1.32-3.581,2.653-5.344,4.013c-3.532,2.713-7.005,5.493-10.444,8.313L220,372.625
		c-13.778,11.256-27.453,22.632-41.174,33.954c-13.671,11.382-27.344,22.76-40.952,34.216l-20.365,17.236l-10.174,8.629
		l-10.124,8.688L96.563,474.588z"/>
</g>
</svg>
