<?xml version="1.0" encoding="utf-8"?>
<!-- Generator: Adobe Illustrator 15.0.2, SVG Export Plug-In . SVG Version: 6.00 Build 0)  -->
<!DOCTYPE svg PUBLIC "-//W3C//DTD SVG 1.0//EN" "http://www.w3.org/TR/2001/REC-SVG-20010904/DTD/svg10.dtd">
<svg version="1.0" id="Layer_1" xmlns="http://www.w3.org/2000/svg" xmlns:xlink="http://www.w3.org/1999/xlink" x="0px" y="0px"
	 width="512px" height="512px" viewBox="0 0 512 512" enable-background="new 0 0 512 512" xml:space="preserve">
<ellipse fill="#FFBA00" cx="252.575" cy="245.891" rx="242.816" ry="208.064"/>
<g>
	<path fill="#BC8E26" d="M88.894,169.16c2.602,0.343,5.263,0.235,7.913,0.22l7.965-0.201c5.31-0.146,10.614-0.25,15.917-0.308
		c10.603-0.072,21.194,0.075,31.778,0.53c10.585,0.431,21.161,1.183,31.741,2.287c10.595,1.119,21.127,2.555,31.863,4.679
		l0.063,0.998c-2.625,0.895-5.289,1.566-7.957,2.156c-2.669,0.598-5.347,1.077-8.027,1.518c-5.361,0.854-10.732,1.427-16.103,1.836
		c-10.741,0.794-21.48,0.887-32.197,0.375c-10.717-0.503-21.417-1.582-32.066-3.394c-5.322-0.938-10.634-2.044-15.905-3.499
		c-2.634-0.738-5.261-1.539-7.857-2.514c-1.3-0.479-2.588-1.014-3.862-1.606c-1.26-0.613-2.547-1.254-3.674-2.164L88.894,169.16z"/>
</g>
<g>
	<path fill="#BC8E26" d="M259.705,174.662c2.622,0.118,5.264-0.22,7.902-0.464l7.918-0.889c5.277-0.604,10.553-1.166,15.831-1.682
		c10.557-0.988,21.122-1.756,31.706-2.218c10.583-0.485,21.184-0.649,31.819-0.463c10.652,0.199,21.27,0.721,32.148,1.909
		l0.15,0.989c-2.538,1.118-5.135,2.017-7.741,2.835c-2.607,0.827-5.234,1.535-7.866,2.206c-5.268,1.314-10.569,2.349-15.884,3.22
		c-10.633,1.719-21.324,2.739-32.045,3.155c-10.721,0.425-21.474,0.274-32.24-0.611c-5.383-0.475-10.771-1.117-16.148-2.111
		c-2.688-0.508-5.374-1.079-8.045-1.826c-1.336-0.365-2.666-0.787-3.986-1.267c-1.309-0.502-2.646-1.029-3.848-1.838
		L259.705,174.662z"/>
</g>
<path fill="none" stroke="#BC8E26" stroke-miterlimit="10" d="M205.241,178.379"/>
<path fill="#BC8E26" d="M173.341,182.121c-0.615,9.435-12.227,17.482-25.847,16.595c-13.619-0.888-24.089-10.375-23.474-19.809
	L173.341,182.121z"/>
<path fill="#BC8E26" d="M354.36,180.382c0.43,9.445-10.226,18.725-23.859,19.345c-13.633,0.619-25.086-7.655-25.516-17.1
	L354.36,180.382z"/>
<g>
	<path fill="#CB3A19" d="M139.222,271.812c4.679,0.978,9.248,2.184,13.783,3.461c4.541,1.266,9.021,2.654,13.485,4.075
		c8.917,2.869,17.685,6.044,26.388,9.354c17.376,6.681,34.362,14.168,51.067,22.234c16.698,8.081,33.102,16.771,49.119,26.258
		c7.991,4.777,15.919,9.688,23.694,14.913c3.881,2.627,7.746,5.284,11.552,8.067c3.811,2.771,7.586,5.614,11.25,8.688l-0.436,0.9
		c-4.684-0.97-9.256-2.17-13.792-3.442c-4.543-1.261-9.024-2.647-13.491-4.064c-8.919-2.863-17.687-6.04-26.39-9.35
		c-17.373-6.688-34.359-14.174-51.051-22.268c-16.685-8.108-33.089-16.797-49.103-26.291c-7.992-4.778-15.918-9.691-23.696-14.91
		c-3.883-2.622-7.75-5.276-11.558-8.055c-3.812-2.768-7.591-5.605-11.259-8.671L139.222,271.812z"/>
</g>
<g>
	<path fill="#CB3A19" d="M166.771,373.034c2.392-3.42,4.942-6.643,7.542-9.805c2.592-3.172,5.271-6.236,7.972-9.272
		c5.42-6.052,11.054-11.838,16.782-17.508c11.499-11.286,23.56-21.875,36.025-31.963c12.476-10.075,25.376-19.624,38.832-28.484
		c6.753-4.399,13.598-8.685,20.662-12.698c3.542-1.994,7.105-3.962,10.756-5.821c3.643-1.87,7.337-3.677,11.19-5.284l0.629,0.778
		c-2.387,3.427-4.933,6.655-7.53,9.82c-2.589,3.176-5.266,6.243-7.964,9.283c-5.416,6.057-11.051,11.841-16.778,17.511
		c-11.505,11.279-23.564,21.87-36.049,31.934c-12.495,10.052-25.394,19.603-38.856,28.456c-6.752,4.399-13.599,8.683-20.659,12.701
		c-3.539,1.999-7.101,3.969-10.749,5.832c-3.64,1.873-7.329,3.685-11.178,5.3L166.771,373.034z"/>
</g>
<path fill="#F1C754" d="M17.745,192.782c0,0,49.565-54.334,77.151-58.932s32.184-27.012,37.356-31.035s24.712,8.621,26.437,19.541
	s8.046,8.045,34.483-2.874s28.622-28.161,48.793-24.138s51.206,5.172,59.827,20.689s-10.896,33.334,27.886,10.92
	s61.769-19.54,75.562-4.598s76.141,53.428,77.864,58.025s-11.771-51.704-21.542-68.371s-45.798-52.923-44.828-74.184
	C418.46,0,428.229-1.207,392.022,19.483s-33.333,27.012-40.229,10.345S335.126,5.115,335.126,5.115s-4.95,9.196-18.279,14.368
	s-42.226,8.045-64.272-0.575c-22.046-8.621-72.046-10.345-72.046-10.345s15.517,4.023-18.966,25.862S103.517,38.448,54.667,94.77
	S19.904,203.438,17.745,192.782z"/>
<g>
	<path fill="#BC8E26" d="M131.967,102.406c0.649-0.538,1.56-0.823,2.37-0.91c0.831-0.089,1.65-0.041,2.444,0.081
		c1.59,0.242,3.098,0.74,4.553,1.332c2.906,1.201,5.606,2.811,8.132,4.665c2.516,1.869,4.854,4.009,6.866,6.511
		c1,1.255,1.917,2.605,2.663,4.096c0.372,0.746,0.699,1.527,0.958,2.349c0.129,0.411,0.245,0.831,0.332,1.262l0.232,1.104
		c0.307,1.349,0.775,2.658,1.434,3.39c0.325,0.373,0.667,0.599,1.095,0.753c0.424,0.159,0.958,0.232,1.556,0.231
		c1.203-0.006,2.587-0.297,3.958-0.675c1.378-0.384,2.773-0.863,4.166-1.382c5.577-2.11,11.137-4.654,16.712-7.113
		c1.404-0.627,2.784-1.228,4.138-1.863c1.299-0.613,2.633-1.287,3.912-1.989c2.572-1.407,5.048-2.967,7.425-4.676
		c2.378-1.709,4.659-3.558,6.909-5.523c2.253-1.967,4.469-4.049,6.933-6.112c2.455-2.045,5.243-4.115,8.616-5.559
		c3.36-1.458,7.18-2.062,10.726-1.925c0.894,0.021,1.767,0.101,2.637,0.189l1.288,0.169L243.229,91
		c1.477,0.237,2.923,0.444,4.417,0.647c2.97,0.399,5.981,0.754,9.015,1.117c6.069,0.738,12.237,1.453,18.47,2.659
		c3.117,0.603,6.255,1.313,9.412,2.23c3.151,0.927,6.341,2.023,9.484,3.591c3.135,1.553,6.285,3.538,9.092,6.299
		c2.804,2.731,5.152,6.407,6.334,10.269c1.218,3.863,1.413,7.759,1.34,11.104c-0.03,1.655-0.123,3.257-0.103,4.355
		c-0.003,0.516,0.084,0.95,0.039,0.677c-0.037-0.135-0.126-0.533-0.552-1.145c-0.402-0.613-1.27-1.299-1.938-1.551
		c-0.681-0.275-1.074-0.285-1.241-0.296c-0.159-0.007-0.144,0-0.05-0.02c0.2-0.03,0.677-0.148,1.182-0.316
		c1.043-0.344,2.293-0.872,3.542-1.447c2.523-1.167,5.141-2.55,7.743-3.971c2.629-1.428,5.173-2.91,7.879-4.429
		c1.305-0.723,2.793-1.522,4.162-2.237c1.403-0.721,2.832-1.399,4.262-2.078c5.747-2.66,11.753-4.893,17.994-6.462
		c6.235-1.56,12.703-2.494,19.2-2.459c6.484,0.059,13.025,1.139,18.938,3.692c2.957,1.255,5.73,2.886,8.264,4.791
		c1.259,0.964,2.47,1.981,3.616,3.062c1.149,1.055,2.222,2.298,3.224,3.335c4.215,4.22,9.055,7.972,13.86,11.678
		c4.838,3.688,9.771,7.267,14.733,10.806c9.928,7.079,19.994,13.975,29.995,20.981c4.988,3.526,10.003,6.999,14.812,10.84
		c0.598,0.487,1.189,0.984,1.769,1.515c0.289,0.266,0.574,0.54,0.854,0.842c0.263,0.297,0.59,0.64,0.776,1.146l0.022,0.054
		c0.479-0.501-1.864,0.148-1.179,0.293l-0.021-0.187l-0.089-0.537l-0.218-1.107l-0.483-2.226c-0.67-2.968-1.389-5.931-2.129-8.887
		c-3.021-11.81-6.314-23.562-10.163-35.123c-1.951-5.766-4.001-11.519-6.602-16.999c-1.284-2.746-2.901-5.296-4.638-7.796
		c-1.732-2.497-3.559-4.937-5.406-7.36c-7.408-9.683-15.188-19.114-22.143-29.177c-3.471-5.03-6.773-10.2-9.522-15.689
		c-1.365-2.746-2.604-5.569-3.526-8.515c-0.916-2.939-1.542-6.024-1.421-9.166l0.998,0.046c-0.137,2.971,0.439,5.965,1.316,8.844
		c0.885,2.884,2.073,5.683,3.42,8.4c2.709,5.434,5.984,10.583,9.434,15.598c6.928,10.025,14.63,19.497,22.106,29.152
		c1.862,2.42,3.705,4.859,5.463,7.368c1.755,2.5,3.429,5.115,4.744,7.897c2.659,5.539,4.738,11.299,6.726,17.078
		c3.914,11.582,7.265,23.333,10.347,35.154c0.771,2.955,1.527,5.915,2.233,8.892l0.513,2.241l0.236,1.135l0.104,0.591
		c0.014,0.113,0.031,0.191,0.036,0.382c0.716,0.279-1.73,0.972-1.295,0.332c-0.047-0.088-0.071-0.151-0.095-0.207
		c-0.159-0.422-0.786-0.996-1.307-1.473c-0.551-0.494-1.133-0.973-1.723-1.442c-4.771-3.726-9.835-7.153-14.849-10.614
		c-10.066-6.887-20.214-13.673-30.239-20.654c-5.012-3.492-9.999-7.025-14.908-10.682c-4.89-3.689-9.775-7.374-14.244-11.744
		c-1.117-1.156-2.093-2.18-3.219-3.162c-1.102-0.982-2.263-1.893-3.498-2.687c-2.44-1.632-5.125-2.847-7.899-3.686
		c-5.586-1.64-11.503-1.555-17.149-0.421c-5.671,1.112-11.131,3.171-16.426,5.579c-5.301,2.406-10.466,5.16-15.597,8.025
		c-1.286,0.712-2.561,1.448-3.839,2.183c-1.312,0.74-2.493,1.419-3.834,2.217c-2.584,1.521-5.331,3.082-8.055,4.583
		c-2.75,1.507-5.524,2.991-8.536,4.396c-1.521,0.7-3.076,1.385-4.929,2.007c-0.943,0.306-1.938,0.61-3.246,0.822
		c-0.659,0.1-1.405,0.18-2.327,0.16c-0.928-0.032-2.09-0.151-3.478-0.718c-1.377-0.535-2.866-1.714-3.707-2.951
		c-0.868-1.234-1.24-2.355-1.467-3.228c-0.417-1.756-0.393-2.86-0.41-3.867c0.017-1.953,0.148-3.397,0.193-4.792
		c0.113-2.738-0.034-5.025-0.615-7.013c-0.567-1.994-1.497-3.672-2.984-5.276c-1.48-1.595-3.475-3.04-5.755-4.276
		c-4.577-2.494-10.085-4.287-15.748-5.708c-5.688-1.421-11.588-2.581-17.579-3.7c-2.997-0.565-6.019-1.128-9.065-1.749
		c-1.514-0.31-3.071-0.641-4.588-0.991l-1.04-0.236l-0.97-0.196c-0.643-0.108-1.285-0.214-1.916-0.271
		c-2.537-0.258-4.914-0.046-7.228,0.768c-2.318,0.807-4.624,2.226-6.959,3.938c-4.659,3.46-9.515,7.658-14.884,11.038
		c-2.678,1.709-5.466,3.258-8.328,4.625c-1.438,0.688-2.865,1.315-4.362,1.923c-1.443,0.582-2.894,1.124-4.307,1.667
		c-5.716,2.164-11.391,4.412-17.344,6.312c-1.494,0.468-3.013,0.904-4.596,1.255c-1.588,0.338-3.231,0.634-5.085,0.552
		c-0.924-0.051-1.923-0.212-2.909-0.646c-0.985-0.422-1.893-1.157-2.506-1.987c-1.242-1.689-1.602-3.426-1.897-5.043
		c-0.142-0.879-0.19-1.466-0.36-2.113c-0.16-0.645-0.383-1.291-0.653-1.929c-0.542-1.276-1.271-2.516-2.102-3.699
		c-1.669-2.37-3.749-4.512-6.005-6.438c-2.262-1.92-4.733-3.637-7.388-4.958c-1.327-0.652-2.706-1.213-4.118-1.53
		c-1.395-0.302-2.898-0.413-4.002,0.35L131.967,102.406z"/>
</g>
</svg>
