<?xml version="1.0" encoding="utf-8"?>
<!-- Generator: Adobe Illustrator 15.0.2, SVG Export Plug-In . SVG Version: 6.00 Build 0)  -->
<!DOCTYPE svg PUBLIC "-//W3C//DTD SVG 1.0//EN" "http://www.w3.org/TR/2001/REC-SVG-20010904/DTD/svg10.dtd">
<svg version="1.0" xmlns="http://www.w3.org/2000/svg" xmlns:xlink="http://www.w3.org/1999/xlink" x="0px" y="0px" width="512px"
	 height="512px" viewBox="0 0 512 512" enable-background="new 0 0 512 512" xml:space="preserve">
<g id="Layer_1">
	<path fill="#FFBA00" d="M7.558,248.17c0-77.458,34.927-54.276,248.553-54.276c213.628,0,240.086-19.259,240.086,60.875
		c0,75.503-54.408,65.664-244.019,65.693C62.565,320.492,7.558,325.628,7.558,248.17z"/>
</g>
<g id="Layer_2">
	<path fill="#F1C754" d="M15.586,275.229c-2.299-13.218-1.149-66.667,14.942-70.115s64.367-6.322,83.908-4.598
		s75.288-1.09,85.632-0.515s1.724,24.16-21.264,32.699s-90.102-2.424-97.701,9.77C66.736,265.525,17.886,288.447,15.586,275.229z"/>
</g>
<g id="Layer_3">
	<g>
		<path fill="#BC8E26" d="M31.244,302.349c3.443,1.86,7.048,3.303,10.756,4.451c3.696,1.172,7.465,2.108,11.271,2.87
			c7.619,1.499,15.332,2.549,23.096,3.214c15.52,1.39,31.152,1.832,46.8,1.973c31.312,0.296,62.699-0.665,94.259-0.797
			c31.537-0.052,62.995,0.361,94.489,1.252c15.742,0.442,31.483,0.99,47.225,1.7l47.212,2.401l0.062,0.998
			c-7.879,1.054-15.748,1.579-23.624,2.173c-7.875,0.555-15.751,0.979-23.626,1.438c-15.75,0.819-31.5,1.39-47.25,1.833
			c-31.489,0.897-63.014,1.155-94.46,1.085c-31.416,0.026-63.032,0.142-94.672-1.909c-15.811-1.084-31.651-2.631-47.335-5.544
			c-7.825-1.518-15.643-3.242-23.251-5.765c-7.568-2.519-15.133-5.642-21.493-10.533L31.244,302.349z"/>
	</g>
</g>
<g id="Layer_4">
	<g>
		<path fill="#CB3A19" d="M125.677,278.682c5.171-3.473,11.039-5.804,16.958-7.644c5.935-1.857,12.012-3.149,18.097-4.276
			c12.197-2.138,24.495-3.407,36.785-4.251c24.586-1.742,49.161-2.006,73.66-2.454l18.365-0.312
			c6.117-0.108,12.229-0.25,18.336-0.445c6.106-0.19,12.21-0.348,18.303-0.637c6.094-0.271,12.174-0.666,18.248-1.076
			c6.071-0.434,12.127-0.999,18.15-1.752c6.028-0.708,12.029-1.612,17.947-2.853c5.925-1.204,11.783-2.733,17.411-4.869
			c2.814-1.062,5.568-2.29,8.188-3.761c2.635-1.447,5.122-3.164,7.377-5.181l0.717,0.696c-4.088,4.762-9.502,8.225-15.092,10.983
			c-5.633,2.74-11.556,4.785-17.538,6.493c-5.999,1.661-12.074,2.975-18.172,4.088c-6.106,1.064-12.238,1.91-18.376,2.635
			c-6.136,0.748-12.289,1.251-18.438,1.71c-6.15,0.44-12.299,0.842-18.448,1.104c-6.15,0.253-12.298,0.452-18.441,0.617
			c-6.144,0.17-12.284,0.309-18.423,0.353c-24.549,0.309-49.048,0.199-73.467,0.84c-12.202,0.398-24.398,0.904-36.487,2.251
			c-6.048,0.641-12.057,1.555-17.985,2.819c-2.963,0.638-5.894,1.409-8.773,2.34c-2.883,0.922-5.707,2.024-8.396,3.445
			L125.677,278.682z"/>
	</g>
</g>
</svg>
