<?xml version="1.0" encoding="utf-8"?>
<!-- Generator: Adobe Illustrator 15.0.2, SVG Export Plug-In . SVG Version: 6.00 Build 0)  -->
<!DOCTYPE svg PUBLIC "-//W3C//DTD SVG 1.0//EN" "http://www.w3.org/TR/2001/REC-SVG-20010904/DTD/svg10.dtd">
<svg version="1.0" xmlns="http://www.w3.org/2000/svg" xmlns:xlink="http://www.w3.org/1999/xlink" x="0px" y="0px" width="512px"
	 height="512px" viewBox="0 0 512 512" enable-background="new 0 0 512 512" xml:space="preserve">
<g id="Layer_1">
	<path fill="#FFBA00" d="M326.92,313.994c-6.661-13.837,69.674-112.051,95.53-122.825c25.857-10.774,7.183,15.802,11.493,35.914
		c4.31,20.112,66.798,36.632,68.953-4.311c2.154-40.941-16.52-132.161-33.758-147.963c-17.238-15.802-61.054-25.858-91.221,10.056
		C347.75,120.779,240.01,248.631,240.01,248.631s-65.363,11.492-86.192,45.25c-19.572,31.721-16.52,91.222,17.238,127.134
		c33.758,35.913,104.059,41.333,146.938,5.746C357.806,393.721,345.597,352.779,326.92,313.994z"/>
</g>
<g id="Layer_2">
	<path fill="#FFBA00" d="M121.576,332.715c9.128-45.082,33.365-73.266,69.463-88.179c15.78-6.518-56.067-185.173-79.962-195.159
		c-23.896-9.984-62.845,23.995-82.814,78.314C8.605,181.159,2.788,221.189,14.488,229.889s31.357,10.729,39.014,1.19
		c7.657-9.54,29.373-40.84,29.373-40.84S115.083,364.776,121.576,332.715z"/>
</g>
<g id="Layer_3">
	<path fill="#F1C754" d="M24.782,199.943c0.575-13.218,10.345-58.621,13.793-65.517s35.632-68.08,51.724-73.982
		s27.012,17.661,22.989,30.879s-43.103,68.391-51.149,80.46S24.782,199.943,24.782,199.943z"/>
	<path fill="#F1C754" d="M168.46,297.07c13.458-13.706,49.425-28.161,62.069-29.311s45.977-41.38,50.575-47.127
		S376.506,95.92,383.402,94.771S269.034,266.609,264.437,272.932s-9.195,36.781-17.241,47.701s-71.839,49.427-84.482,36.782
		S161.171,304.493,168.46,297.07z"/>
	<g>
		<path fill="#BC8E26" d="M193.486,437.368c3.391,1.37,6.912,2.465,10.437,3.489c3.532,1.014,7.094,1.916,10.675,2.719
			c7.166,1.586,14.393,2.854,21.655,3.64c7.259,0.787,14.553,1.106,21.779,0.792c7.221-0.291,14.391-1.232,21.24-3.106
			c6.841-1.868,13.353-4.712,18.999-8.687c1.418-1.002,2.747-2.036,4.081-3.194c1.389-1.191,2.755-2.386,4.113-3.599
			c2.712-2.422,5.362-4.893,7.914-7.433c5.098-5.078,9.828-10.442,13.678-16.235c3.871-5.776,6.758-11.997,8.413-18.486
			c3.351-13.011,1.447-27.014-2.439-40.599c-0.488-1.702-1.009-3.401-1.562-5.095l-1.736-5.141l-3.543-10.514
			c-1.174-3.521-2.346-7.051-3.448-10.686c-0.544-1.823-1.096-3.665-1.541-5.616c-0.442-1.96-0.87-3.987-0.974-6.428
			c-0.041-1.22,0.018-2.584,0.354-4.028c0.325-1.441,0.979-2.891,1.733-4.028c1.546-2.285,3.073-3.564,4.396-4.867
			c2.674-2.504,5.019-4.914,7.286-7.607c1.136-1.345,2.168-2.699,3.309-4.208l3.382-4.418c2.256-2.943,4.54-5.863,6.874-8.745
			l7.015-8.628c2.361-2.857,4.776-5.672,7.191-8.485c2.408-2.818,4.883-5.583,7.38-8.327c2.495-2.746,5.045-5.448,7.714-8.043
			l0.752,0.658c-8.587,11.999-16.667,24.36-24.807,36.636l-6.044,9.245l-3.001,4.631c-0.972,1.518-2.051,3.193-3.181,4.763
			c-2.221,3.173-4.886,6.208-7.453,8.9c-1.252,1.329-2.43,2.618-2.872,3.458c-0.229,0.424-0.307,0.699-0.362,1.065
			c-0.052,0.362-0.06,0.859,0.003,1.48c0.125,1.249,0.512,2.843,0.987,4.453c0.488,1.62,1.021,3.309,1.606,4.999
			c1.169,3.39,2.451,6.824,3.742,10.262l3.92,10.338c0.655,1.703,1.318,3.495,1.941,5.305c0.626,1.805,1.218,3.625,1.78,5.461
			c2.269,7.334,3.87,14.997,4.44,22.898c0.241,3.951,0.208,7.957-0.186,11.956c-0.385,4-1.197,7.979-2.352,11.843
			c-2.307,7.754-6.258,14.868-10.936,21.112c-4.698,6.261-10.097,11.745-15.723,16.8c-2.818,2.526-5.702,4.945-8.624,7.294
			c-1.459,1.172-2.935,2.333-4.41,3.471c-1.516,1.188-3.158,2.351-4.811,3.397c-6.66,4.218-14.045,6.985-21.524,8.646
			c-15.031,3.303-30.321,2.555-45.018,0.129c-7.365-1.232-14.634-2.902-21.759-5.023c-3.564-1.054-7.096-2.205-10.587-3.466
			c-3.488-1.273-6.951-2.609-10.31-4.235L193.486,437.368z"/>
	</g>
</g>
<g id="Layer_4">
	<g>
		<path fill="#CB3A19" d="M188.455,396.287c3.14,5.113,7.578,8.996,12.41,12.072c2.436,1.522,4.972,2.867,7.601,4.002
			c2.615,1.16,5.309,2.136,8.046,2.951c10.945,3.259,22.505,4.277,33.572,3.112c11.027-1.205,21.698-4.681,29.817-10.964
			c4.09-3.085,7.446-6.895,10.046-11.179c1.299-2.146,2.397-4.426,3.283-6.815c0.449-1.203,0.824-2.394,1.194-3.677l0.565-2.021
			l0.52-2.025c1.326-5.424,2.207-10.992,2.701-16.639c0.522-5.644,0.665-11.367,0.516-17.123c-0.278-11.521-1.644-23.159-3.52-34.88
			l-2.909-17.765c-0.942-6.013-1.906-12.079-2.364-18.549c-0.208-3.246-0.31-6.594,0.107-10.269
			c0.216-1.839,0.583-3.775,1.309-5.824c0.179-0.51,0.391-1.03,0.622-1.55l0.377-0.783l0.207-0.394l0.179-0.323
			c0.459-0.808,0.878-1.486,1.311-2.176c3.417-5.357,6.901-10.234,10.437-15.2c7.058-9.87,14.334-19.518,21.673-29.121
			c7.348-9.594,14.793-19.106,22.351-28.532c15.15-18.821,30.488-37.492,47.234-55.061c4.245-4.345,8.563-8.631,13.431-12.478
			c1.226-0.955,2.493-1.876,3.866-2.717c1.398-0.814,2.812-1.65,4.806-1.979c2.003-0.229,3.743,0.294,5.276,0.942
			c1.54,0.669,2.905,1.534,4.188,2.464c2.556,1.875,4.78,4.035,6.869,6.286c2.085,2.256,4.016,4.625,5.853,7.054
			c3.666,4.864,6.956,9.972,9.986,15.217c6.026,10.502,11.198,21.511,14.882,33.053c1.806,5.774,3.302,11.675,3.964,17.721
			c0.319,3.021,0.434,6.078,0.145,9.124c-0.289,3.034-0.963,6.093-2.399,8.852l-0.887-0.463c1.345-2.602,2.011-5.535,2.264-8.481
			c0.251-2.956,0.112-5.946-0.229-8.907c-0.713-5.927-2.22-11.756-4.138-17.426c-1.92-5.674-4.233-11.214-6.814-16.622
			c-2.59-5.403-5.431-10.69-8.578-15.782c-3.14-5.095-6.529-10.036-10.249-14.688c-1.862-2.322-3.807-4.572-5.871-6.68
			c-2.063-2.103-4.246-4.09-6.599-5.711c-1.175-0.805-2.396-1.518-3.637-2.013c-1.23-0.494-2.514-0.757-3.519-0.596
			c-0.992,0.186-2.26,0.879-3.404,1.641c-1.166,0.778-2.307,1.673-3.419,2.614c-4.445,3.802-8.54,8.18-12.533,12.608
			c-3.986,4.45-7.845,9.034-11.638,13.676c-3.769,4.664-7.466,9.39-11.119,14.153c-7.302,9.53-14.436,19.199-21.404,28.987
			c-13.944,19.56-27.499,39.455-40.491,59.561c-3.208,5.01-6.468,10.117-9.284,15.067c-0.338,0.603-0.677,1.226-0.935,1.742
			l-0.063,0.126l-0.021,0.05l-0.049,0.11l-0.096,0.241c-0.062,0.174-0.126,0.354-0.182,0.56c-0.233,0.808-0.401,1.854-0.493,3.007
			c-0.179,2.323-0.037,5.021,0.253,7.771c0.596,5.533,1.72,11.345,2.869,17.188l1.775,8.839l1.678,8.961
			c2.159,12.014,3.979,24.314,4.435,36.881c0.213,6.28,0.116,12.62-0.425,18.974c-0.562,6.35-1.564,12.711-3.104,18.986
			l-0.604,2.348l-0.652,2.328c-0.472,1.607-1.037,3.279-1.664,4.888c-1.256,3.238-2.825,6.388-4.69,9.365
			c-3.717,5.975-8.756,11.112-14.407,15.106c-5.692,3.965-11.978,6.798-18.396,8.617c-6.428,1.812-12.981,2.701-19.474,2.789
			c-12.973,0.166-25.769-2.512-37.285-7.965c-5.734-2.75-11.163-6.217-15.794-10.586c-2.314-2.178-4.409-4.591-6.171-7.213
			c-1.723-2.643-3.168-5.479-4.013-8.443L188.455,396.287z"/>
	</g>
</g>
</svg>
