<?xml version="1.0" encoding="utf-8"?>
<!-- Generator: Adobe Illustrator 15.0.2, SVG Export Plug-In . SVG Version: 6.00 Build 0)  -->
<!DOCTYPE svg PUBLIC "-//W3C//DTD SVG 1.0//EN" "http://www.w3.org/TR/2001/REC-SVG-20010904/DTD/svg10.dtd">
<svg version="1.0" id="Layer_1" xmlns="http://www.w3.org/2000/svg" xmlns:xlink="http://www.w3.org/1999/xlink" x="0px" y="0px"
	 width="512px" height="512px" viewBox="0 0 512 512" enable-background="new 0 0 512 512" xml:space="preserve">
<ellipse fill="#FFBA00" cx="252.575" cy="245.891" rx="242.816" ry="208.064"/>
<g>
	<path fill="#BC8E26" d="M75.404,178.281c2.987,0.864,6.096,1.473,9.147,2.164l9.177,1.976c6.104,1.31,12.2,2.554,18.258,3.8
		c12.126,2.401,24.211,4.75,36.094,6.018c2.948,0.33,5.947,0.531,8.775,0.641c2.733,0.103,5.622-0.03,8.484-0.215
		c5.748-0.462,11.628-1.349,17.585-2.514c5.964-1.138,12.031-2.47,18.268-3.633c3.118-0.581,6.291-1.093,9.521-1.442
		c3.221-0.333,6.559-0.501,9.826,0.002l0.076,0.997c-2.985,1.027-5.757,2.4-8.564,3.745l-8.425,4.143
		c-5.668,2.741-11.5,5.364-17.633,7.501c-6.131,2.113-12.545,3.867-19.269,4.688c-3.37,0.455-6.752,0.618-10.283,0.563
		c-3.436-0.063-6.684-0.423-9.959-0.809c-6.515-0.837-12.854-2.162-19.078-3.773c-3.111-0.809-6.185-1.724-9.242-2.663
		c-3.042-0.998-6.077-1.984-9.063-3.113c-5.992-2.188-11.858-4.696-17.602-7.466c-2.872-1.383-5.705-2.86-8.489-4.439
		c-2.774-1.6-5.538-3.229-8.092-5.296L75.404,178.281z"/>
</g>
<g>
	<path fill="#BC8E26" d="M265.594,182.964c6.215,0.934,12.359,1.595,18.455,2.243c6.096,0.633,12.149,1.137,18.157,1.539
		c12.031,0.741,23.87,0.962,35.544-0.187c11.853-1.179,23.978-3.123,36.196-4.806c6.113-0.859,12.271-1.659,18.478-2.342
		c3.104-0.337,6.222-0.645,9.363-0.865c3.139-0.219,6.299-0.407,9.491-0.321l0.18,0.984c-11.56,4.899-23.213,9.337-35.213,12.966
		c-11.999,3.613-24.226,6.594-37.036,8.12c-12.998,1.566-26.133,0.653-38.638-2.079c-6.268-1.35-12.403-3.204-18.354-5.509
		c-2.976-1.156-5.901-2.442-8.76-3.874c-2.85-1.447-5.671-2.994-8.262-4.953L265.594,182.964z"/>
</g>
<path fill="none" stroke="#BC8E26" stroke-miterlimit="10" d="M205.241,178.379"/>
<g>
	<path fill="#CB3A19" d="M126.561,289.412c13.787,4.58,27.206,9.494,40.617,14.146c13.392,4.657,26.708,9.205,39.979,13.027
		c3.326,0.923,6.631,1.844,9.932,2.683c3.298,0.848,6.609,1.543,9.87,2.243c6.524,1.339,13.037,2.236,19.068,2.357
		c0.73,0.018,1.545,0.014,2.176,0.001l0.506-0.018l0.438-0.023l0.994-0.078c1.366-0.133,2.849-0.337,4.371-0.6
		c3.054-0.535,6.26-1.289,9.494-2.124c6.475-1.714,13.101-3.716,19.681-5.962c13.237-4.343,26.475-9.296,39.786-14.164l19.993-7.393
		l5.002-1.867l5.021-1.837l4.507-1.676c0.624-0.245,1.368-0.829,2.082-1.775c1.446-1.908,2.55-4.907,3.269-8.021
		c0.755-3.151,1.187-6.487,1.435-9.935l0.117-1.605c0.019-0.131-0.005-0.104,0.083-0.583c-2.744-2.288,11.959-2.843,7.572-0.487
		c0.177,0.582,0.131,0.528,0.168,0.688l0.058,0.459l0.064,0.719l0.192,2.688l0.399,5.329l0.876,10.677
		c0.119,1.786,0.431,3.539,0.654,5.298c0.242,1.76,0.499,3.514,0.781,5.256c0.285,1.737,0.589,3.482,0.98,5.132
		c0.099,0.41,0.204,0.812,0.318,1.182c0.058,0.181,0.117,0.356,0.173,0.498c0.037,0.128,0.152,0.273,0.007,0.122
		c-0.036-0.036-0.062-0.056-0.118-0.096c-0.089-0.062-0.125-0.082-0.276-0.148c-0.232-0.109-0.77-0.142-1.084,0.04
		c-0.567,0.331-0.486,0.469-0.527,0.485c-0.002,0.034,0.065-0.128,0.105-0.281c0.092-0.327,0.165-0.738,0.227-1.146
		c0.461-3.374,0.561-6.995,0.675-10.536c0.098-3.562,0.155-7.135,0.158-10.703l1-0.049c0.333,3.568,0.631,7.136,0.854,10.718
		c0.194,3.598,0.429,7.137,0.25,10.882c-0.034,0.479-0.073,0.956-0.174,1.501c-0.059,0.281-0.104,0.555-0.298,0.992
		c-0.06,0.119-0.11,0.231-0.243,0.409c-0.107,0.143-0.315,0.394-0.705,0.583c-0.416,0.222-1.073,0.201-1.408,0.041
		c-0.205-0.081-0.284-0.141-0.422-0.229c-0.1-0.073-0.166-0.133-0.245-0.206c-0.453-0.477-0.544-0.735-0.698-1.008
		c-0.133-0.264-0.236-0.505-0.334-0.742c-0.189-0.471-0.347-0.922-0.495-1.371c-0.582-1.787-1.033-3.537-1.473-5.297
		c-0.435-1.758-0.841-3.514-1.23-5.271c-0.41-1.755-0.7-3.523-1.173-5.261c-0.88-3.483-1.747-6.973-2.551-10.479l-1.197-5.268
		l-0.58-2.614l-0.139-0.606c-0.021-0.084-0.046-0.179-0.058-0.2c0.015,0.05-0.051-0.114,0.091,0.362
		c-4.393,2.279,10.244,1.706,7.501-0.494c0.078-0.425,0.05-0.342,0.065-0.417c0.013-0.088,0.014,0.032,0.021,0.107l0.021,0.3
		l0.043,0.666c0.232,3.694,0.279,7.516-0.105,11.421c-0.207,1.956-0.526,3.941-1.047,5.973c-0.526,2.028-1.246,4.114-2.412,6.215
		c-1.163,2.08-2.856,4.243-5.298,5.858l-5.102,3.063l-4.652,2.774l-4.695,2.691c-3.134,1.79-6.279,3.562-9.463,5.261
		c-3.182,1.702-6.352,3.44-9.575,5.066c-12.845,6.636-26.004,12.675-39.636,18.07c-6.86,2.597-13.796,5.135-21.106,7.188
		c-3.659,1.037-7.405,1.96-11.386,2.68c-1.995,0.358-4.05,0.668-6.243,0.855c-0.551,0.046-1.107,0.088-1.678,0.119l-0.9,0.041
		l-0.833,0.023c-1.155,0.016-2.126,0.008-3.181-0.022c-8.266-0.256-15.917-1.759-23.306-3.619
		c-3.699-0.911-7.293-2.062-10.851-3.226c-3.554-1.173-7.054-2.432-10.489-3.818c-13.767-5.444-26.797-12.079-39.28-19.538
		c-6.227-3.758-12.346-7.659-18.276-11.855c-5.926-4.197-11.749-8.536-17.236-13.374L126.561,289.412z"/>
</g>
<path fill="#F1C754" d="M17.745,192.782c0,0,49.565-54.334,77.151-58.932s32.184-27.012,37.356-31.035s24.712,8.621,26.437,19.541
	s8.046,8.045,34.483-2.874s28.622-28.161,48.793-24.138s51.206,5.172,59.827,20.689s-10.896,33.334,27.886,10.92
	s61.769-19.54,75.562-4.598s76.141,53.428,77.864,58.025s-11.771-51.704-21.542-68.371s-45.798-52.923-44.828-74.184
	C418.46,0,428.229-1.207,392.022,19.483s-33.333,27.012-40.229,10.345S335.126,5.115,335.126,5.115s-4.95,9.196-18.279,14.368
	s-42.226,8.045-64.272-0.575c-22.046-8.621-72.046-10.345-72.046-10.345s15.517,4.023-18.966,25.862S103.517,38.448,54.667,94.77
	S19.904,203.438,17.745,192.782z"/>
<g>
	<path fill="#BC8E26" d="M131.967,102.406c0.649-0.538,1.56-0.823,2.37-0.91c0.831-0.089,1.65-0.041,2.444,0.081
		c1.59,0.242,3.098,0.74,4.553,1.332c2.906,1.201,5.606,2.811,8.132,4.665c2.516,1.869,4.854,4.009,6.866,6.511
		c1,1.255,1.917,2.605,2.663,4.096c0.372,0.746,0.699,1.527,0.958,2.349c0.129,0.411,0.245,0.831,0.332,1.262l0.232,1.104
		c0.307,1.349,0.775,2.658,1.434,3.39c0.325,0.373,0.667,0.599,1.095,0.753c0.424,0.159,0.958,0.232,1.556,0.231
		c1.203-0.006,2.587-0.297,3.958-0.675c1.378-0.384,2.773-0.863,4.166-1.382c5.577-2.11,11.137-4.654,16.712-7.113
		c1.404-0.627,2.784-1.228,4.138-1.863c1.299-0.613,2.633-1.287,3.912-1.989c2.572-1.407,5.048-2.967,7.425-4.676
		c2.378-1.709,4.659-3.558,6.909-5.523c2.253-1.967,4.469-4.049,6.933-6.112c2.455-2.045,5.243-4.115,8.616-5.559
		c3.36-1.458,7.18-2.062,10.726-1.925c0.894,0.021,1.767,0.101,2.637,0.189l1.288,0.169L243.229,91
		c1.477,0.237,2.923,0.444,4.417,0.647c2.97,0.399,5.981,0.754,9.015,1.117c6.069,0.738,12.237,1.453,18.47,2.659
		c3.117,0.603,6.255,1.313,9.412,2.23c3.151,0.927,6.341,2.023,9.484,3.591c3.135,1.553,6.285,3.538,9.092,6.299
		c2.804,2.731,5.152,6.407,6.334,10.269c1.218,3.863,1.413,7.759,1.34,11.104c-0.03,1.655-0.123,3.257-0.103,4.355
		c-0.003,0.516,0.084,0.95,0.039,0.677c-0.037-0.135-0.126-0.533-0.552-1.145c-0.402-0.613-1.27-1.299-1.938-1.551
		c-0.681-0.275-1.074-0.285-1.241-0.296c-0.159-0.007-0.144,0-0.05-0.02c0.2-0.03,0.677-0.148,1.182-0.316
		c1.043-0.344,2.293-0.872,3.542-1.447c2.523-1.167,5.141-2.55,7.743-3.971c2.629-1.428,5.173-2.91,7.879-4.429
		c1.305-0.723,2.793-1.522,4.162-2.237c1.403-0.721,2.832-1.399,4.262-2.078c5.747-2.66,11.753-4.893,17.994-6.462
		c6.235-1.56,12.703-2.494,19.2-2.459c6.484,0.059,13.025,1.139,18.938,3.692c2.957,1.255,5.73,2.886,8.264,4.791
		c1.259,0.964,2.47,1.981,3.616,3.062c1.149,1.055,2.222,2.298,3.224,3.335c4.215,4.22,9.055,7.972,13.86,11.678
		c4.838,3.688,9.771,7.267,14.733,10.806c9.928,7.079,19.994,13.975,29.995,20.981c4.988,3.526,10.003,6.999,14.812,10.84
		c0.598,0.487,1.189,0.984,1.769,1.515c0.289,0.266,0.574,0.54,0.854,0.842c0.263,0.297,0.59,0.64,0.776,1.146l0.022,0.054
		c0.479-0.501-1.864,0.148-1.179,0.293l-0.021-0.187l-0.089-0.537l-0.218-1.107l-0.483-2.226c-0.67-2.968-1.389-5.931-2.129-8.887
		c-3.021-11.81-6.314-23.562-10.163-35.123c-1.951-5.766-4.001-11.519-6.602-16.999c-1.284-2.746-2.901-5.296-4.638-7.796
		c-1.732-2.497-3.559-4.937-5.406-7.36c-7.408-9.683-15.188-19.114-22.143-29.177c-3.471-5.03-6.773-10.2-9.522-15.689
		c-1.365-2.746-2.604-5.569-3.526-8.515c-0.916-2.939-1.542-6.024-1.421-9.166l0.998,0.046c-0.137,2.971,0.439,5.965,1.316,8.844
		c0.885,2.884,2.073,5.683,3.42,8.4c2.709,5.434,5.984,10.583,9.434,15.598c6.928,10.025,14.63,19.497,22.106,29.152
		c1.862,2.42,3.705,4.859,5.463,7.368c1.755,2.5,3.429,5.115,4.744,7.897c2.659,5.539,4.738,11.299,6.726,17.078
		c3.914,11.582,7.265,23.333,10.347,35.154c0.771,2.955,1.527,5.915,2.233,8.892l0.513,2.241l0.236,1.135l0.104,0.591
		c0.014,0.113,0.031,0.191,0.036,0.382c0.716,0.279-1.73,0.972-1.295,0.332c-0.047-0.088-0.071-0.151-0.095-0.207
		c-0.159-0.422-0.786-0.996-1.307-1.473c-0.551-0.494-1.133-0.973-1.723-1.442c-4.771-3.726-9.835-7.153-14.849-10.614
		c-10.066-6.887-20.214-13.673-30.239-20.654c-5.012-3.492-9.999-7.025-14.908-10.682c-4.89-3.689-9.775-7.374-14.244-11.744
		c-1.117-1.156-2.093-2.18-3.219-3.162c-1.102-0.982-2.263-1.893-3.498-2.687c-2.44-1.632-5.125-2.847-7.899-3.686
		c-5.586-1.64-11.503-1.555-17.149-0.421c-5.671,1.112-11.131,3.171-16.426,5.579c-5.301,2.406-10.466,5.16-15.597,8.025
		c-1.286,0.712-2.561,1.448-3.839,2.183c-1.312,0.74-2.493,1.419-3.834,2.217c-2.584,1.521-5.331,3.082-8.055,4.583
		c-2.75,1.507-5.524,2.991-8.536,4.396c-1.521,0.7-3.076,1.385-4.929,2.007c-0.943,0.306-1.938,0.61-3.246,0.822
		c-0.659,0.1-1.405,0.18-2.327,0.16c-0.928-0.032-2.09-0.151-3.478-0.718c-1.377-0.535-2.866-1.714-3.707-2.951
		c-0.868-1.234-1.24-2.355-1.467-3.228c-0.417-1.756-0.393-2.86-0.41-3.867c0.017-1.953,0.148-3.397,0.193-4.792
		c0.113-2.738-0.034-5.025-0.615-7.013c-0.567-1.994-1.497-3.672-2.984-5.276c-1.48-1.595-3.475-3.04-5.755-4.276
		c-4.577-2.494-10.085-4.287-15.748-5.708c-5.688-1.421-11.588-2.581-17.579-3.7c-2.997-0.565-6.019-1.128-9.065-1.749
		c-1.514-0.31-3.071-0.641-4.588-0.991l-1.04-0.236l-0.97-0.196c-0.643-0.108-1.285-0.214-1.916-0.271
		c-2.537-0.258-4.914-0.046-7.228,0.768c-2.318,0.807-4.624,2.226-6.959,3.938c-4.659,3.46-9.515,7.658-14.884,11.038
		c-2.678,1.709-5.466,3.258-8.328,4.625c-1.438,0.688-2.865,1.315-4.362,1.923c-1.443,0.582-2.894,1.124-4.307,1.667
		c-5.716,2.164-11.391,4.412-17.344,6.312c-1.494,0.468-3.013,0.904-4.596,1.255c-1.588,0.338-3.231,0.634-5.085,0.552
		c-0.924-0.051-1.923-0.212-2.909-0.646c-0.985-0.422-1.893-1.157-2.506-1.987c-1.242-1.689-1.602-3.426-1.897-5.043
		c-0.142-0.879-0.19-1.466-0.36-2.113c-0.16-0.645-0.383-1.291-0.653-1.929c-0.542-1.276-1.271-2.516-2.102-3.699
		c-1.669-2.37-3.749-4.512-6.005-6.438c-2.262-1.92-4.733-3.637-7.388-4.958c-1.327-0.652-2.706-1.213-4.118-1.53
		c-1.395-0.302-2.898-0.413-4.002,0.35L131.967,102.406z"/>
</g>
</svg>
