<?xml version="1.0" encoding="utf-8"?>
<!-- Generator: Adobe Illustrator 15.0.2, SVG Export Plug-In . SVG Version: 6.00 Build 0)  -->
<!DOCTYPE svg PUBLIC "-//W3C//DTD SVG 1.0//EN" "http://www.w3.org/TR/2001/REC-SVG-20010904/DTD/svg10.dtd">
<svg version="1.0" xmlns="http://www.w3.org/2000/svg" xmlns:xlink="http://www.w3.org/1999/xlink" x="0px" y="0px" width="512px"
	 height="512px" viewBox="0 0 512 512" enable-background="new 0 0 512 512" xml:space="preserve">
<g id="Layer_1">
	<path fill="#FFBA00" d="M9.564,214.918c0,116.604-15.547,114.383,163.247,114.383c133.264,0,123.269-6.663,83.29,38.868
		c-39.979,45.532-45.531,65.521-45.531,65.521s3.332,4.443,41.089-13.325c37.758-17.768,82.178-96.122,132.151-95.813
		c49.974,0.308,69.964,2.529,69.964-52.997c0-55.525,10.527-73.295,20.523-79.958c9.995-6.663,39.979-57.746,32.204-69.962
		c-7.775-12.215-54.415-37.894-71.074-35.673c-16.658,2.222-51.083,22.348-76.625,30.121c-25.543,7.773-78.66-29.984-105.672-14.437
		c-27.014,15.547-80.318,4.443-132.513,4.443C-17.088,106.087,9.564,98.312,9.564,214.918z"/>
</g>
<g id="Layer_2">
	<path fill="#F1C754" d="M19.035,218.908c0-93.678,8.908-103.448,67.241-103.448s159.626-1.006,140.805,17.816
		S115.586,176.379,92.598,194.77S19.035,218.908,19.035,218.908z"/>
</g>
<g id="Layer_3">
	<g>
		<path fill="#BC8E26" d="M210.532,433.19c5.237-1.056,10.312-2.726,15.293-4.521c4.962-1.858,9.815-3.945,14.428-6.33
			c2.307-1.187,4.542-2.474,6.67-3.844c1.056-0.675,2.125-1.403,3.072-2.114c0.977-0.737,1.984-1.55,2.984-2.377
			c4.033-3.31,8.014-6.872,11.996-10.396c3.977-3.543,7.919-7.14,11.869-10.726l11.767-10.845
			c7.799-7.267,15.553-14.58,23.062-22.006c3.722-3.733,7.434-7.471,10.863-11.26c1.7-1.888,3.352-3.814,4.698-5.63l0.595-0.803
			l0.689-0.896c0.533-0.682,0.994-1.236,1.517-1.84c1.02-1.181,2.088-2.312,3.198-3.394c4.427-4.357,9.595-7.736,14.945-10.403
			c5.401-2.592,11.021-4.491,16.776-5.63c2.875-0.58,5.776-1.014,8.732-1.205c1.479-0.103,2.968-0.157,4.487-0.149
			c1.555,0.003,2.985,0.1,4.369,0.214c5.504,0.447,10.779,1.071,16.094,1.628c5.302,0.57,10.583,1.097,15.859,1.433
			c2.638,0.162,5.272,0.263,7.899,0.231c2.625-0.042,5.25-0.188,7.789-0.868l0.439,0.898c-1.149,0.826-2.423,1.465-3.717,2.013
			c-1.295,0.55-2.619,1.032-3.959,1.425c-2.677,0.81-5.396,1.39-8.117,1.88c-5.444,0.966-10.911,1.496-16.345,1.891
			c-5.423,0.388-10.878,0.564-16.111,0.82c-1.301,0.08-2.555,0.142-3.684,0.267c-1.162,0.127-2.349,0.305-3.536,0.523
			c-2.375,0.451-4.761,1.004-7.102,1.696c-4.673,1.414-9.216,3.211-13.359,5.545c-4.183,2.261-7.938,5.073-11.165,8.259
			c-0.803,0.802-1.567,1.634-2.292,2.494c-0.352,0.415-0.741,0.899-1.029,1.279l-0.232,0.301l-0.298,0.406l-0.603,0.816
			c-1.878,2.479-3.758,4.606-5.665,6.693c-3.808,4.146-7.697,8.001-11.68,11.746c-3.973,3.747-7.975,7.421-12.068,10.981
			c-4.082,3.571-8.182,7.107-12.365,10.542c-4.167,3.452-8.367,6.859-12.638,10.184c-4.25,3.35-8.567,6.615-12.939,9.826
			c-4.376,3.218-8.807,6.337-13.454,9.352c-1.175,0.746-2.361,1.482-3.632,2.213c-1.309,0.745-2.556,1.378-3.852,1.996
			c-2.576,1.219-5.196,2.242-7.826,3.164c-5.269,1.82-10.62,3.161-16.022,4.105c-5.39,0.948-10.852,1.603-16.326,1.411
			L210.532,433.19z"/>
	</g>
</g>
<g id="Layer_4">
	<g>
		<path fill="#CB3A19" d="M234.312,152.377c3.554-2.161,7.184-4.227,10.899-6.143c3.719-1.91,7.541-3.639,11.442-5.202
			c7.797-3.139,16.03-5.354,24.44-6.546c8.416-1.209,16.966-1.189,25.354-0.703c8.401,0.471,16.661,1.455,24.862,2.137
			c8.2,0.705,16.36,1.071,24.5,0.977c4.078-0.023,8.019-0.219,11.952-0.731c3.923-0.506,7.79-1.295,11.555-2.397
			c7.538-2.196,14.599-5.688,21.156-10.122c3.282-2.22,6.441-4.678,9.571-7.274c3.137-2.593,6.233-5.332,9.549-8.041
			c3.324-2.687,6.866-5.42,11.214-7.496c0.577-0.266,0.984-0.472,1.891-0.777c0.787-0.258,1.467-0.414,2.186-0.541
			c1.411-0.234,2.757-0.277,4.042-0.22c2.569,0.126,4.92,0.631,7.156,1.288c4.465,1.334,8.496,3.294,12.311,5.545
			c3.806,2.265,7.371,4.862,10.695,7.758c3.329,2.889,6.4,6.105,9.085,9.695c2.682,3.583,5.02,7.538,6.588,11.956
			c1.562,4.389,2.295,9.349,1.459,14.232c-0.408,2.429-1.191,4.798-2.277,6.973c-1.098,2.173-2.484,4.146-4.029,5.91
			c-1.547,1.765-3.257,3.318-5.043,4.712c-1.755,1.385-3.752,2.639-5.428,3.684c-3.45,2.188-6.851,4.464-10.162,6.843
			c-6.647,4.719-13.011,9.84-18.613,15.665c-5.604,5.789-10.518,12.324-13.459,19.785c-3.018,7.417-3.643,15.772-1.942,23.828
			l-0.967,0.255c-1.305-3.99-2.034-8.21-2.099-12.483c-0.042-4.272,0.617-8.574,1.87-12.693c2.553-8.26,7.336-15.626,12.846-22.096
			c5.572-6.461,11.896-12.161,18.512-17.401c3.329-2.598,6.733-5.078,10.199-7.473c1.798-1.223,3.28-2.243,4.74-3.485
			c1.438-1.217,2.758-2.525,3.891-3.929c2.268-2.81,3.771-5.977,4.25-9.313c0.487-3.339-0.07-6.853-1.36-10.231
			c-1.29-3.385-3.279-6.625-5.641-9.62c-2.374-2.99-5.105-5.766-8.049-8.306c-2.952-2.532-6.141-4.814-9.483-6.766
			c-3.336-1.94-6.854-3.584-10.357-4.594c-1.743-0.502-3.488-0.834-5.068-0.895c-0.786-0.029-1.524,0.013-2.16,0.125
			c-0.302,0.054-0.633,0.142-0.831,0.209c-0.082,0.012-0.62,0.242-0.983,0.413c-3.176,1.472-6.318,3.779-9.443,6.287
			c-6.244,5.071-12.609,10.853-19.848,15.636c-3.608,2.402-7.403,4.604-11.386,6.437c-3.982,1.832-8.124,3.332-12.351,4.47
			c-8.436,2.301-17.258,3.091-25.745,2.914c-8.46-0.097-16.882-0.843-25.189-1.827c-8.312-0.978-16.507-2.223-24.647-3.117
			c-8.142-0.892-16.267-1.21-24.357-0.565c-8.095,0.612-16.099,2.346-23.925,4.793c-3.913,1.23-7.77,2.671-11.584,4.241
			c-3.822,1.556-7.585,3.271-11.307,5.1L234.312,152.377z"/>
	</g>
</g>
</svg>
