<?xml version="1.0" encoding="utf-8"?>
<!-- Generator: Adobe Illustrator 15.0.2, SVG Export Plug-In . SVG Version: 6.00 Build 0)  -->
<!DOCTYPE svg PUBLIC "-//W3C//DTD SVG 1.0//EN" "http://www.w3.org/TR/2001/REC-SVG-20010904/DTD/svg10.dtd">
<svg version="1.0" xmlns="http://www.w3.org/2000/svg" xmlns:xlink="http://www.w3.org/1999/xlink" x="0px" y="0px" width="512px"
	 height="512px" viewBox="0 0 512 512" enable-background="new 0 0 512 512" xml:space="preserve">
<g id="Layer_1">
	<g>
		<path fill="#FFBA00" d="M73.006,114.224c0,0,87.161,29.418,105.682,32.686c18.521,3.268,269.109-49.028,269.109-49.028
			s1.088,311.601-9.806,326.853c-10.896,15.253-213.545,50.117-242.961,47.938c-29.417-2.18-105.682-25.057-114.398-37.043
			C71.917,423.644,73.006,114.224,73.006,114.224z"/>
		<path fill="#BC8E26" d="M73.166,113.75c31.018,8.168,61.646,17.692,92.328,26.319c3.827,1.044,7.672,2.096,11.445,2.929
			l1.398,0.291c0.462,0.088,0.957,0.186,1.195,0.212c0.633,0.071,1.588,0.077,2.494,0.05c1.856-0.056,3.808-0.216,5.754-0.403
			c7.82-0.784,15.732-1.964,23.61-3.172c15.772-2.461,31.53-5.245,47.291-7.993c31.51-5.607,62.995-11.451,94.488-17.271
			c31.488-5.844,62.989-11.659,94.525-17.319l0.467-0.11L448,97.88v0.004c1,21.24,0.816,42.481,1.029,63.723
			c0.234,21.243,0.322,42.485,0.325,63.73c-0.057,21.244-0.151,42.49-0.434,63.737c-0.326,21.247-0.726,42.495-1.446,63.749
			c-0.388,10.626-0.835,21.253-1.457,31.886c-0.312,5.317-0.663,10.636-1.107,15.961c-0.456,5.328-0.956,10.648-1.792,16.035
			c-0.215,1.349-0.452,2.703-0.754,4.082c-0.324,1.396-0.62,2.746-1.342,4.39c-0.184,0.402-0.454,0.918-0.816,1.391l-0.245,0.304
			c-0.113,0.137-0.192,0.218-0.279,0.311c-0.173,0.183-0.344,0.349-0.513,0.5c-0.678,0.612-1.332,1.065-1.981,1.482
			c-1.295,0.819-2.567,1.46-3.843,2.056c-5.09,2.318-10.196,3.969-15.332,5.564c-10.271,3.122-20.617,5.701-30.989,8.145
			c-20.751,4.842-41.614,9.01-62.527,12.889c-20.917,3.859-41.888,7.397-62.929,10.548c-10.521,1.568-21.06,3.041-31.636,4.322
			c-5.289,0.639-10.587,1.229-15.91,1.721c-5.333,0.474-10.646,0.919-16.147,0.926c-0.691-0.003-1.388-0.019-2.098-0.052
			l-1.076-0.066l-1.011-0.085c-1.371-0.121-2.713-0.273-4.059-0.443c-2.686-0.343-5.345-0.763-7.991-1.226
			c-5.29-0.93-10.525-2.034-15.733-3.235c-10.412-2.412-20.715-5.195-30.92-8.316c-10.203-3.126-20.326-6.524-30.288-10.466
			c-4.977-1.985-9.917-4.091-14.751-6.572c-2.415-1.253-4.805-2.581-7.125-4.229c-1.157-0.836-2.302-1.733-3.386-2.947
			c-0.135-0.158-0.269-0.312-0.4-0.484l-0.196-0.258c-0.173-0.254-0.094-0.132-0.223-0.341c-0.206-0.349-0.284-0.535-0.378-0.755
			c-0.093-0.215-0.163-0.411-0.231-0.607c-0.264-0.773-0.43-1.474-0.585-2.174c-0.583-2.771-0.891-5.431-1.188-8.111
			c-0.285-2.674-0.511-5.338-0.712-8c-0.4-5.325-0.698-10.642-0.958-15.957c-0.514-10.631-0.865-21.256-1.159-31.88
			c-1.124-42.495-1.452-84.979-1.488-127.464c-0.038-42.484,0.091-84.964,0.588-127.444l0.007-0.644L73.166,113.75z M73.513,114.96
			c0.281,42.23,0.594,84.46,1.163,126.685c0.273,21.235,0.669,42.466,1.053,63.696c0.404,21.229,0.895,42.456,1.631,63.665
			c0.374,10.604,0.804,21.205,1.395,31.784c0.298,5.289,0.635,10.573,1.07,15.836c0.219,2.63,0.462,5.255,0.759,7.859
			c0.304,2.593,0.638,5.214,1.169,7.636c0.135,0.595,0.286,1.186,0.457,1.667c0.042,0.117,0.085,0.233,0.125,0.322
			c0.033,0.086,0.101,0.199,0.06,0.138c-0.049-0.062,0.128,0.193,0.047,0.077l0.107,0.138c0.07,0.092,0.156,0.187,0.236,0.281
			c0.689,0.767,1.639,1.531,2.64,2.235c2.021,1.416,4.29,2.667,6.595,3.838c4.632,2.335,9.488,4.366,14.387,6.276
			c9.818,3.801,19.871,7.094,29.996,10.112c10.134,2.992,20.348,5.741,30.634,8.096c5.143,1.173,10.304,2.248,15.476,3.144
			c2.585,0.446,5.173,0.848,7.756,1.17c1.289,0.16,2.585,0.304,3.859,0.413l0.973,0.078l0.911,0.055
			c0.616,0.027,1.247,0.04,1.883,0.041c5.122-0.017,10.406-0.462,15.646-0.942c5.251-0.498,10.506-1.098,15.758-1.744
			c10.505-1.3,21-2.793,31.48-4.382c20.962-3.191,41.873-6.772,62.719-10.673c20.841-3.919,41.634-8.128,62.238-12.99
			c10.292-2.45,20.56-5.04,30.604-8.122c4.995-1.56,10.012-3.217,14.584-5.318c1.129-0.529,2.228-1.096,3.175-1.7
			c0.468-0.3,0.901-0.615,1.207-0.896c0.078-0.069,0.145-0.136,0.199-0.194l0.055-0.059c-0.002,0.003,0,0.009,0.068-0.083
			c0.042-0.054,0.087-0.127,0.181-0.326c0.36-0.786,0.695-2.033,0.959-3.221c0.269-1.215,0.497-2.476,0.702-3.748
			c0.808-5.105,1.325-10.364,1.787-15.613c0.453-5.257,0.82-10.534,1.146-15.817c0.647-10.567,1.13-21.16,1.545-31.757
			c0.864-21.194,1.477-42.413,1.969-63.636c0.525-21.223,0.959-42.452,1.322-63.683l0.942-63.699L447,97.889v-0.005l0.752,0.488
			c-15.594,3.692-31.134,7.274-46.773,10.749l-23.429,5.183l-23.476,5.049c-31.341,6.666-62.728,13.082-94.231,19.027
			c-15.748,3.001-31.525,5.83-47.393,8.367c-7.945,1.25-15.874,2.472-23.988,3.32c-2.039,0.202-4.077,0.383-6.223,0.458
			c-1.094,0.028-2.146,0.057-3.505-0.08c-0.757-0.09-1.242-0.207-1.763-0.305l-1.54-0.329c-4.041-0.921-7.923-1.986-11.807-3.099
			c-15.48-4.489-30.667-9.604-45.796-14.934C102.943,126.488,88.136,120.99,73.513,114.96z"/>
	</g>
</g>
<g id="Layer_2">
	<g>
		<path fill="#F1C754" d="M178.688,146.91c12.858,0.684,283.896-46.812,289.121-52.93c5.226-6.118-118.719-52.411-137.385-55.397
			C311.76,35.595,47.442,84.361,44.456,95.995C41.469,107.627,178.688,146.91,178.688,146.91z"/>
		<path fill="#BC8E26" d="M178.811,146.035c1.003,0.017,2.137-0.1,3.223-0.201l3.401-0.386c2.27-0.28,4.54-0.587,6.81-0.905
			c4.539-0.638,9.075-1.317,13.609-2.012c9.068-1.393,18.129-2.85,27.185-4.332c18.119-2.932,36.198-6.117,54.267-9.347
			c36.145-6.42,72.218-13.264,108.229-20.353c17.995-3.573,36.001-7.175,53.845-11.27c4.448-1.039,8.911-2.11,13.235-3.341
			c1.067-0.313,2.149-0.645,3.094-1.014c0.23-0.091,0.456-0.188,0.62-0.271c0.071-0.037,0.153-0.083,0.144-0.081
			c0.002,0.003-0.016,0.006-0.102,0.088c-0.168,0.206-0.029-0.002-0.21,0.274c-0.188,0.336-0.193,0.647-0.168,0.836
			c0.029,0.185,0.066,0.238,0.068,0.247c0.008,0.01-0.085-0.125-0.213-0.254c-0.55-0.568-1.466-1.219-2.356-1.795
			c-0.909-0.587-1.869-1.149-2.844-1.694c-3.92-2.172-8.051-4.124-12.193-6.02c-4.15-1.891-8.347-3.707-12.562-5.484
			c-16.876-7.081-34.011-13.624-51.227-19.898c-8.612-3.128-17.253-6.177-25.928-9.097c-4.337-1.458-8.683-2.883-13.038-4.243
			c-4.349-1.347-8.737-2.681-13.055-3.71c-0.537-0.125-1.071-0.243-1.595-0.347c-0.521-0.101-1.063-0.203-1.411-0.228
			c-0.888-0.073-2.009-0.05-3.09-0.005c-2.195,0.096-4.452,0.298-6.704,0.524c-4.511,0.46-9.042,1.042-13.568,1.66
			c-9.057,1.245-18.11,2.654-27.154,4.121c-18.089,2.955-36.156,6.114-54.194,9.429c-18.039,3.314-36.053,6.771-54.035,10.372
			c-17.989,3.566-35.958,7.225-53.859,11.148c-8.95,1.961-17.884,3.983-26.78,6.116c-8.891,2.141-17.768,4.364-26.485,6.9
			c-4.338,1.276-8.696,2.634-12.72,4.226c-0.989,0.402-1.963,0.833-2.777,1.275c-0.4,0.214-0.769,0.453-0.938,0.59
			c-0.08,0.054-0.102,0.114,0.048-0.096c0.029-0.047,0.077-0.126,0.134-0.243c0.045-0.125,0.104-0.203,0.168-0.528
			c-0.026,0.106-0.026,0.159,0.011-0.085c0.016-0.185,0.013-0.185,0.011-0.278c-0.064-0.578-0.166-0.473-0.002-0.292
			c0.138,0.193,0.41,0.485,0.729,0.772c0.646,0.585,1.479,1.188,2.349,1.759c3.561,2.276,7.643,4.303,11.724,6.194
			c4.1,1.903,8.306,3.643,12.508,5.412c16.87,6.969,34.157,13.15,51.482,19.16C143.779,135.361,161.264,140.831,178.811,146.035z
			 M178.448,147.749c-17.683-4.991-35.29-10.193-52.944-15.315c-17.626-5.223-35.199-10.63-52.575-16.914
			c-4.349-1.566-8.648-3.284-12.938-5.105c-4.283-1.869-8.549-3.736-12.745-6.381c-1.054-0.678-2.104-1.398-3.176-2.337
			c-0.536-0.478-1.08-1-1.632-1.725c-0.512-0.729-1.21-1.675-1.325-3.413c-0.004-0.236-0.01-0.381,0.025-0.708
			c0.048-0.388,0.077-0.475,0.082-0.51c0.107-0.461,0.2-0.681,0.315-0.931c0.116-0.248,0.235-0.452,0.347-0.616
			c0.47-0.688,0.87-1.027,1.23-1.338c0.72-0.59,1.333-0.955,1.936-1.297c1.196-0.667,2.323-1.169,3.452-1.646
			C52.983,87.65,57.42,86.326,61.88,85c8.911-2.591,17.849-4.828,26.805-6.985c8.956-2.146,17.928-4.177,26.911-6.145
			c17.967-3.925,35.97-7.629,54.006-11.149c18.045-3.477,36.116-6.809,54.212-9.998c18.099-3.177,36.216-6.252,54.395-9.025
			c9.091-1.386,18.191-2.715,27.334-3.884c4.573-0.58,9.152-1.126,13.778-1.553c2.316-0.209,4.635-0.397,7.026-0.48
			c1.211-0.033,2.39-0.065,3.789,0.057c0.797,0.08,1.38,0.21,1.984,0.33c0.601,0.125,1.187,0.26,1.766,0.401
			c4.602,1.144,8.987,2.531,13.394,3.938c4.394,1.417,8.756,2.895,13.105,4.402c8.696,3.019,17.34,6.161,25.953,9.381
			c17.219,6.461,34.333,13.181,51.247,20.466c4.227,1.829,8.438,3.699,12.622,5.653c4.183,1.964,8.343,3.973,12.433,6.289
			c1.022,0.584,2.039,1.19,3.052,1.858c1.017,0.69,2.01,1.346,3.062,2.429c0.264,0.289,0.54,0.6,0.82,1.116
			c0.136,0.262,0.282,0.584,0.354,1.054c0.068,0.471,0.029,1.083-0.301,1.67c-0.246,0.402-0.195,0.31-0.469,0.614
			c-0.188,0.183-0.319,0.274-0.438,0.356c-0.245,0.168-0.417,0.254-0.6,0.35c-0.349,0.175-0.653,0.3-0.956,0.42
			c-1.195,0.462-2.313,0.794-3.446,1.126c-4.504,1.289-8.99,2.284-13.488,3.292c-17.985,3.928-36.026,7.338-54.08,10.725
			c-36.113,6.713-72.312,12.891-108.507,19.082l-54.33,9.076c-9.059,1.493-18.123,2.96-27.198,4.363
			c-4.538,0.7-9.079,1.385-13.629,2.029c-2.275,0.321-4.553,0.632-6.837,0.917l-3.439,0.394c-1.164,0.106-2.282,0.241-3.553,0.216
			l-0.098-0.002L178.448,147.749z"/>
	</g>
	<path fill="#F1C754" stroke="#BC8E26" stroke-miterlimit="10" d="M624.207,205.689"/>
	<path fill="#BC8E26" stroke="#BC8E26" stroke-miterlimit="10" d="M329.678,120.714L329.678,120.714c0,0-2.492-79.9,0.747-82.132
		c3.241-2.232,108.98,31.634,137.385,55.397"/>
</g>
<g id="Layer_3">
	<g>
		<g>
			<path fill="#CB3A19" d="M290.77,274.989c-6.162-7.044-16.355-10.318-23.997-3.605c-2.298,2.019-1.877,4.89-0.399,7.257
				c7.248,11.608,20.55,12.16,32.808,12.629c1.912,0.073,3.813,0.229,5.698,0.56c-1.3-0.228,0.66,0.258,0.804,0.313
				c-0.95-0.363-1.722-0.976-2.153-1.915c1.122,2.443-3.628,10.648-5.321,13.672c4.337,1.089,8.675,2.178,13.012,3.267
				c-0.446-1.317-0.68-2.23-0.849-3.653c-0.005-0.04,0.015-2.062-0.071-0.909c0.022-0.293,0.582-2.369,0.09-1.129
				c0.684-1.722,0.567-1.185,1.39-1.823c0.002-0.002,1.136-0.583,2.507-0.957c1.087-0.297,4.655-0.235,6.873-0.005
				c3.779,0.394,7.375,1.221,10.831,2.201c7.745,2.197,15.641,5.398,22.287,8.865c3.241,1.69,6.392,3.564,9.379,5.673
				c1.821,1.286-1.169-0.951,0.472,0.355c0.601,0.479,1.172,0.991,1.734,1.514c1.853,1.722-0.03-0.47,1.105,1.366
				c-0.205-2.037-0.41-4.074-0.615-6.111c-2.757,3.344-8.725,6.804-13.562,8.91c-6.619,2.883-13.65,4.747-20.768,5.873
				c-7.035,1.112-14.175,1.449-21.241,0.529c-3.444-0.448-4.915-0.828-7.978-1.969c-1.85-0.688-3.74-1.862-5.176-3.263
				c-0.472-0.461-1.771-2.614-2.048-3.822c-0.717-3.144-0.293-6.194,0.443-9.29c1.836-7.724,5.959-14.662,13.542-17.717
				c13.398-5.396,32.001,2.681,40.865,13.055c1.36,1.591,2.521,3.337,3.556,5.152c0.584-2.673,1.167-5.345,1.751-8.017
				c-17.158,6.456-36.236,7.888-54.413,8.265c-18.585,0.385-38.514-0.687-56.142-7.065c1.935,2.73,3.869,5.46,5.804,8.19
				c4.644-15.948,18.474-27.045,30.759-37.21c12.53-10.366,26.41-20.973,33.584-36c-4.451-2.135-8.901-4.27-13.353-6.405
				c-3.949,12.397,7.12,28.266,15.324,36.394c5.479,5.428,12.329,8.909,20.072,9.041c5.044,0.085,12.688-3.792,13.488-9.324
				c1.805-12.482-19.375-15.38-27.535-16.583c-6.884-1.015-13.829-1.427-20.78-1.56c-4.481-0.085-9.614-0.234-13.871,1.417
				c-5.262,2.041-2.632,8.541,1.074,10.652c20.402,11.622,43.921,11.867,66.367,16.461c-2.02-3.736-4.039-7.472-6.059-11.208
				c-8.992,8.366-25.171,6.397-36.395,5.4c-5.81-0.516-8.82,5.993-3.876,9.768c4.544,3.469,17.411,13.742,10.597,20.664
				c-6.294,6.394-17.302,0.476-22.748-3.977c-7.055-5.768-13.88-15.997-11.782-25.48c1.088-4.917,6.463-7.964,10.722-9.722
				c3.348-1.381-1.829-0.666-2.453-3.369c0.538,2.332-0.23,4.877-0.802,7.12c-1.613,6.343-9.084,12.021-14.255,15.916
				c-8.023,6.043-16.99,10.757-26.212,14.678c-8.244,3.505-16.959,6.416-25.928,7.18c-1.585,0.136-2.642,0.137-4.1,0.01
				c-0.447-0.039-2.525-0.668-0.698-0.01c-0.5-0.18-0.984-0.41-1.468-0.628c1.595,0.719-0.812-0.448-0.899-0.494
				c-0.782-0.417-1.541-0.875-2.298-1.334c-0.784-0.475-1.534-1-2.281-1.53c0.827,0.587-1.668-1.881-0.786-0.761
				c1.2,1.522-1.468,2.763,1.111,1.652c-0.008,0.004,2.942-0.787,0.901-0.4c0.487-0.092-0.331-0.061-0.987-0.249
				c1.557,0.446-1.574-0.922-0.109-0.062c1.507,0.885-1.329-1.16,0.065,0.062c0.208,0.183,1.489,1.563,0.384,0.28
				c0.567,0.658,1.066,1.374,1.56,2.088c3.414,4.938,5.833,12.24,7.413,18.716c1.714,7.024,2.991,14.715,2.627,21.89
				c-0.071,1.408-0.245,2.807-0.477,4.196c-0.137,0.818-1.043,3.708-0.775,3.094c-0.263,0.603-1.858,2.543-0.856,1.556
				c-0.743,0.731-0.153,0.249,0.796,0.273c1.569,3.989,3.138,7.979,4.707,11.968c15.655-8.094,32.937-11.489,50.185-14.297
				c7.308-1.19,14.274-1.879,21.671-1.991c6.528-0.099,14.125-0.491,19.274-5.024c6.832-6.016,9.55-17.663,12.182-25.947
				c2.635-8.291,6.799-19.034,5.676-27.928c-0.632-4.999-6.438-8.145-11.048-6.761c-12.989,3.9-14.617,17.046-11.604,28.505
				c3.841,14.616,13.374,27.791,23.777,38.477c10.149,10.424,24.192,20.422,39.229,21.148c12.38,0.598,30.114-7.637,25.669-22.642
				c-3.917-13.223-19.603-22.224-30.681-28.677c-11.398-6.639-23.492-12.458-35.798-17.223c-0.158,3.949-0.316,7.899-0.475,11.849
				c8.552,1.71,18.873,1.995,26.604-2.653c9.068-5.453,6.292-15.718,1.217-22.997c-9.522-13.654-25.811-19.279-41.656-21.581
				c-18.264-2.653-37.288-1.072-55.357,2.218c-15.075,2.745-30.565,6.658-43.952,14.336c-6.434,3.69,3.9,13.379,9.414,10.879
				c9.908-4.494,19.181-10.146,28.393-15.902c-3.927-2.991-7.854-5.982-11.78-8.975c-9.931,13.295-19.216,27.561-32.517,37.795
				c3.722,0.954,7.443,1.908,11.165,2.863c-6.872-9.63-8.861-19.103-2.065-29.348c5.156-7.772,9.792-10.603,18.542-11.868
				c3.416-0.495,6.922-0.719,10.369-0.532c1.745,0.095,3.478,0.331,5.196,0.646c0.206,0.038,3.121,1.1,2.049,0.563
				c1.638,0.818,0.652,0.815,0.039-0.494c-0.593-1.266-0.004,0.633,0.045-0.287c-0.036,0.687-0.256,1.357-0.455,2.008
				c-0.281,0.915-1.109,1.218,0.203,0.034c0.776-0.699,0.562-0.503,1.559-0.646c-1.326,0.191,1.671,0.147,0.165,0.003
				c-0.42-0.04-2.487-0.575-0.651-0.075c-5.015-1.366-9.355-4.174-13.177-7.449c-2.615-2.241-3.681-3.442-5.402-6.204
				c-0.812-1.303-1.369-3.6-0.921-5.689c1.484-6.914,13.841-11.068,20.017-12.255c2.181-0.419,4.289-0.479,6.474-0.147
				c1.167,0.177,0.996,0.99,0.073-0.305c-0.812-1.138-0.229-1.824-0.651-1.379c-1.341,1.411-3.432,2.008-5.273,2.376
				c3.149,2.375,6.299,4.751,9.449,7.126c-0.664-3.606,0.663-6.542,3.343-9.151c3.328-3.242,7.863-5.247,11.863-5.891
				c2.721-0.438,3.211-0.384,5.686,0.027c0.832,0.171,0.862,0.175,0.09,0.011c0.627,0.174,1.23,0.419,1.832,0.664
				c-0.98-0.4,1.219,1.02,0.929,0.757c0.617,0.56,1.757,2.207,2.28,4.548c0.814,3.643,0.562,7.353,0.028,11.009
				c-0.915,6.271,9.329,12.356,13.353,6.405c1.761-2.605,3.534-5.254,5.783-7.468c0.631-0.622,1.332-1.156,2.066-1.648
				c-0.583,0.325-0.586,0.361-0.009,0.109c-1.495,0.571-3.118-0.125-4.443-0.793c-0.649-0.328-2.269-2.559-1.165-0.873
				c-1.009-1.541,0.299,0.838,0.489,1.351c0.764,2.067,1.186,3.932,1.599,5.613c2.333,9.484,5.229,22.139,16.254,24.965
				c-1.749-3.205-3.498-6.41-5.247-9.615c-16.495,22.616-43.143,34.633-62.802,54.021c-5.004,4.935,2.358,11.869,7.815,11.244
				c3.489-0.398,6.61-0.412,8.793,2.58c2.27,3.114,2.605,7.759,2.368,11.46c4.657,1.144,9.314,2.288,13.972,3.432
				c-0.676-11.673,0.518-23.454,1.216-35.099c0.929-15.508,1.663-31.072,0.837-46.602c-1.438-27.053-9.559-59.594-39.286-67.722
				c-2.627-0.719-5.893-0.88-7.548,1.786c-7.665,12.345-2.312,26.7,4.357,38.154c7.972,13.692,19.671,25.472,31.421,35.948
				c29.716,26.496,66.334,43.475,105.421,50.618c5.271,0.963,7.82-4.238,5.106-8.345c-2.191-3.315,0.952-8.947,2.487-11.96
				c2.564-5.03,5.928-9.619,8.943-14.378c-4.337-1.089-8.675-2.178-13.012-3.267c1.201,4.611,0.328,12.253-0.846,17.889
				c-1.677,8.048-4.577,15.798-8.071,23.218c-6.946,14.751-16.73,29.604-30.561,38.707c-5.118,3.368-10.756,4.979-16.017,4.062
				c-1.335-0.232-4.288-1.681-5.591-2.706c-3.249-2.556-4.202-3.996-6.771-7.582c-5.604-7.822-10.251-16.359-14.367-25.041
				c-4.088-8.624-7.929-17.799-9.295-27.304c-2.786-19.382,22.743-28.922,36.435-36.178c11.156-5.912,41.383-14.754,29.674-32.729
				c-9.969-15.304-32.062-5.017-44.109,1.502c-12.82,6.937-25.011,16.163-34.273,27.49c-6.025,7.369-4.776,15.521,4.168,19.672
				c7.092,3.29,17.107,1.075,24.41-0.214c10.944-1.932,21.744-4.705,32.522-7.392c8.428-2.101,15.217-4.27,23.616-5.166
				c-3.129-2.892-6.258-5.783-9.388-8.675c-7.336,25.378-26.28,69.247-60.039,56.282c1.749,3.205,3.498,6.41,5.247,9.615
				c2.202-5.577,7.31-9.888,11.793-13.607c5.746-4.767,12.188-8.939,19.354-11.186c1.04-0.326,2.092-0.466,3.176-0.573
				c2.051-0.204-0.817-0.176,1.109,0.017c1.99,0.199-1.077-0.46,0.71,0.224c-0.371-0.142-1.947-1.395-0.793-0.275
				c-0.378-0.366-0.793-1.332-0.196,0.024c0.307,0.698,0.342,0.811,0.405,2.238c0.006,0.134-0.066,1.039-0.29,2.357
				c-0.227,1.334-0.587,2.645-0.965,3.941c-0.865,2.977-2.097,5.812-3.405,8.616c-6.997,15.002-17.032,29.06-28.172,41.25
				c-8.491,9.292-21.221,22.604-34.271,22.854c3.149,2.375,6.299,4.75,9.449,7.126c-3.45-15.608,12.636-29.462,19.828-41.717
				c6.986-11.904,7.944-29.691-8.527-33.463c-11.639-2.666-25.126,5.092-35.163,9.976c-6.215,3.023-12.36,6.193-18.684,8.99
				c-2.473,1.094-4.987,2.091-7.561,2.921c-1.257,0.405-1.734,0.5-2.23,0.592c-0.553,0.103-1.113,0.155-1.673,0.202
				c-1.714,0.143,1.37,0.154-0.194-0.021c2.358,3.354,4.715,6.709,7.073,10.063c10.944-22.274,35.109-36.669,55.232-49.694
				c6.65-4.305-4.709-14.039-10.766-10.119c-20.962,13.568-45.864,28.786-57.262,51.983c-2.295,4.672,2.53,9.556,7.073,10.063
				c10.218,1.142,20.896-5.384,29.685-9.713c10.133-4.99,21.649-12.021,32.732-13.19c1.638-0.173,0.538-0.116,1.405-0.05
				c1.554,0.119,0.837,0.178,0.013-0.248c0.832,0.43-0.84-1.023-0.246-0.104c-0.601-0.93,0.065,0.79,0.108,1.072
				c1.036,6.724-4.107,13.724-7.641,18.919c-8.3,12.203-20.78,25.623-17.237,41.654c0.994,4.498,4.911,7.214,9.449,7.126
				c15.595-0.299,29.436-13.671,39.399-24.272c12.508-13.309,23.623-28.614,31.361-45.204c5.673-12.163,10.099-29.28-6.238-35.529
				c-14.95-5.719-33.657,9.11-43.293,18.971c-2.819,2.885-5.84,6.146-7.345,9.955c-1.687,4.271,1.205,8.063,5.247,9.615
				c18.821,7.229,37.333,2.28,50.786-12.475c12.744-13.979,20.27-32.261,25.464-50.228c1.417-4.902-5.246-9.117-9.388-8.675
				c-23.812,2.541-46.431,13.962-70.607,14.187c-1.783,0.016,1.408,0.07-0.272-0.022c-0.459-0.024-0.915-0.076-1.371-0.13
				c-2.391-0.281,0.679,0.362-0.82-0.169c0.438,0.155,1.629,0.859,2.502,2.002c0.865,1.132,0.478,0.661,0.744,1.923
				c-0.3-1.421-0.181,1.043-0.012,0.039c0.06-0.351,0.485-1.493-0.103-0.009c0.166-0.419,0.384-0.815,0.596-1.212
				c0.53-0.99,1.205-1.901,1.881-2.795c2.076-2.744,4.707-5.116,7.264-7.452c10.996-10.049,23.192-18.374,37.315-23.41
				c3.111-1.109,6.23-1.863,9.54-1.968c0.239-0.008,1.779,0.592,0.507-0.074c1.349,0.705-0.279-0.237-0.549-0.581
				c-0.605-0.774,0.416,1.133,0.551,1.627c0.275,1.016-4.267,4.299-5.44,5.105c-3.94,2.708-8.459,4.594-12.798,6.558
				c-7.992,3.617-15.841,7.737-23.494,12.023c-9.219,5.164-18.495,11.258-24.012,20.546c-4.636,7.806-3.598,16.553-1.455,24.942
				c2.548,9.977,6.718,19.473,11.358,28.636c7.568,14.945,16.91,33.274,33.714,39.319c23.067,8.299,43.267-13.915,54.471-31.088
				c6.923-10.611,12.273-22.402,15.864-34.546c2.923-9.889,4.428-20.514,1.796-30.609c-1.246-4.783-9.987-8.039-13.012-3.267
				c-6.938,10.95-18.877,25.433-10.2,38.561c1.702-2.781,3.404-5.562,5.106-8.345c-34.631-6.329-67.498-21.749-93.325-44.118
				c-10.508-9.101-20.399-19.148-28.188-30.708c-5.652-8.391-11.537-20.11-5.54-29.769c-2.517,0.595-5.032,1.19-7.548,1.786
				c5.36,1.466,8.945,3.353,12.606,6.8c3.578,3.369,6.378,8.261,8.43,13.19c5.067,12.173,6.223,25.812,6.719,38.854
				c0.981,25.781-3.741,51.58-2.254,77.294c0.346,5.976,13.492,10.917,13.972,3.432c0.515-8.029-0.744-16.207-6.066-22.563
				c-5.981-7.144-14.769-9.868-23.87-8.826c2.605,3.748,5.21,7.496,7.815,11.244c20.474-20.19,47.614-32.705,64.831-56.31
				c2.587-3.548-1.88-8.752-5.247-9.615c-1.615-0.414-0.58-0.165-0.062,0.271c-0.57-0.574-0.562-0.529,0.025,0.134
				c-0.399-0.478-0.729-1.013-1.061-1.539c0.527,0.838-0.736-1.649-0.925-2.118c-0.549-1.363-0.975-2.776-1.389-4.186
				c-1.311-4.461-2.075-9.465-3.925-14.109c-2.241-5.625-7.088-9.757-13.356-9.495c-6.729,0.281-11.718,8.537-14.978,13.358
				c4.451,2.135,8.901,4.27,13.353,6.405c1.394-9.554,0.594-19.402-6.188-26.81c-5.441-5.943-13.531-8.183-21.368-7.779
				c-12.797,0.661-29.129,11.126-26.438,25.75c0.729,3.958,5.157,7.984,9.449,7.126c7.592-1.518,17.513-6.204,13.736-15.703
				c-3.834-9.646-16.764-10.99-25.486-9.313c-9.337,1.795-20.405,6.374-25.75,14.712c-4.047,6.314-2.124,13.719,1.353,19.727
				c3.634,6.28,9.944,11.239,15.967,15.065c4.885,3.104,11.107,6.344,17.022,6.628c6.995,0.336,11.81-5.599,10.103-12.655
				c-2.03-8.391-10.332-11.913-18.077-13.331c-10.48-1.918-25.538-1.083-34.542,5.257c-7.792,5.486-14.313,15.475-15.769,24.879
				c-1.56,10.082,3.19,19.835,8.879,27.807c2.311,3.239,7.604,5.604,11.165,2.863c14.076-10.831,24.034-26.014,34.546-40.084
				c4.522-6.055-6.914-12.015-11.78-8.975c-8.348,5.217-16.71,10.311-25.69,14.383c3.138,3.626,6.276,7.253,9.414,10.879
				c9.521-5.461,22.328-8.843,33.541-11.2c15.122-3.18,30.843-4.91,46.3-4.133c6.568,0.33,13.247,1.105,19.604,2.834
				c5.493,1.493,11.144,3.899,14.821,6.941c2.217,1.833,9.305,8.572,6.039,11.862c-4.461,4.494-13.82,3.049-19.277,1.957
				c-2.618-0.523-5.718,0.887-6.279,3.658c-0.761,3.757,2.639,6.965,5.805,8.19c13.173,5.101,25.446,11.173,37.515,18.696
				c5.801,3.617,12.301,8.226,15.876,12.889c1.768,2.305,1.953,2.588,2.108,4.863c-0.036-0.533-0.339,1.296-0.363,1.347
				c-0.706,1.462-1.195,1.816-2.491,2.886c-10.04,8.287-21.349,2.776-30.871-4.1c-10.676-7.709-20.6-20.405-25.962-33.046
				c-2.112-4.979-3.62-10.6-2.992-15.176c0.594-4.333,2.567-6.394,6.952-7.71c-3.683-2.254-7.365-4.507-11.048-6.761
				c0.196,1.549,0.147,0.543-0.102,2.569c-0.232,1.893-0.615,3.769-1.003,5.634c-1.088,5.243-2.542,10.414-4.106,15.532
				c-1.438,4.706-3.037,9.377-4.969,13.904c-0.787,1.845-1.664,3.647-2.637,5.401c-1.192,2.149-1.345,2.221-2.526,3.261
				c-3.726,3.28-12.251,2.113-16.795,2.162c-7.601,0.081-15.027,1.509-22.507,2.769c-16.578,2.793-33.338,6.426-48.373,14.199
				c-6.341,3.278-1.097,11.82,4.707,11.968c15.108,0.383,14.675-17.913,13.579-28.72c-1.427-14.069-5.462-30.954-15.283-41.669
				c-4.283-4.673-10.808-7.633-17.065-5.397c-4.22,1.508-7.935,3.884-8.009,8.777c-0.062,4.156,3.321,7.835,6.333,10.286
				c6.24,5.077,13.257,8.525,21.368,8.558c8.786,0.034,17.581-2.486,25.802-5.38c17.625-6.204,36.673-16.17,48.513-31.021
				c4.664-5.851,7.87-15.709,4.376-22.809c-5.835-11.86-18.967-7.243-27.354-1.454c-9.522,6.572-9.546,18.702-5.915,28.494
				c4.097,11.049,12.834,20.285,22.741,26.358c8.604,5.273,20.164,8.205,29.827,4.172c8.305-3.467,11.45-12.288,8.87-20.593
				c-2.647-8.522-9.377-15.217-16.293-20.496c-1.292,3.256-2.584,6.512-3.876,9.768c14.381,1.277,34.3,3.129,45.809-7.578
				c4.861-4.523-1.499-10.274-6.059-11.208c-19.598-4.011-41.305-3.691-59.102-13.829c0.358,3.551,0.716,7.102,1.074,10.651
				c0.338-0.131,0.673-0.234,1.022-0.329c-1.777,0.48,0.473,0,0.846-0.047c1.82-0.225,3.664-0.273,5.495-0.311
				c4.594-0.094,9.196,0.245,13.769,0.675c4.731,0.444,9.446,1.122,14.099,2.1c1.267,0.267,3.245,0.823,4.991,1.438
				c0.4,0.141,2.915,1.346,1.033,0.375c1.924,0.993-0.395-0.529,0.37,0.165c-1.767-1.602-1.544-3.775-0.912-4.485
				c-1.142,1.281-2.631,2.22-4.163,2.418c-2.476,0.321-5.594-2.485-8.302-5.309c-4.945-5.158-11.354-15.655-9.099-22.732
				c1.934-6.07-10.396-12.597-13.353-6.405c-7.327,15.347-21.834,25.597-34.559,36.205c-13.076,10.9-25.997,23.02-30.899,39.854
				c-1.048,3.6,2.852,7.122,5.804,8.19c19.141,6.927,40.231,8.154,60.408,8.07c20.136-0.083,41.521-1.886,60.512-9.031
				c3.679-1.385,3.362-5.189,1.751-8.017c-8.75-15.347-27.424-25.154-44.5-27.403c-8.759-1.154-17.435,0.265-25.054,4.756
				c-7.711,4.545-11.684,13.271-13.884,21.571c-3.967,14.965,4.708,27.318,18.389,32.757c14.046,5.582,30.862,4.021,45.221,0.658
				c12.139-2.843,25.268-7.682,33.424-17.573c1.444-1.753,0.384-4.497-0.615-6.111c-3.996-6.462-11.838-10.725-18.341-14.181
				c-9.299-4.941-19.202-8.95-29.414-11.547c-8.351-2.123-18.349-4.217-26.648-0.777c-8.773,3.636-8.779,12.909-6.138,20.696
				c1.474,4.345,10.087,8.488,13.012,3.267c6.122-10.932,11.276-24.39-3.019-30.988c-4.162-1.921-9.354-1.761-13.827-1.885
				c-5.418-0.149-13.005,0.54-16.22-4.61c-0.133,2.419-0.267,4.838-0.399,7.257c2.356-2.07,1.934-1.784,4.128,0.725
				c2.214,2.531,7.17,3.642,9.935,1.44C294.729,281.176,292.841,277.356,290.77,274.989L290.77,274.989z"/>
		</g>
	</g>
</g>
</svg>
