<?xml version="1.0" encoding="utf-8"?>
<!-- Generator: Adobe Illustrator 15.0.2, SVG Export Plug-In . SVG Version: 6.00 Build 0)  -->
<!DOCTYPE svg PUBLIC "-//W3C//DTD SVG 1.0//EN" "http://www.w3.org/TR/2001/REC-SVG-20010904/DTD/svg10.dtd">
<svg version="1.0" xmlns="http://www.w3.org/2000/svg" xmlns:xlink="http://www.w3.org/1999/xlink" x="0px" y="0px" width="512px"
	 height="512px" viewBox="0 0 512 512" enable-background="new 0 0 512 512" xml:space="preserve">
<g id="Layer_1">
	<path fill="#FFBA00" d="M40.078,269.694c0-40.441-30.851-48.456,66.887-48.473c79.885-0.014,98.035,5.636,98.035-88.585
		s-2-100.409,47-100.409c47,0,47.483-0.028,47.483,93.667c0,93.693,13.716,79.412,72.416,78.814
		c94.745-0.964,97.463-13.706,97.463,41.294c0,59-12.323,55.261-93.265,55.261s-74.098,8.865-74.098,73
		s30.862,100.392-38.138,100.392s-50.575-36.252-50.575-98.276c0-62.025,1.414-66.666-77.586-66.666
		C53.701,309.713,40.078,310.136,40.078,269.694z"/>
</g>
<g id="Layer_2">
	<path fill="#F1C754" d="M124.782,238.448c13.793-7.471,70.137-10.873,77.608-23.516s14.346-120.736,14.346-142.001
		S241.816,44.77,256,45.345s30.85,9.771,30.275,19.541s16.87,135.08-30.275,197.126c-11.064,14.561-145.012,16.821-147.885,8.774
		C105.241,262.74,110.989,245.919,124.782,238.448z"/>
</g>
<g id="Layer_3">
	<g>
		<path fill="#BC8E26" d="M224.084,467.858c2.639,0.692,5.296,1.235,7.964,1.572c2.667,0.339,5.341,0.425,8.003,0.335
			c5.325-0.173,10.657-1.141,16.125-1.918l8.211-1.157c2.712-0.414,5.395-0.878,8.026-1.444c5.244-1.132,10.374-2.609,14.705-4.397
			c2.146-0.881,4.083-1.851,5.42-2.823c0.678-0.459,1.172-0.942,1.524-1.312c0.336-0.396,0.532-0.689,0.707-1.008
			c0.034-0.086,0.077-0.17,0.109-0.263c0.005,0.009,0.079-0.237,0.126-0.38l0.152-0.476l0.592-1.887l1.181-3.757
			c0.772-2.499,1.521-4.989,2.241-7.483c1.447-4.987,2.73-9.992,3.739-15.123c0.504-2.566,0.928-5.166,1.27-7.829
			c0.33-2.664,0.568-5.387,0.724-8.243l0.963-0.273c1.646,2.407,2.929,5.07,3.915,7.837c0.999,2.768,1.707,5.642,2.187,8.545
			c0.962,5.813,1.014,11.723,0.514,17.496c-0.255,2.889-0.66,5.748-1.179,8.564c-0.252,1.41-0.55,2.805-0.851,4.192l-0.484,2.072
			l-0.123,0.512c-0.048,0.187-0.057,0.272-0.158,0.606c-0.156,0.564-0.35,1.122-0.559,1.676c-0.854,2.219-2.188,4.244-3.721,5.845
			c-1.516,1.631-3.219,2.817-4.868,3.791c-3.35,1.869-6.61,2.779-9.732,3.336c-3.128,0.53-6.142,0.693-9.084,0.689
			c-2.94,0.008-5.808-0.138-8.634-0.325c-5.658-0.372-11.112-0.79-16.537-0.863c-5.445-0.136-11.041-0.118-16.658-0.779
			c-5.618-0.668-11.061-2.232-16.129-4.378L224.084,467.858z"/>
	</g>
</g>
<g id="Layer_4">
	<g>
		<path fill="#CB3A19" d="M288.595,446.679c-5.021-5.547-9.486-11.548-13.727-17.685c-4.207-6.161-8.257-12.434-12.061-18.859
			c-3.817-6.418-7.397-12.979-10.793-19.646c-3.403-6.666-6.575-13.469-9.308-20.504c-1.361-3.521-2.611-7.102-3.649-10.787
			c-1.026-3.69-1.883-7.472-2.154-11.514c-0.254-4.098,0.181-8.031,0.859-11.862c0.71-3.825,1.588-7.581,2.663-11.269
			c2.154-7.368,4.767-14.562,7.83-21.574c3.063-7.011,6.516-13.868,10.57-20.459c2.006-3.312,4.19-6.537,6.58-9.682
			c2.397-3.146,5-6.193,8.065-9.107c1.556-1.442,3.222-2.854,5.196-4.185c0.48-0.325,1.039-0.674,1.53-0.959l1.251-0.714
			l2.582-1.421c3.438-1.834,6.925-3.502,10.47-5.014c14.17-6.019,29.169-9.946,44.487-11.542c7.653-0.768,15.403-0.953,23.097-0.018
			c1.915,0.237,3.847,0.583,5.718,0.978c1.85,0.381,3.727,0.818,5.557,1.304c3.679,0.971,7.298,2.167,10.819,3.594
			c7.022,2.883,13.713,6.643,19.502,11.529c5.733,4.896,10.726,10.855,13.521,17.915l-0.928,0.375
			c-1.407-3.384-3.444-6.484-5.8-9.285c-2.348-2.816-5.072-5.302-7.996-7.499c-5.85-4.407-12.506-7.659-19.455-9.851
			c-3.474-1.107-7.016-1.983-10.596-2.64c-1.798-0.332-3.573-0.605-5.393-0.836c-1.796-0.225-3.561-0.336-5.354-0.384
			c-7.158-0.2-14.35,0.898-21.347,2.636c-7.007,1.749-13.848,4.161-20.547,6.865c-6.695,2.722-13.26,5.746-19.679,8.961
			c-3.206,1.614-6.377,3.273-9.47,5.003l-2.286,1.306l-1.161,0.688c-0.311,0.186-0.544,0.324-0.834,0.521
			c-1.117,0.74-2.314,1.722-3.488,2.805c-2.379,2.159-4.7,4.717-6.95,7.376c-2.251,2.67-4.421,5.484-6.562,8.349
			c-4.227,5.771-8.252,11.808-11.944,18.052c-3.669,6.252-7.096,12.695-9.809,19.39c-1.345,3.346-2.593,6.733-3.466,10.179
			c-0.88,3.431-1.546,6.918-1.549,10.268c0.035,3.399,0.614,6.962,1.395,10.479c0.788,3.527,1.801,7.043,2.935,10.529
			c4.595,13.956,10.863,27.478,17.905,40.511c3.536,6.516,7.24,12.954,11.299,19.164c4.059,6.201,8.3,12.317,13.219,17.854
			L288.595,446.679z"/>
	</g>
</g>
</svg>
